<?xml version="1.0" encoding="utf-8"?>
<!-- Generator: Adobe Illustrator 22.0.1, SVG Export Plug-In . SVG Version: 6.00 Build 0)  -->
<svg version="1.1" id="Semi_Standard_2_colors" xmlns="http://www.w3.org/2000/svg" xmlns:xlink="http://www.w3.org/1999/xlink"
	 x="0px" y="0px" viewBox="0 0 2444 1042.8" style="enable-background:new 0 0 2444 1042.8;" xml:space="preserve">
<style type="text/css">
	.st0{fill:url(#SVGID_1_);}
	.st1{fill:#210F00;}
	.st2{fill:url(#SVGID_2_);}
	.st3{fill:url(#SVGID_3_);}
	.st4{fill:url(#SVGID_4_);}
	.st5{fill:url(#SVGID_5_);}
	.st6{fill:url(#SVGID_6_);}
	.st7{fill:url(#SVGID_7_);}
	.st8{fill:url(#SVGID_8_);}
	.st9{fill:url(#SVGID_9_);}
	.st10{fill:url(#SVGID_10_);}
	.st11{fill:url(#SVGID_11_);}
	.st12{fill:url(#SVGID_12_);}
	.st13{fill:url(#SVGID_13_);}
	.st14{fill:url(#SVGID_14_);}
	.st15{fill:#E20000;}
	.st16{fill:url(#SVGID_15_);}
	.st17{fill:url(#SVGID_16_);}
	.st18{fill:url(#SVGID_17_);}
	.st19{fill:url(#SVGID_18_);}
	.st20{fill:url(#SVGID_19_);}
	.st21{fill:url(#SVGID_20_);}
	.st22{fill:url(#SVGID_21_);}
	.st23{fill:url(#SVGID_22_);}
	.st24{fill:url(#SVGID_23_);}
	.st25{fill:url(#SVGID_24_);}
	.st26{fill:url(#SVGID_25_);}
	.st27{fill:url(#SVGID_26_);}
	.st28{fill:url(#SVGID_27_);}
	.st29{fill:url(#SVGID_28_);}
	.st30{fill:url(#SVGID_29_);}
	.st31{fill:url(#SVGID_30_);}
	.st32{fill:url(#SVGID_31_);}
	.st33{fill:url(#SVGID_32_);}
	.st34{fill:url(#SVGID_33_);}
	.st35{fill:url(#SVGID_34_);}
	.st36{fill:url(#SVGID_35_);}
	.st37{fill:url(#SVGID_36_);}
	.st38{fill:url(#SVGID_37_);}
	.st39{fill:url(#SVGID_38_);}
	.st40{fill:url(#SVGID_39_);}
	.st41{fill:url(#SVGID_40_);}
	.st42{fill:url(#SVGID_41_);}
	.st43{fill:url(#SVGID_42_);}
	.st44{fill:url(#SVGID_43_);}
	.st45{fill:url(#SVGID_44_);}
	.st46{fill:url(#SVGID_45_);}
	.st47{fill:url(#SVGID_46_);}
	.st48{fill:url(#SVGID_47_);}
	.st49{fill:url(#SVGID_48_);}
	.st50{fill:url(#SVGID_49_);}
	.st51{fill:url(#SVGID_50_);}
	.st52{fill:url(#SVGID_51_);}
	.st53{fill:url(#SVGID_52_);}
</style>
<g id="king_club">
	<g>
		<g>

				<radialGradient id="SVGID_1_" cx="2329.7732" cy="250.5239" r="267.6952" gradientTransform="matrix(1.0183 0 0 -1.0191 -23.9646 1035.6655)" gradientUnits="userSpaceOnUse">
				<stop  offset="1.544750e-04" style="stop-color:#FAF9F4"/>
				<stop  offset="0.67" style="stop-color:#F7F3EA"/>
				<stop  offset="1" style="stop-color:#E8E1D7"/>
			</radialGradient>
			<path class="st0" d="M2429,1040h-158c-8.3,0-15-6.8-15-15V795c0-8.3,6.8-15,15-15h158c8.3,0,15,6.8,15,15v230
				C2444,1033.3,2437.3,1040,2429,1040z"/>
			<g>
				<g>
					<path class="st1" d="M2401,941c0,6.5-3.5,12.6-8.6,16.8c2.2-1.5,5.7-2,8.6-2c11.6,0,20.6,8.9,20.6,20.5
						c0,11.4-9.1,20.6-20.6,20.6c-8.4,0-14.9-4.7-18.1-11.4c0.8,8.6,4.7,23.5,20.3,29.9H2357c16.3-6.4,20.1-21.3,21-29.9
						c-3.5,6.7-10.2,11.4-18.1,11.4c-11.7,0-21.3-9.2-21.3-20.6c0-11.6,9.6-20.5,21.3-20.5c2.9,0,6.2,0.5,8.6,2
						c-5.2-4.2-8.6-10.2-8.6-16.8c0-11.6,9.1-21.5,20.3-21.5C2391.8,919.5,2401,929.4,2401,941z"/>
				</g>
			</g>
			<g>
				<path class="st1" d="M2299.4,882.7c6.8,5.9,4.7,12.9,0.1,16.8c1.1-0.8,2.9-1,4.3-1c5.8,0,10.3,4.4,10.3,10.2
					c0,5.7-4.5,10.3-10.3,10.3c-4.2,0-7.5-2.3-9.1-5.7c0.4,4.3,2.4,11.7,10.2,14.9h-23.1c8.1-3.2,10.1-10.7,10.5-14.9
					c-1.8,3.4-5.1,5.7-9.1,5.7c-5.9,0-10.7-4.6-10.7-10.3c0-5.8,4.8-10.2,10.7-10.2c1.4,0,3.1,0.3,4.3,1c-2.6-2.1-4.3-5.1-4.3-8.4
					c0-6.4,5.6-11.8,12.1-10.5C2296.8,880.9,2298.2,881.7,2299.4,882.7z"/>
			</g>
		</g>
		<g>
			<path class="st1" d="M2291,838.7l-4.6,6.8v18.1h-12.7V802h12.7v22.7l15.1-22.7h14.6l-16.8,24.7l18.4,37h-14L2291,838.7z"/>
		</g>
	</g>
</g>
<g id="queen_club">
	<g>
		<g>

				<radialGradient id="SVGID_2_" cx="2145.1038" cy="250.5239" r="267.6952" gradientTransform="matrix(1.0183 0 0 -1.0191 -23.9208 1035.6655)" gradientUnits="userSpaceOnUse">
				<stop  offset="1.544750e-04" style="stop-color:#FAF9F4"/>
				<stop  offset="0.67" style="stop-color:#F7F3EA"/>
				<stop  offset="1" style="stop-color:#E8E1D7"/>
			</radialGradient>
			<path class="st2" d="M2241,1040h-158c-8.3,0-15-6.8-15-15V795c0-8.3,6.8-15,15-15h158c8.3,0,15,6.8,15,15v230
				C2256,1033.3,2249.3,1040,2241,1040z"/>
			<g>
				<g>
					<path class="st1" d="M2213.3,941c0,6.5-3.5,12.6-8.6,16.8c2.2-1.5,5.7-2,8.6-2c11.6,0,20.6,8.9,20.6,20.5
						c0,11.4-9.1,20.6-20.6,20.6c-8.4,0-14.9-4.7-18.1-11.4c0.8,8.6,4.7,23.5,20.3,29.9h-46.2c16.3-6.4,20.1-21.3,21-29.9
						c-3.5,6.7-10.2,11.4-18.1,11.4c-11.7,0-21.3-9.2-21.3-20.6c0-11.6,9.6-20.5,21.3-20.5c2.9,0,6.2,0.5,8.6,2
						c-5.2-4.2-8.6-10.2-8.6-16.8c0-11.6,9.1-21.5,20.3-21.5C2204,919.5,2213.3,929.4,2213.3,941z"/>
				</g>
			</g>
			<g>
				<path class="st1" d="M2111.9,882.8c6.6,5.9,4.5,12.8-0.1,16.7c1.1-0.8,2.9-1,4.3-1c5.8,0,10.3,4.4,10.3,10.2
					c0,5.7-4.5,10.3-10.3,10.3c-4.2,0-7.5-2.3-9.1-5.7c0.4,4.3,2.4,11.7,10.2,14.9h-23.1c8.1-3.2,10.1-10.7,10.5-14.9
					c-1.8,3.4-5.1,5.7-9.1,5.7c-5.9,0-10.7-4.6-10.7-10.3c0-5.8,4.8-10.2,10.7-10.2c1.4,0,3.1,0.3,4.3,1c-2.6-2.1-4.3-5.1-4.3-8.4
					c0-6.5,5.6-11.9,12.1-10.5C2109.1,880.9,2110.9,881.9,2111.9,882.8z"/>
			</g>
		</g>
		<g>
			<path class="st1" d="M2129.3,832.7c0,8.1-2.1,15.2-5.7,20.6l5.3,6.7l-7.9,6.4l-4.7-6c-3.7,2.4-8.1,3.8-12.8,3.8
				c-16,0-26.2-12.6-26.2-31.2v-0.1c0-18.8,10.5-32.1,25.8-32.1c15.6,0,26.2,12.9,26.2,31.7L2129.3,832.7L2129.3,832.7z
				 M2115.1,842.3c0.8-2.8,1.3-6,1.3-9.6v-0.4c0-11.4-5.2-19.6-13.4-19.6c-7.4,0-12.4,8.1-12.4,19.6v0.4c0,11.7,5.2,19.5,12.7,19.5
				c2,0,3.9-0.5,5.5-1.4l-7.7-9.7l8-6.4L2115.1,842.3z"/>
		</g>
	</g>
</g>
<g id="jack_club">
	<g>
		<g>

				<radialGradient id="SVGID_3_" cx="1961.4347" cy="250.5239" r="267.6952" gradientTransform="matrix(1.0183 0 0 -1.0191 -24.8954 1035.6655)" gradientUnits="userSpaceOnUse">
				<stop  offset="1.544750e-04" style="stop-color:#FAF9F4"/>
				<stop  offset="0.67" style="stop-color:#F7F3EA"/>
				<stop  offset="1" style="stop-color:#E8E1D7"/>
			</radialGradient>
			<path class="st3" d="M2053,1040h-158c-8.3,0-15-6.8-15-15V795c0-8.3,6.8-15,15-15h158c8.3,0,15,6.8,15,15v230
				C2068,1033.3,2061.3,1040,2053,1040z"/>
			<g>
				<g>
					<path class="st1" d="M2026,941c0,6.5-3.5,12.6-8.6,16.8c2.2-1.5,5.7-2,8.6-2c11.6,0,20.6,8.9,20.6,20.5
						c0,11.4-9.1,20.6-20.6,20.6c-8.4,0-14.9-4.7-18.1-11.4c0.8,8.6,4.7,23.5,20.3,29.9H1982c16.3-6.4,20.1-21.3,21-29.9
						c-3.5,6.7-10.2,11.4-18.1,11.4c-11.7,0-21.3-9.2-21.3-20.6c0-11.6,9.6-20.5,21.3-20.5c2.9,0,6.2,0.5,8.6,2
						c-5.2-4.2-8.6-10.2-8.6-16.8c0-11.6,9.1-21.5,20.3-21.5C2016.8,919.5,2026,929.4,2026,941z"/>
				</g>
			</g>
			<g>
				<path class="st1" d="M1921.5,882.8c6.6,5.9,4.5,12.8-0.1,16.7c1.1-0.8,2.9-1,4.3-1c5.8,0,10.3,4.4,10.3,10.2
					c0,5.7-4.5,10.3-10.3,10.3c-4.2,0-7.5-2.3-9.1-5.7c0.4,4.3,2.4,11.7,10.2,14.9h-23.1c8.1-3.2,10.1-10.7,10.5-14.9
					c-1.8,3.4-5.1,5.7-9.1,5.7c-5.9,0-10.7-4.6-10.7-10.3c0-5.8,4.8-10.2,10.7-10.2c1.4,0,3.1,0.3,4.3,1c-2.6-2.1-4.3-5.1-4.3-8.4
					c0-6.5,5.6-11.9,12.1-10.5C1918.6,880.9,1920.4,881.9,1921.5,882.8z"/>
			</g>
		</g>
		<g>
			<path class="st1" d="M1900.3,860l5-10.5c2.3,2.5,4.9,3.7,6.7,3.7c4.4,0,6.5-3.4,6.5-10.2v-41h12.7v40.9c0,14-6.6,22.2-18.5,22.2
				C1907.8,865,1902.3,862.6,1900.3,860z"/>
		</g>
	</g>
</g>
<g id="10_club">
	<g>
		<g>

				<radialGradient id="SVGID_4_" cx="1775.7651" cy="250.5239" r="267.6952" gradientTransform="matrix(1.0183 0 0 -1.0191 -23.8331 1035.6655)" gradientUnits="userSpaceOnUse">
				<stop  offset="1.544750e-04" style="stop-color:#FAF9F4"/>
				<stop  offset="0.67" style="stop-color:#F7F3EA"/>
				<stop  offset="1" style="stop-color:#E8E1D7"/>
			</radialGradient>
			<path class="st4" d="M1865,1040h-158c-8.3,0-15-6.8-15-15V795c0-8.3,6.8-15,15-15h158c8.3,0,15,6.8,15,15v230
				C1880,1033.3,1873.3,1040,1865,1040z"/>
			<g>
				<g>
					<path class="st1" d="M1840,941c0,6.5-3.5,12.6-8.6,16.8c2.2-1.5,5.7-2,8.6-2c11.6,0,20.6,8.9,20.6,20.5
						c0,11.4-9.1,20.6-20.6,20.6c-8.4,0-14.9-4.7-18.1-11.4c0.8,8.6,4.7,23.5,20.3,29.9H1796c16.3-6.4,20.1-21.3,21-29.9
						c-3.5,6.7-10.2,11.4-18.1,11.4c-11.7,0-21.3-9.2-21.3-20.6c0-11.6,9.6-20.5,21.3-20.5c2.9,0,6.2,0.5,8.6,2
						c-5.2-4.2-8.6-10.2-8.6-16.8c0-11.6,9.1-21.5,20.3-21.5C1830.8,919.5,1840,929.4,1840,941z"/>
				</g>
			</g>
			<g>
				<path class="st1" d="M1740.3,883c6.4,5.9,4.4,12.7-0.2,16.5c1.1-0.8,2.9-1,4.3-1c5.8,0,10.3,4.4,10.3,10.2
					c0,5.7-4.5,10.3-10.3,10.3c-4.2,0-7.5-2.3-9.1-5.7c0.4,4.3,2.4,11.7,10.2,14.9h-23.1c8.1-3.2,10.1-10.7,10.5-14.9
					c-1.8,3.4-5.1,5.7-9.1,5.7c-5.9,0-10.7-4.6-10.7-10.3c0-5.8,4.8-10.2,10.7-10.2c1.4,0,3.1,0.3,4.3,1c-2.6-2.1-4.3-5.1-4.3-8.4
					c0-6.2,5.2-11.4,11.3-10.7C1737.1,880.7,1738.9,881.7,1740.3,883z"/>
			</g>
		</g>
		<g>
			<path class="st1" d="M1705.2,813.1l-7.2,2.8l-1.9-9.9l12.3-4.8h8.7v62.4h-11.8L1705.2,813.1L1705.2,813.1z"/>
			<path class="st1" d="M1723.7,833.1v-0.3c0-18.2,7.9-31.8,22.7-31.8c14.9,0,22.7,13.6,22.7,31.8v0.3c0,18.3-7.8,31.7-22.7,31.7
				C1731.6,864.8,1723.7,851.5,1723.7,833.1z M1756.3,833.2V833c0-12.3-3.2-21.2-9.9-21.2c-6.5,0-9.6,8.8-9.6,21v0.3
				c0,12.3,3.2,21.1,9.8,21.1C1753.2,854.1,1756.3,845.4,1756.3,833.2z"/>
		</g>
	</g>
</g>
<g id="9_club">
	<g>
		<g>

				<radialGradient id="SVGID_5_" cx="1592.0959" cy="250.5239" r="267.6952" gradientTransform="matrix(1.0183 0 0 -1.0191 -24.8078 1035.6655)" gradientUnits="userSpaceOnUse">
				<stop  offset="1.544750e-04" style="stop-color:#FAF9F4"/>
				<stop  offset="0.67" style="stop-color:#F7F3EA"/>
				<stop  offset="1" style="stop-color:#E8E1D7"/>
			</radialGradient>
			<path class="st5" d="M1677,1040h-158c-8.3,0-15-6.8-15-15V795c0-8.3,6.8-15,15-15h158c8.3,0,15,6.8,15,15v230
				C1692,1033.3,1685.3,1040,1677,1040z"/>
			<g>
				<g>
					<path class="st1" d="M1649.4,941c0,6.5-3.5,12.6-8.6,16.8c2.2-1.5,5.7-2,8.6-2c11.6,0,20.6,8.9,20.6,20.5
						c0,11.4-9.1,20.6-20.6,20.6c-8.4,0-14.9-4.7-18.1-11.4c0.8,8.6,4.7,23.5,20.3,29.9h-46.2c16.3-6.4,20.1-21.3,21-29.9
						c-3.5,6.7-10.2,11.4-18.1,11.4c-11.7,0-21.3-9.2-21.3-20.6c0-11.6,9.6-20.5,21.3-20.5c2.9,0,6.2,0.5,8.6,2
						c-5.2-4.2-8.6-10.2-8.6-16.8c0-11.6,9.1-21.5,20.3-21.5C1640.1,919.5,1649.4,929.4,1649.4,941z"/>
				</g>
			</g>
			<g>
				<path class="st1" d="M1544.9,882.7c6.8,5.9,4.7,12.9,0.1,16.8c1.1-0.8,2.9-1,4.3-1c5.8,0,10.3,4.4,10.3,10.2
					c0,5.7-4.5,10.3-10.3,10.3c-4.2,0-7.5-2.3-9.1-5.7c0.4,4.3,2.4,11.7,10.2,14.9h-23.1c8.1-3.2,10.1-10.7,10.5-14.9
					c-1.8,3.4-5.1,5.7-9.1,5.7c-5.9,0-10.7-4.6-10.7-10.3c0-5.8,4.8-10.2,10.7-10.2c1.4,0,3.1,0.3,4.3,1c-2.6-2.1-4.3-5.1-4.3-8.4
					c0-6.4,5.6-11.8,12.1-10.5C1542.3,880.9,1543.7,881.7,1544.9,882.7z"/>
			</g>
		</g>
		<g>
			<path class="st1" d="M1556,822.1c0,3.6-0.7,6.9-1.9,9.8h0.1l-15,31.7h-12.4l9.8-20c-10.1-0.5-17.7-9.4-17.7-21.4V822
				c0-12.6,8.1-21.7,18.5-21.7c10.6,0,18.6,9,18.6,21.6V822.1z M1537.5,833.1c4.3,0,7.8-4.6,7.8-10.9V822c0-6.5-3.6-11.1-7.9-11.1
				c-4.4,0-7.9,4.5-7.9,11.1v0.2C1529.5,828.5,1533.2,833.1,1537.5,833.1z"/>
		</g>
	</g>
</g>
<g id="8_club">
	<g>
		<g>

				<radialGradient id="SVGID_6_" cx="1406.4264" cy="250.5239" r="267.6952" gradientTransform="matrix(1.0183 0 0 -1.0191 -23.7455 1035.6655)" gradientUnits="userSpaceOnUse">
				<stop  offset="1.544750e-04" style="stop-color:#FAF9F4"/>
				<stop  offset="0.67" style="stop-color:#F7F3EA"/>
				<stop  offset="1" style="stop-color:#E8E1D7"/>
			</radialGradient>
			<path class="st6" d="M1489,1040h-158c-8.3,0-15-6.8-15-15V795c0-8.3,6.8-15,15-15h158c8.3,0,15,6.8,15,15v230
				C1504,1033.3,1497.3,1040,1489,1040z"/>
			<g>
				<g>
					<path class="st1" d="M1460.3,941c0,6.5-3.5,12.6-8.6,16.8c2.2-1.5,5.7-2,8.6-2c11.6,0,20.6,8.9,20.6,20.5
						c0,11.4-9.1,20.6-20.6,20.6c-8.4,0-14.9-4.7-18.1-11.4c0.8,8.6,4.7,23.5,20.3,29.9h-46.2c16.3-6.4,20.1-21.3,21-29.9
						c-3.5,6.7-10.2,11.4-18.1,11.4c-11.7,0-21.3-9.2-21.3-20.6c0-11.6,9.6-20.5,21.3-20.5c2.9,0,6.2,0.5,8.6,2
						c-5.2-4.2-8.6-10.2-8.6-16.8c0-11.6,9.1-21.5,20.3-21.5C1451,919.5,1460.3,929.4,1460.3,941z"/>
				</g>
			</g>
			<g>
				<path class="st1" d="M1355.5,882.7c6.8,5.9,4.7,12.9,0.1,16.8c1.1-0.8,2.9-1,4.3-1c5.8,0,10.3,4.4,10.3,10.2
					c0,5.7-4.5,10.3-10.3,10.3c-4.2,0-7.5-2.3-9.1-5.7c0.4,4.3,2.4,11.7,10.2,14.9h-23.1c8.1-3.2,10.1-10.7,10.5-14.9
					c-1.8,3.4-5.1,5.7-9.1,5.7c-5.9,0-10.7-4.6-10.7-10.3c0-5.8,4.8-10.2,10.7-10.2c1.4,0,3.1,0.3,4.3,1c-2.6-2.1-4.3-5.1-4.3-8.4
					c0-6.5,5.6-11.9,12.1-10.5C1352.7,880.8,1354.5,881.9,1355.5,882.7z"/>
			</g>
		</g>
		<g>
			<path class="st1" d="M1329,846.4c0-6.5,3.8-12,9.1-14.9c-4.5-2.9-7.9-7.9-7.9-13.8c0-10.7,7.4-18,18.2-18s18.2,7.3,18.2,18.3
				c0,5.7-3.2,10.7-7.8,13.5c5.4,2.8,9,8.3,9,14.8c0,11-7,18.9-19.2,18.9C1336,865.2,1329,857.4,1329,846.4z M1356.4,845.7
				c0-5.5-3.4-9.5-8-9.5s-8,3.9-8,9.5s3,9.5,8,9.5S1356.4,851.4,1356.4,845.7z M1354.6,818c0-4.5-2.3-7.8-6-7.8s-6.1,3.3-6.1,7.7
				c0,5,2.8,8,6.1,8S1354.6,822.9,1354.6,818z"/>
		</g>
	</g>
</g>
<g id="7_club">
	<g>
		<g>

				<radialGradient id="SVGID_7_" cx="1221.7571" cy="250.5239" r="267.6952" gradientTransform="matrix(1.0183 0 0 -1.0191 -23.7017 1035.6655)" gradientUnits="userSpaceOnUse">
				<stop  offset="1.544750e-04" style="stop-color:#FAF9F4"/>
				<stop  offset="0.67" style="stop-color:#F7F3EA"/>
				<stop  offset="1" style="stop-color:#E8E1D7"/>
			</radialGradient>
			<path class="st7" d="M1301,1040h-158c-8.3,0-15-6.8-15-15V795c0-8.3,6.8-15,15-15h158c8.3,0,15,6.8,15,15v230
				C1316,1033.3,1309.3,1040,1301,1040z"/>
			<g>
				<g>
					<path class="st1" d="M1272.2,941c0,6.5-3.5,12.6-8.6,16.8c2.2-1.5,5.7-2,8.6-2c11.6,0,20.6,8.9,20.6,20.5
						c0,11.4-9.1,20.6-20.6,20.6c-8.4,0-14.9-4.7-18.1-11.4c0.8,8.6,4.7,23.5,20.3,29.9h-46.2c16.3-6.4,20.1-21.3,21-29.9
						c-3.5,6.7-10.2,11.4-18.1,11.4c-11.7,0-21.3-9.2-21.3-20.6c0-11.6,9.6-20.5,21.3-20.5c2.9,0,6.2,0.5,8.6,2
						c-5.2-4.2-8.6-10.2-8.6-16.8c0-11.6,9.1-21.5,20.3-21.5C1262.9,919.5,1272.2,929.4,1272.2,941z"/>
				</g>
			</g>
			<g>
				<path class="st1" d="M1167.9,882.7c6.8,5.9,4.7,12.9,0.1,16.8c1.1-0.8,2.9-1,4.3-1c5.8,0,10.3,4.4,10.3,10.2
					c0,5.7-4.5,10.3-10.3,10.3c-4.2,0-7.5-2.3-9.1-5.7c0.4,4.3,2.4,11.7,10.2,14.9h-23.1c8.1-3.2,10.1-10.7,10.5-14.9
					c-1.8,3.4-5.1,5.7-9.1,5.7c-5.9,0-10.7-4.6-10.7-10.3c0-5.8,4.8-10.2,10.7-10.2c1.4,0,3.1,0.3,4.3,1c-2.6-2.1-4.3-5.1-4.3-8.4
					c0-6.5,5.6-11.9,12.1-10.5C1165.1,880.8,1166.9,881.9,1167.9,882.7z"/>
			</g>
		</g>
		<g>
			<path class="st1" d="M1165,812.9h-22.1v-11.3h36.6v7.1l-19,55H1147L1165,812.9z"/>
		</g>
	</g>
</g>
<g id="6_club">
	<g>
		<g>

				<radialGradient id="SVGID_8_" cx="1038.0878" cy="250.6582" r="267.6952" gradientTransform="matrix(1.0183 0 0 -1.0188 -24.6764 1035.8289)" gradientUnits="userSpaceOnUse">
				<stop  offset="1.544750e-04" style="stop-color:#FAF9F4"/>
				<stop  offset="0.67" style="stop-color:#F7F3EA"/>
				<stop  offset="1" style="stop-color:#E8E1D7"/>
			</radialGradient>
			<path class="st8" d="M1113,1040H955c-8.3,0-15-6.8-15-15V795c0-8.3,6.8-15,15-15h158c8.3,0,15,6.8,15,15v230
				C1128,1033.2,1121.3,1040,1113,1040z"/>
			<g>
				<g>
					<path class="st1" d="M1084.9,941c0,6.5-3.5,12.6-8.6,16.8c2.2-1.5,5.7-2,8.6-2c11.6,0,20.6,8.9,20.6,20.5
						c0,11.4-9.1,20.6-20.6,20.6c-8.4,0-14.9-4.7-18.1-11.4c0.8,8.6,4.7,23.5,20.3,29.9H1041c16.3-6.4,20.1-21.3,21-29.9
						c-3.5,6.7-10.2,11.4-18.1,11.4c-11.7,0-21.3-9.2-21.3-20.6c0-11.6,9.6-20.5,21.3-20.5c2.9,0,6.2,0.5,8.6,2
						c-5.2-4.2-8.6-10.2-8.6-16.8c0-11.6,9.1-21.5,20.3-21.5C1075.7,919.5,1084.9,929.4,1084.9,941z"/>
				</g>
			</g>
			<g>
				<path class="st1" d="M980.8,882.7c6.8,5.9,4.7,12.9,0.1,16.8c1.1-0.8,2.9-1,4.3-1c5.8,0,10.3,4.4,10.3,10.2
					c0,5.7-4.5,10.3-10.3,10.3c-4.2,0-7.5-2.3-9.1-5.7c0.4,4.3,2.4,11.7,10.2,14.9h-23.1c8.1-3.2,10.1-10.7,10.5-14.9
					c-1.8,3.4-5.1,5.7-9.1,5.7c-5.9,0-10.7-4.6-10.7-10.3c0-5.8,4.8-10.2,10.7-10.2c1.4,0,3.1,0.3,4.3,1c-2.6-2.1-4.3-5.1-4.3-8.4
					c0-6.5,5.6-11.9,12.1-10.5C978,880.8,979.8,881.9,980.8,882.7z"/>
			</g>
		</g>
		<g>
			<path class="st1" d="M992.6,842.9v0.2c0,12.5-8,21.7-18.5,21.7s-18.5-9.1-18.5-21.6V843c0-3.6,0.7-6.9,1.8-9.8h-0.1l15.1-31.7
				h12.4l-9.8,20C985.1,822.1,992.6,830.9,992.6,842.9z M982,843c0-6.3-3.7-11-8-11s-7.8,4.7-7.8,11v0.2c0,6.4,3.7,11.1,8,11.1
				s7.8-4.6,7.8-11.1V843z"/>
		</g>
	</g>
</g>
<g id="5_club">
	<g>
		<g>

				<radialGradient id="SVGID_9_" cx="852.4183" cy="250.5239" r="267.6952" gradientTransform="matrix(1.0183 0 0 -1.0191 -23.6141 1035.6655)" gradientUnits="userSpaceOnUse">
				<stop  offset="1.544750e-04" style="stop-color:#FAF9F4"/>
				<stop  offset="0.67" style="stop-color:#F7F3EA"/>
				<stop  offset="1" style="stop-color:#E8E1D7"/>
			</radialGradient>
			<path class="st9" d="M925,1040H767c-8.3,0-15-6.8-15-15V795c0-8.3,6.8-15,15-15h158c8.3,0,15,6.8,15,15v230
				C940,1033.3,933.3,1040,925,1040z"/>
			<g>
				<g>
					<path class="st1" d="M895.5,941c0,6.5-3.5,12.6-8.6,16.8c2.2-1.5,5.7-2,8.6-2c11.6,0,20.6,8.9,20.6,20.5
						c0,11.4-9.1,20.6-20.6,20.6c-8.4,0-14.9-4.7-18.1-11.4c0.8,8.6,4.7,23.5,20.3,29.9h-46.2c16.3-6.4,20.1-21.3,21-29.9
						c-3.5,6.7-10.2,11.4-18.1,11.4c-11.7,0-21.3-9.2-21.3-20.6c0-11.6,9.6-20.5,21.3-20.5c2.9,0,6.2,0.5,8.6,2
						c-5.2-4.2-8.6-10.2-8.6-16.8c0-11.6,9.1-21.5,20.3-21.5C886.3,919.5,895.5,929.4,895.5,941z"/>
				</g>
			</g>
			<g>
				<path class="st1" d="M791.4,882.7c6.8,5.9,4.7,12.9,0.1,16.8c1.1-0.8,2.9-1,4.3-1c5.8,0,10.3,4.4,10.3,10.2
					c0,5.7-4.5,10.3-10.3,10.3c-4.2,0-7.5-2.3-9.1-5.7c0.4,4.3,2.4,11.7,10.2,14.9h-23.1c8.1-3.2,10.1-10.7,10.5-14.9
					c-1.8,3.4-5.1,5.7-9.1,5.7c-5.9,0-10.7-4.6-10.7-10.3c0-5.8,4.8-10.2,10.7-10.2c1.4,0,3.1,0.3,4.3,1c-2.6-2.1-4.3-5.1-4.3-8.4
					c0-6.5,5.6-11.9,12.1-10.5C788.6,880.8,790.4,881.9,791.4,882.7z"/>
			</g>
		</g>
		<g>
			<path class="st1" d="M766.4,854.5l8.2-7.6c2,3.5,5.2,6.2,9,6.2c4.8,0,8.3-4.2,8.3-11.1v-0.2c0-6.1-3.2-10.8-7.6-10.8
				c-2.4,0-4.8,1.3-7.4,4.4l-8.3-2.7l2.6-31.1H799v11.3h-17.9l-0.8,10.4c1.8-1.3,4.4-2.2,7.4-2.2c9.4,0,15.8,8.2,15.8,20.7v0.1
				c0,13.6-7.8,22.7-19.5,22.7C776.6,864.6,769.8,860.5,766.4,854.5z"/>
		</g>
	</g>
</g>
<g id="4_club">
	<g>
		<g>

				<radialGradient id="SVGID_10_" cx="668.7493" cy="250.5239" r="267.6952" gradientTransform="matrix(1.0183 0 0 -1.0191 -24.5887 1035.6655)" gradientUnits="userSpaceOnUse">
				<stop  offset="1.544750e-04" style="stop-color:#FAF9F4"/>
				<stop  offset="0.67" style="stop-color:#F7F3EA"/>
				<stop  offset="1" style="stop-color:#E8E1D7"/>
			</radialGradient>
			<path class="st10" d="M737,1040H579c-8.3,0-15-6.8-15-15V795c0-8.3,6.8-15,15-15h158c8.3,0,15,6.8,15,15v230
				C752,1033.3,745.3,1040,737,1040z"/>
			<g>
				<g>
					<path class="st1" d="M708.3,941c0,6.5-3.5,12.6-8.6,16.8c2.2-1.5,5.7-2,8.6-2c11.6,0,20.6,8.9,20.6,20.5
						c0,11.4-9.1,20.6-20.6,20.6c-8.4,0-14.9-4.7-18.1-11.4c0.8,8.6,4.7,23.5,20.3,29.9h-46.2c16.3-6.4,20.1-21.3,21-29.9
						c-3.5,6.7-10.2,11.4-18.1,11.4c-11.7,0-21.3-9.2-21.3-20.6c0-11.6,9.6-20.5,21.3-20.5c2.9,0,6.2,0.5,8.6,2
						c-5.2-4.2-8.6-10.2-8.6-16.8c0-11.6,9.1-21.5,20.3-21.5C699,919.5,708.3,929.4,708.3,941z"/>
				</g>
			</g>
			<g>
				<path class="st1" d="M604.3,882.7c6.8,5.9,4.7,12.9,0.1,16.8c1.1-0.8,2.9-1,4.3-1c5.8,0,10.3,4.4,10.3,10.2
					c0,5.7-4.5,10.3-10.3,10.3c-4.2,0-7.5-2.3-9.1-5.7c0.4,4.3,2.4,11.7,10.2,14.9h-23.1c8.1-3.2,10.1-10.7,10.5-14.9
					c-1.8,3.4-5.1,5.7-9.1,5.7c-5.9,0-10.7-4.6-10.7-10.3c0-5.8,4.8-10.2,10.7-10.2c1.4,0,3.1,0.3,4.3,1c-2.6-2.1-4.3-5.1-4.3-8.4
					c0-6.5,5.6-11.9,12.1-10.5C601.5,880.8,603.3,881.9,604.3,882.7z"/>
			</g>
		</g>
		<g>
			<path class="st1" d="M599.3,851.6h-22.7V841l23.7-39.6h10.9v38.8h5.7v11.4h-5.7v12.1h-11.9V851.6z M599.3,840.2v-20.9L588,840.2
				H599.3z"/>
		</g>
	</g>
</g>
<g id="3_club">
	<g>
		<g>

				<radialGradient id="SVGID_11_" cx="484.0798" cy="250.5239" r="267.6952" gradientTransform="matrix(1.0183 0 0 -1.0191 -24.5449 1035.6655)" gradientUnits="userSpaceOnUse">
				<stop  offset="1.544750e-04" style="stop-color:#FAF9F4"/>
				<stop  offset="0.67" style="stop-color:#F7F3EA"/>
				<stop  offset="1" style="stop-color:#E8E1D7"/>
			</radialGradient>
			<path class="st11" d="M549,1040H391c-8.3,0-15-6.8-15-15V795c0-8.3,6.8-15,15-15h158c8.3,0,15,6.8,15,15v230
				C564,1033.3,557.3,1040,549,1040z"/>
			<g>
				<g>
					<path class="st1" d="M520.5,941c0,6.5-3.5,12.6-8.6,16.8c2.2-1.5,5.7-2,8.6-2c11.6,0,20.6,8.9,20.6,20.5
						c0,11.4-9.1,20.6-20.6,20.6c-8.4,0-14.9-4.7-18.1-11.4c0.8,8.6,4.7,23.5,20.3,29.9h-46.2c16.3-6.4,20.1-21.3,21-29.9
						c-3.5,6.7-10.2,11.4-18.1,11.4c-11.7,0-21.3-9.2-21.3-20.6c0-11.6,9.6-20.5,21.3-20.5c2.9,0,6.2,0.5,8.6,2
						c-5.2-4.2-8.6-10.2-8.6-16.8c0-11.6,9.1-21.5,20.3-21.5C511.3,919.5,520.5,929.4,520.5,941z"/>
				</g>
			</g>
			<g>
				<path class="st1" d="M416.7,882.7c6.8,5.9,4.7,12.9,0.1,16.8c1.1-0.8,2.9-1,4.3-1c5.8,0,10.3,4.4,10.3,10.2
					c0,5.7-4.5,10.3-10.3,10.3c-4.2,0-7.5-2.3-9.1-5.7c0.4,4.3,2.4,11.7,10.2,14.9H399c8.1-3.2,10.1-10.7,10.5-14.9
					c-1.8,3.4-5.1,5.7-9.1,5.7c-5.9,0-10.7-4.6-10.7-10.3c0-5.8,4.8-10.2,10.7-10.2c1.4,0,3.1,0.3,4.3,1c-2.6-2.1-4.3-5.1-4.3-8.4
					c0-6.4,5.6-11.8,12.1-10.5C414.1,880.9,415.5,881.7,416.7,882.7z"/>
			</g>
		</g>
		<g>
			<path class="st1" d="M391.8,853.8l8.2-7.3c2.5,3.6,5.9,6.3,9.8,6.3c5.4,0,8.5-5,8.5-10.2v-0.7c0-6.1-3.4-11.3-10.6-10.2l-3.9,1
				l-3.4-6l11.3-13.8H395v-11.3h31.3v8l-10.9,13.9c8.5,1.3,14.3,8.8,14.3,19.4v0.3c0,12.4-8.4,21.1-20,21.1
				C401.6,864.2,394.9,859.6,391.8,853.8z"/>
		</g>
	</g>
</g>
<g id="2_club">
	<g>
		<g>

				<radialGradient id="SVGID_12_" cx="298.4103" cy="250.5239" r="267.6952" gradientTransform="matrix(1.0183 0 0 -1.0191 -23.4826 1035.6655)" gradientUnits="userSpaceOnUse">
				<stop  offset="1.544750e-04" style="stop-color:#FAF9F4"/>
				<stop  offset="0.67" style="stop-color:#F7F3EA"/>
				<stop  offset="1" style="stop-color:#E8E1D7"/>
			</radialGradient>
			<path class="st12" d="M361,1040H203c-8.3,0-15-6.8-15-15V795c0-8.3,6.8-15,15-15h158c8.3,0,15,6.8,15,15v230
				C376,1033.3,369.3,1040,361,1040z"/>
			<path class="st1" d="M331.1,941c0,6.5-3.5,12.6-8.6,16.8c2.2-1.5,5.7-2,8.6-2c11.6,0,20.6,8.9,20.6,20.5
				c0,11.4-9.1,20.6-20.6,20.6c-8.4,0-14.9-4.7-18.1-11.4c0.8,8.6,4.7,23.5,20.3,29.9h-46.2c16.3-6.4,20.1-21.3,21-29.9
				c-3.5,6.7-10.2,11.4-18.1,11.4c-11.7,0-21.3-9.2-21.3-20.6c0-11.6,9.6-20.5,21.3-20.5c2.9,0,6.2,0.5,8.6,2
				c-5.2-4.2-8.6-10.2-8.6-16.8c0-11.6,9.1-21.5,20.3-21.5C321.8,919.5,331.1,929.4,331.1,941z"/>
			<g>
				<path class="st1" d="M227.3,882.7c6.8,5.9,4.7,12.9,0.1,16.8c1.1-0.8,2.9-1,4.3-1c5.8,0,10.3,4.4,10.3,10.2
					c0,5.7-4.5,10.3-10.3,10.3c-4.2,0-7.5-2.3-9.1-5.7c0.4,4.3,2.4,11.7,10.2,14.9h-23.1c8.1-3.2,10.1-10.7,10.5-14.9
					c-1.8,3.4-5.1,5.7-9.1,5.7c-5.9,0-10.7-4.6-10.7-10.3c0-5.8,4.8-10.2,10.7-10.2c1.4,0,3.1,0.3,4.3,1c-2.6-2.1-4.3-5.1-4.3-8.4
					c0-6.5,5.6-11.9,12.1-10.5C224.5,880.8,226.4,881.9,227.3,882.7z"/>
			</g>
		</g>
		<g>
			<path class="st1" d="M205.9,855.7l19.3-25.6c3.5-4.8,4.3-7.8,4.3-11c0-4.1-2.5-7.2-6.6-7.2c-3.8,0-7.5,3.4-10.2,9.1l-7.7-6.8
				c3.9-8.5,10.1-13.8,18-13.8c11.7,0,18,7.6,18,18v0.2c0,5.1-1.9,10.7-8.2,19.4l-10.1,14.2h18.9v11.4h-35.7V855.7z"/>
		</g>
	</g>
</g>
<g id="1_club">
	<g>
		<g>

				<radialGradient id="SVGID_13_" cx="115.1004" cy="250.5239" r="267.6952" gradientTransform="matrix(1.0183 0 0 -1.0191 -24.8232 1035.6655)" gradientUnits="userSpaceOnUse">
				<stop  offset="1.544750e-04" style="stop-color:#FAF9F4"/>
				<stop  offset="0.67" style="stop-color:#F7F3EA"/>
				<stop  offset="1" style="stop-color:#E8E1D7"/>
			</radialGradient>
			<path class="st13" d="M173,1040H15c-8.3,0-15-6.8-15-15V795c0-8.3,6.8-15,15-15h158c8.3,0,15,6.8,15,15v230
				C188,1033.3,181.3,1040,173,1040z"/>
			<g>
				<g>
					<path class="st1" d="M146.4,941c0,6.5-3.5,12.6-8.6,16.8c2.2-1.5,5.7-2,8.6-2c11.6,0,20.6,8.9,20.6,20.5
						c0,11.4-9.1,20.6-20.6,20.6c-8.4,0-14.9-4.7-18.1-11.4c0.8,8.6,4.7,23.5,20.3,29.9h-46.2c16.3-6.4,20.1-21.3,21-29.9
						c-3.5,6.7-10.2,11.4-18.1,11.4c-11.7,0-21.3-9.2-21.3-20.6c0-11.6,9.6-20.5,21.3-20.5c2.9,0,6.2,0.5,8.6,2
						c-5.2-4.2-8.6-10.2-8.6-16.8c0-11.6,9.1-21.5,20.3-21.5C137.1,919.5,146.4,929.4,146.4,941z"/>
				</g>
			</g>
			<g>
				<path class="st1" d="M40.6,882.7c6.8,5.9,4.7,12.9,0.1,16.8c1.1-0.8,2.9-1,4.3-1c5.8,0,10.3,4.4,10.3,10.2
					c0,5.7-4.5,10.3-10.3,10.3c-4.2,0-7.5-2.3-9.1-5.7c0.4,4.3,2.4,11.7,10.2,14.9H23c8.1-3.2,10.1-10.7,10.5-14.9
					c-1.8,3.4-5.1,5.7-9.1,5.7c-5.9,0-10.7-4.6-10.7-10.3c0-5.8,4.8-10.2,10.7-10.2c1.4,0,3.1,0.3,4.3,1c-2.6-2.1-4.3-5.1-4.3-8.4
					c0-6.4,5.6-11.8,12.1-10.5C38.1,880.9,39.5,881.7,40.6,882.7z"/>
			</g>
		</g>
		<g>
			<path class="st1" d="M45,852.2H27.9l-2.8,11.4H11.8L29.6,802h13.7l17.8,61.7H47.8L45,852.2z M42.2,840.9l-5.8-23.5l-5.8,23.5
				H42.2z"/>
		</g>
		<g>
			<g>
				<path class="st1" d="M45,852.2H27.9l-2.8,11.4H11.8L29.6,802h13.7l17.8,61.7H47.8L45,852.2z M42.2,840.9l-5.8-23.5l-5.8,23.5
					H42.2z"/>
			</g>
		</g>
	</g>
</g>
<g id="king_diamond">
	<g>
		<g>

				<radialGradient id="SVGID_14_" cx="2329.7732" cy="510.4895" r="267.6952" gradientTransform="matrix(1.0183 0 0 -1.0191 -23.9646 1040.6035)" gradientUnits="userSpaceOnUse">
				<stop  offset="1.544750e-04" style="stop-color:#FAF9F4"/>
				<stop  offset="0.67" style="stop-color:#F7F3EA"/>
				<stop  offset="1" style="stop-color:#E8E1D7"/>
			</radialGradient>
			<path class="st14" d="M2429,780h-158c-8.3,0-15-6.8-15-15V535c0-8.3,6.8-15,15-15h158c8.3,0,15,6.8,15,15v230
				C2444,773.3,2437.3,780,2429,780z"/>
			<path class="st15" d="M2423,704.3c0,0-24.2,23.7-42.8,55.5c-18.8-31.9-43-55.5-43-55.5s24.2-23.8,43-55.7
				C2398.8,680.5,2423,704.3,2423,704.3z"/>
			<g>
				<path class="st15" d="M2312.8,639.9c0,0-12.1,11.8-21.4,27.8c-9.4-15.9-21.5-27.8-21.5-27.8s12.1-11.9,21.5-27.8
					C2300.7,628,2312.8,639.9,2312.8,639.9z"/>
			</g>
		</g>
		<g>
			<path class="st15" d="M2291,578.6l-4.6,6.8v18.1h-12.7v-61.7h12.7v22.7l15.1-22.7h14.6l-16.8,24.7l18.4,37h-14L2291,578.6z"/>
		</g>
	</g>
</g>
<g id="queen_diamond">
	<g>
		<g>

				<radialGradient id="SVGID_15_" cx="2145.1038" cy="510.4895" r="267.6952" gradientTransform="matrix(1.0183 0 0 -1.0191 -23.9208 1040.6035)" gradientUnits="userSpaceOnUse">
				<stop  offset="1.544750e-04" style="stop-color:#FAF9F4"/>
				<stop  offset="0.67" style="stop-color:#F7F3EA"/>
				<stop  offset="1" style="stop-color:#E8E1D7"/>
			</radialGradient>
			<path class="st16" d="M2241,780h-158c-8.3,0-15-6.8-15-15V535c0-8.3,6.8-15,15-15h158c8.3,0,15,6.8,15,15v230
				C2256,773.3,2249.3,780,2241,780z"/>
			<path class="st15" d="M2235.3,704.3c0,0-24.2,23.7-42.8,55.5c-18.8-31.9-43-55.5-43-55.5s24.2-23.8,43-55.7
				C2211.1,680.5,2235.3,704.3,2235.3,704.3z"/>
			<g>
				<path class="st15" d="M2125.1,639.9c0,0-12.1,11.8-21.4,27.8c-9.4-15.9-21.5-27.8-21.5-27.8s12.1-11.9,21.5-27.8
					C2113,628,2125.1,639.9,2125.1,639.9z"/>
			</g>
		</g>
		<g>
			<path class="st15" d="M2129.3,572.6c0,8.1-2.1,15.2-5.7,20.6l5.3,6.7l-7.9,6.4l-4.7-6c-3.7,2.4-8.1,3.8-12.8,3.8
				c-16,0-26.2-12.6-26.2-31.2v-0.1c0-18.8,10.5-32.1,25.8-32.1c15.6,0,26.2,12.9,26.2,31.7L2129.3,572.6L2129.3,572.6z
				 M2115.1,582.2c0.8-2.8,1.3-6,1.3-9.6v-0.4c0-11.4-5.2-19.6-13.4-19.6c-7.4,0-12.4,8.1-12.4,19.6v0.4c0,11.7,5.2,19.5,12.7,19.5
				c2,0,3.9-0.5,5.5-1.4l-7.7-9.7l8-6.4L2115.1,582.2z"/>
		</g>
	</g>
</g>
<g id="jack_diamond">
	<g>
		<g>

				<radialGradient id="SVGID_16_" cx="1961.4347" cy="510.4895" r="267.6952" gradientTransform="matrix(1.0183 0 0 -1.0191 -24.8954 1040.6035)" gradientUnits="userSpaceOnUse">
				<stop  offset="1.544750e-04" style="stop-color:#FAF9F4"/>
				<stop  offset="0.67" style="stop-color:#F7F3EA"/>
				<stop  offset="1" style="stop-color:#E8E1D7"/>
			</radialGradient>
			<path class="st17" d="M2053,780h-158c-8.3,0-15-6.8-15-15V535c0-8.3,6.8-15,15-15h158c8.3,0,15,6.8,15,15v230
				C2068,773.3,2061.3,780,2053,780z"/>
			<path class="st15" d="M2048,704.3c0,0-24.2,23.7-42.8,55.5c-18.8-31.9-43-55.5-43-55.5s24.2-23.8,43-55.7
				C2023.9,680.5,2048,704.3,2048,704.3z"/>
			<g>
				<path class="st15" d="M1934.6,639.9c0,0-12.1,11.8-21.4,27.8c-9.4-15.9-21.5-27.8-21.5-27.8s12.1-11.9,21.5-27.8
					C1922.6,628,1934.6,639.9,1934.6,639.9z"/>
			</g>
		</g>
		<g>
			<path class="st15" d="M1900.3,599.9l5-10.5c2.3,2.5,4.9,3.7,6.7,3.7c4.4,0,6.5-3.4,6.5-10.2V542h12.7v40.9
				c0,14-6.6,22.2-18.5,22.2C1907.8,604.9,1902.3,602.5,1900.3,599.9z"/>
		</g>
	</g>
</g>
<g id="10_diamond">
	<g>
		<g>

				<radialGradient id="SVGID_17_" cx="1775.7651" cy="510.4895" r="267.6952" gradientTransform="matrix(1.0183 0 0 -1.0191 -23.8331 1040.6035)" gradientUnits="userSpaceOnUse">
				<stop  offset="1.544750e-04" style="stop-color:#FAF9F4"/>
				<stop  offset="0.67" style="stop-color:#F7F3EA"/>
				<stop  offset="1" style="stop-color:#E8E1D7"/>
			</radialGradient>
			<path class="st18" d="M1865,780h-158c-8.3,0-15-6.8-15-15V535c0-8.3,6.8-15,15-15h158c8.3,0,15,6.8,15,15v230
				C1880,773.3,1873.3,780,1865,780z"/>
			<path class="st15" d="M1862,704.3c0,0-24.2,23.7-42.8,55.5c-18.8-31.9-43-55.5-43-55.5s24.2-23.8,43-55.7
				C1837.9,680.5,1862,704.3,1862,704.3z"/>
			<g>
				<path class="st15" d="M1753.4,639.9c0,0-12.1,11.8-21.4,27.8c-9.4-15.9-21.5-27.8-21.5-27.8s12.1-11.9,21.5-27.8
					C1741.3,628,1753.4,639.9,1753.4,639.9z"/>
			</g>
		</g>
		<g>
			<path class="st15" d="M1705.2,553l-7.2,2.8l-1.9-9.9l12.3-4.8h8.7v62.4h-11.8L1705.2,553L1705.2,553z"/>
			<path class="st15" d="M1723.7,573v-0.3c0-18.2,7.9-31.8,22.7-31.8c14.9,0,22.7,13.6,22.7,31.8v0.3c0,18.3-7.8,31.7-22.7,31.7
				C1731.6,604.7,1723.7,591.4,1723.7,573z M1756.3,573.1v-0.2c0-12.3-3.2-21.2-9.9-21.2c-6.5,0-9.6,8.8-9.6,21v0.3
				c0,12.3,3.2,21.1,9.8,21.1C1753.2,594,1756.3,585.3,1756.3,573.1z"/>
		</g>
	</g>
</g>
<g id="9_diamond">
	<g>
		<g>

				<radialGradient id="SVGID_18_" cx="1592.0959" cy="510.4895" r="267.6952" gradientTransform="matrix(1.0183 0 0 -1.0191 -24.8078 1040.6035)" gradientUnits="userSpaceOnUse">
				<stop  offset="1.544750e-04" style="stop-color:#FAF9F4"/>
				<stop  offset="0.67" style="stop-color:#F7F3EA"/>
				<stop  offset="1" style="stop-color:#E8E1D7"/>
			</radialGradient>
			<path class="st19" d="M1677,780h-158c-8.3,0-15-6.8-15-15V535c0-8.3,6.8-15,15-15h158c8.3,0,15,6.8,15,15v230
				C1692,773.3,1685.3,780,1677,780z"/>
			<path class="st15" d="M1671.4,704.3c0,0-24.2,23.7-42.8,55.5c-18.8-31.9-43-55.5-43-55.5s24.2-23.8,43-55.7
				C1647.2,680.5,1671.4,704.3,1671.4,704.3z"/>
			<g>
				<path class="st15" d="M1558.2,639.9c0,0-12.1,11.8-21.4,27.8c-9.4-15.9-21.5-27.8-21.5-27.8s12.1-11.9,21.5-27.8
					C1546.1,628,1558.2,639.9,1558.2,639.9z"/>
			</g>
		</g>
		<g>
			<path class="st15" d="M1556,562c0,3.6-0.7,6.9-1.9,9.8h0.1l-15,31.7h-12.4l9.8-20c-10.1-0.5-17.7-9.4-17.7-21.4V562
				c0-12.6,8.1-21.7,18.5-21.7c10.6,0,18.6,9,18.6,21.6V562z M1537.5,573c4.3,0,7.8-4.6,7.8-10.9v-0.2c0-6.5-3.6-11.1-7.9-11.1
				c-4.4,0-7.9,4.5-7.9,11.1v0.2C1529.5,568.4,1533.2,573,1537.5,573z"/>
		</g>
	</g>
</g>
<g id="8_diamond">
	<g>
		<g>

				<radialGradient id="SVGID_19_" cx="1406.4264" cy="510.4895" r="267.6952" gradientTransform="matrix(1.0183 0 0 -1.0191 -23.7455 1040.6035)" gradientUnits="userSpaceOnUse">
				<stop  offset="1.544750e-04" style="stop-color:#FAF9F4"/>
				<stop  offset="0.67" style="stop-color:#F7F3EA"/>
				<stop  offset="1" style="stop-color:#E8E1D7"/>
			</radialGradient>
			<path class="st20" d="M1489,780h-158c-8.3,0-15-6.8-15-15V535c0-8.3,6.8-15,15-15h158c8.3,0,15,6.8,15,15v230
				C1504,773.3,1497.3,780,1489,780z"/>
			<path class="st15" d="M1482.3,704.3c0,0-24.2,23.7-42.8,55.5c-18.8-31.9-43-55.5-43-55.5s24.2-23.8,43-55.7
				C1458.1,680.5,1482.3,704.3,1482.3,704.3z"/>
			<g>
				<path class="st15" d="M1368.9,639.9c0,0-12.1,11.8-21.4,27.8c-9.4-15.9-21.5-27.8-21.5-27.8s12.1-11.9,21.5-27.8
					C1356.8,628,1368.9,639.9,1368.9,639.9z"/>
			</g>
		</g>
		<g>
			<path class="st15" d="M1329,586.3c0-6.5,3.8-12,9.1-14.9c-4.5-2.9-7.9-7.9-7.9-13.8c0-10.7,7.4-18,18.2-18s18.2,7.3,18.2,18.3
				c0,5.7-3.2,10.7-7.8,13.5c5.4,2.8,9,8.3,9,14.8c0,11-7,18.9-19.2,18.9C1336,605.1,1329,597.3,1329,586.3z M1356.4,585.6
				c0-5.5-3.4-9.5-8-9.5s-8,3.9-8,9.5s3,9.5,8,9.5S1356.4,591.3,1356.4,585.6z M1354.6,557.9c0-4.5-2.3-7.8-6-7.8s-6.1,3.3-6.1,7.7
				c0,5,2.8,8,6.1,8S1354.6,562.8,1354.6,557.9z"/>
		</g>
	</g>
</g>
<g id="7_diamond">
	<g>
		<g>

				<radialGradient id="SVGID_20_" cx="1221.7571" cy="510.4895" r="267.6952" gradientTransform="matrix(1.0183 0 0 -1.0191 -23.7017 1040.6035)" gradientUnits="userSpaceOnUse">
				<stop  offset="1.544750e-04" style="stop-color:#FAF9F4"/>
				<stop  offset="0.67" style="stop-color:#F7F3EA"/>
				<stop  offset="1" style="stop-color:#E8E1D7"/>
			</radialGradient>
			<path class="st21" d="M1301,780h-158c-8.3,0-15-6.8-15-15V535c0-8.3,6.8-15,15-15h158c8.3,0,15,6.8,15,15v230
				C1316,773.3,1309.3,780,1301,780z"/>
			<path class="st15" d="M1294.2,704.3c0,0-24.2,23.7-42.8,55.5c-18.8-31.9-43-55.5-43-55.5s24.2-23.8,43-55.7
				C1270,680.5,1294.2,704.3,1294.2,704.3z"/>
			<g>
				<path class="st15" d="M1181.2,639.9c0,0-12.1,11.8-21.4,27.8c-9.4-15.9-21.5-27.8-21.5-27.8s12.1-11.9,21.5-27.8
					C1169.1,628,1181.2,639.9,1181.2,639.9z"/>
			</g>
		</g>
		<g>
			<path class="st15" d="M1165,552.8h-22.1v-11.3h36.6v7.1l-19,55H1147L1165,552.8z"/>
		</g>
	</g>
</g>
<g id="6_diamond">
	<g>
		<g>

				<radialGradient id="SVGID_21_" cx="1038.0878" cy="510.4895" r="267.6952" gradientTransform="matrix(1.0183 0 0 -1.0191 -24.6764 1040.6035)" gradientUnits="userSpaceOnUse">
				<stop  offset="1.544750e-04" style="stop-color:#FAF9F4"/>
				<stop  offset="0.67" style="stop-color:#F7F3EA"/>
				<stop  offset="1" style="stop-color:#E8E1D7"/>
			</radialGradient>
			<path class="st22" d="M1113,780H955c-8.3,0-15-6.8-15-15V535c0-8.3,6.8-15,15-15h158c8.3,0,15,6.8,15,15v230
				C1128,773.3,1121.3,780,1113,780z"/>
			<path class="st15" d="M1106.9,704.3c0,0-24.2,23.7-42.8,55.5c-18.8-31.9-43-55.5-43-55.5s24.2-23.8,43-55.7
				C1082.7,680.5,1106.9,704.3,1106.9,704.3z"/>
			<g>
				<path class="st15" d="M994.1,639.9c0,0-12.1,11.8-21.4,27.8c-9.4-15.9-21.5-27.8-21.5-27.8s12.1-11.9,21.5-27.8
					C982,628,994.1,639.9,994.1,639.9z"/>
			</g>
		</g>
		<g>
			<path class="st15" d="M992.6,582.8v0.2c0,12.5-8,21.7-18.5,21.7s-18.5-9.1-18.5-21.6V583c0-3.6,0.7-6.9,1.8-9.8h-0.1l15.1-31.7
				h12.4l-9.8,20C985.1,562,992.6,570.8,992.6,582.8z M982,582.9c0-6.3-3.7-11-8-11s-7.8,4.7-7.8,11v0.2c0,6.4,3.7,11.1,8,11.1
				s7.8-4.6,7.8-11.1V582.9z"/>
		</g>
	</g>
</g>
<g id="5_diamond">
	<g>
		<g>

				<radialGradient id="SVGID_22_" cx="852.4183" cy="510.4895" r="267.6952" gradientTransform="matrix(1.0183 0 0 -1.0191 -23.6141 1040.6035)" gradientUnits="userSpaceOnUse">
				<stop  offset="1.544750e-04" style="stop-color:#FAF9F4"/>
				<stop  offset="0.67" style="stop-color:#F7F3EA"/>
				<stop  offset="1" style="stop-color:#E8E1D7"/>
			</radialGradient>
			<path class="st23" d="M925,780H767c-8.3,0-15-6.8-15-15V535c0-8.3,6.8-15,15-15h158c8.3,0,15,6.8,15,15v230
				C940,773.3,933.3,780,925,780z"/>
			<path class="st15" d="M917.5,704.3c0,0-24.2,23.7-42.8,55.5c-18.8-31.9-43-55.5-43-55.5s24.2-23.8,43-55.7
				C893.3,680.5,917.5,704.3,917.5,704.3z"/>
			<g>
				<path class="st15" d="M804.8,639.9c0,0-12.1,11.8-21.4,27.8c-9.4-15.9-21.5-27.8-21.5-27.8s12.1-11.9,21.5-27.8
					C792.7,628,804.8,639.9,804.8,639.9z"/>
			</g>
		</g>
		<g>
			<path class="st15" d="M766.4,594.4l8.2-7.6c2,3.5,5.2,6.2,9,6.2c4.8,0,8.3-4.2,8.3-11.1v-0.2c0-6.1-3.2-10.8-7.6-10.8
				c-2.4,0-4.8,1.3-7.4,4.4l-8.3-2.7l2.6-31.1H799v11.3h-17.9l-0.8,10.4c1.8-1.3,4.4-2.2,7.4-2.2c9.4,0,15.8,8.2,15.8,20.7v0.1
				c0,13.6-7.8,22.7-19.5,22.7C776.6,604.5,769.8,600.4,766.4,594.4z"/>
		</g>
	</g>
</g>
<g id="4_diamond">
	<g>
		<g>

				<radialGradient id="SVGID_23_" cx="668.7493" cy="510.4895" r="267.6952" gradientTransform="matrix(1.0183 0 0 -1.0191 -24.5887 1040.6035)" gradientUnits="userSpaceOnUse">
				<stop  offset="1.544750e-04" style="stop-color:#FAF9F4"/>
				<stop  offset="0.67" style="stop-color:#F7F3EA"/>
				<stop  offset="1" style="stop-color:#E8E1D7"/>
			</radialGradient>
			<path class="st24" d="M737,780H579c-8.3,0-15-6.8-15-15V535c0-8.3,6.8-15,15-15h158c8.3,0,15,6.8,15,15v230
				C752,773.3,745.3,780,737,780z"/>
			<path class="st15" d="M730.2,704.3c0,0-24.2,23.7-42.8,55.5c-18.8-31.9-43-55.5-43-55.5s24.2-23.8,43-55.7
				C706.1,680.5,730.2,704.3,730.2,704.3z"/>
			<g>
				<path class="st15" d="M617.7,639.9c0,0-12.1,11.8-21.4,27.8c-9.4-15.9-21.5-27.8-21.5-27.8s12.1-11.9,21.5-27.8
					C605.6,628,617.7,639.9,617.7,639.9z"/>
			</g>
		</g>
		<g>
			<path class="st15" d="M599.3,591.5h-22.7v-10.6l23.7-39.6h10.9v38.8h5.7v11.4h-5.7v12.1h-11.9V591.5z M599.3,580.1v-20.9
				L588,580.1H599.3z"/>
		</g>
	</g>
</g>
<g id="3_diamond">
	<g>
		<g>

				<radialGradient id="SVGID_24_" cx="483.9044" cy="510.6561" r="267.6952" gradientTransform="matrix(1.0183 0 0 -1.0191 -24.3663 1040.7733)" gradientUnits="userSpaceOnUse">
				<stop  offset="1.544750e-04" style="stop-color:#FAF9F4"/>
				<stop  offset="0.67" style="stop-color:#F7F3EA"/>
				<stop  offset="1" style="stop-color:#E8E1D7"/>
			</radialGradient>
			<path class="st25" d="M549,780H391c-8.3,0-15-6.8-15-15V535c0-8.3,6.8-15,15-15h158c8.3,0,15,6.8,15,15v230
				C564,773.3,557.3,780,549,780z"/>
			<path class="st15" d="M542.5,704.3c0,0-24.2,23.7-42.8,55.5c-18.8-31.9-43-55.5-43-55.5s24.2-23.8,43-55.7
				C518.3,680.5,542.5,704.3,542.5,704.3z"/>
			<g>
				<path class="st15" d="M430,639.9c0,0-12.1,11.8-21.4,27.8c-9.4-15.9-21.5-27.8-21.5-27.8s12.1-11.9,21.5-27.8
					C417.9,628,430,639.9,430,639.9z"/>
			</g>
		</g>
		<g>
			<path class="st15" d="M391.8,593.6l8.2-7.3c2.5,3.6,5.9,6.3,9.8,6.3c5.4,0,8.5-5,8.5-10.2v-0.7c0-6.1-3.4-11.3-10.6-10.2l-3.9,1
				l-3.4-6l11.3-13.8H395v-11.3h31.3v8l-10.9,13.9c8.5,1.3,14.3,8.8,14.3,19.4v0.3c0,12.4-8.4,21.1-20,21.1
				C401.6,604.1,394.9,599.5,391.8,593.6z"/>
		</g>
	</g>
</g>
<g id="2_diamond">
	<g>
		<g>

				<radialGradient id="SVGID_25_" cx="298.8999" cy="510.6561" r="267.6952" gradientTransform="matrix(1.0183 0 0 -1.0191 -23.9813 1040.7733)" gradientUnits="userSpaceOnUse">
				<stop  offset="1.544750e-04" style="stop-color:#FAF9F4"/>
				<stop  offset="0.67" style="stop-color:#F7F3EA"/>
				<stop  offset="1" style="stop-color:#E8E1D7"/>
			</radialGradient>
			<path class="st26" d="M361,780H203c-8.3,0-15-6.8-15-15V535c0-8.3,6.8-15,15-15h158c8.3,0,15,6.8,15,15v230
				C376,773.3,369.3,780,361,780z"/>
			<path class="st15" d="M353,704.3c0,0-24.2,23.7-42.8,55.5c-18.8-31.9-43-55.5-43-55.5s24.2-23.8,43-55.7
				C328.9,680.5,353,704.3,353,704.3z"/>
			<g>
				<path class="st15" d="M240.7,639.9c0,0-12.1,11.8-21.4,27.8c-9.4-15.9-21.5-27.8-21.5-27.8s12.1-11.9,21.5-27.8
					C228.6,628,240.7,639.9,240.7,639.9z"/>
			</g>
		</g>
		<g>
			<path class="st15" d="M205.9,595.6l19.3-25.6c3.5-4.8,4.3-7.8,4.3-11c0-4.1-2.5-7.2-6.6-7.2c-3.8,0-7.5,3.4-10.2,9.1l-7.7-6.8
				c3.9-8.5,10.1-13.8,18-13.8c11.7,0,18,7.6,18,18v0.2c0,5.1-1.9,10.7-8.2,19.4l-10.1,14.2h18.9v11.4h-35.7V595.6z"/>
		</g>
	</g>
</g>
<g id="1_diamond">
	<g>
		<g>

				<radialGradient id="SVGID_26_" cx="115.1004" cy="510.4895" r="267.6952" gradientTransform="matrix(1.0183 0 0 -1.0191 -24.8232 1040.6035)" gradientUnits="userSpaceOnUse">
				<stop  offset="1.544750e-04" style="stop-color:#FAF9F4"/>
				<stop  offset="0.67" style="stop-color:#F7F3EA"/>
				<stop  offset="1" style="stop-color:#E8E1D7"/>
			</radialGradient>
			<path class="st27" d="M173,780H15c-8.3,0-15-6.8-15-15V535c0-8.3,6.8-15,15-15h158c8.3,0,15,6.8,15,15v230
				C188,773.3,181.3,780,173,780z"/>
			<path class="st15" d="M168.4,704.3c0,0-24.2,23.7-42.8,55.5c-18.8-31.9-43-55.5-43-55.5s24.2-23.8,43-55.7
				C144.2,680.5,168.4,704.3,168.4,704.3z"/>
			<g>
				<path class="st15" d="M58,639.9c0,0-12.1,11.8-21.4,27.8c-9.4-15.9-21.5-27.8-21.5-27.8s12.1-11.9,21.5-27.8
					C45.9,628,58,639.9,58,639.9z"/>
			</g>
		</g>
		<g>
			<path class="st15" d="M45,592.1H27.9l-2.8,11.4H11.8l17.8-61.7h13.7l17.8,61.7H47.8L45,592.1z M42.2,580.8l-5.8-23.5l-5.8,23.5
				H42.2z"/>
		</g>
	</g>
</g>
<g id="king_heart">
	<g>
		<g>

				<radialGradient id="SVGID_27_" cx="2329.7732" cy="770.4542" r="267.6952" gradientTransform="matrix(1.0183 0 0 -1.0191 -23.9646 1045.5405)" gradientUnits="userSpaceOnUse">
				<stop  offset="1.544750e-04" style="stop-color:#FAF9F4"/>
				<stop  offset="0.67" style="stop-color:#F7F3EA"/>
				<stop  offset="1" style="stop-color:#E8E1D7"/>
			</radialGradient>
			<path class="st28" d="M2429,520h-158c-8.3,0-15-6.8-15-15V275c0-8.3,6.8-15,15-15h158c8.3,0,15,6.8,15,15v230
				C2444,513.3,2437.3,520,2429,520z"/>
			<path class="st15" d="M2427.5,434.5c0,26.5-47.3,42.5-47.3,65.3c0-22.8-47.3-38.8-47.3-65.3c0-12.8,11.1-26.2,26.7-26.2
				c15.3,0,20.6,13.8,20.6,13.8s5.4-13.8,20.6-13.8C2416.1,408.3,2427.5,421.7,2427.5,434.5z"/>
			<g>
				<path class="st15" d="M2315,374.9c0,13.3-23.7,21.2-23.7,32.6c0-11.4-23.7-19.4-23.7-32.6c0-6.4,5.5-13.1,13.3-13.1
					c7.6,0,10.3,6.9,10.3,6.9s2.7-6.9,10.3-6.9C2309.3,361.8,2315,368.5,2315,374.9z"/>
			</g>
		</g>
		<g>
			<path class="st15" d="M2291,318.7l-4.6,6.8v18.1h-12.7V282h12.7v22.7l15.1-22.7h14.6l-16.8,24.7l18.4,37h-14L2291,318.7z"/>
		</g>
	</g>
</g>
<g id="queen_heart">
	<g>
		<g>

				<radialGradient id="SVGID_28_" cx="2145.1038" cy="770.4542" r="267.6952" gradientTransform="matrix(1.0183 0 0 -1.0191 -23.9208 1045.5405)" gradientUnits="userSpaceOnUse">
				<stop  offset="1.544750e-04" style="stop-color:#FAF9F4"/>
				<stop  offset="0.67" style="stop-color:#F7F3EA"/>
				<stop  offset="1" style="stop-color:#E8E1D7"/>
			</radialGradient>
			<path class="st29" d="M2241,520h-158c-8.3,0-15-6.8-15-15V275c0-8.3,6.8-15,15-15h158c8.3,0,15,6.8,15,15v230
				C2256,513.3,2249.3,520,2241,520z"/>
			<path class="st15" d="M2239.7,434.5c0,26.5-47.3,42.5-47.3,65.3c0-22.8-47.3-38.8-47.3-65.3c0-12.8,11.1-26.2,26.7-26.2
				c15.3,0,20.6,13.8,20.6,13.8s5.4-13.8,20.6-13.8C2228.3,408.3,2239.7,421.7,2239.7,434.5z"/>
			<g>
				<path class="st15" d="M2127.4,374.9c0,13.3-23.7,21.2-23.7,32.6c0-11.4-23.7-19.4-23.7-32.6c0-6.4,5.5-13.1,13.3-13.1
					c7.6,0,10.3,6.9,10.3,6.9s2.7-6.9,10.3-6.9C2121.6,361.8,2127.4,368.5,2127.4,374.9z"/>
			</g>
		</g>
		<g>
			<path class="st15" d="M2129.3,312.7c0,8.1-2.1,15.2-5.7,20.6l5.3,6.7l-7.9,6.4l-4.7-6c-3.7,2.4-8.1,3.8-12.8,3.8
				c-16,0-26.2-12.6-26.2-31.2v-0.1c0-18.8,10.5-32.1,25.8-32.1c15.6,0,26.2,12.9,26.2,31.7L2129.3,312.7L2129.3,312.7z
				 M2115.1,322.3c0.8-2.8,1.3-6,1.3-9.6v-0.4c0-11.4-5.2-19.6-13.4-19.6c-7.4,0-12.4,8.1-12.4,19.6v0.4c0,11.7,5.2,19.5,12.7,19.5
				c2,0,3.9-0.5,5.5-1.4l-7.7-9.7l8-6.4L2115.1,322.3z"/>
		</g>
	</g>
</g>
<g id="jack_heart">
	<g>
		<g>

				<radialGradient id="SVGID_29_" cx="1961.4347" cy="770.4542" r="267.6952" gradientTransform="matrix(1.0183 0 0 -1.0191 -24.8954 1045.5405)" gradientUnits="userSpaceOnUse">
				<stop  offset="1.544750e-04" style="stop-color:#FAF9F4"/>
				<stop  offset="0.67" style="stop-color:#F7F3EA"/>
				<stop  offset="1" style="stop-color:#E8E1D7"/>
			</radialGradient>
			<path class="st30" d="M2053,520h-158c-8.3,0-15-6.8-15-15V275c0-8.3,6.8-15,15-15h158c8.3,0,15,6.8,15,15v230
				C2068,513.3,2061.3,520,2053,520z"/>
			<path class="st15" d="M2052.5,434.5c0,26.5-47.3,42.5-47.3,65.3c0-22.8-47.3-38.8-47.3-65.3c0-12.8,11.1-26.2,26.7-26.2
				c15.3,0,20.6,13.8,20.6,13.8s5.4-13.8,20.6-13.8C2041.1,408.3,2052.5,421.7,2052.5,434.5z"/>
			<g>
				<path class="st15" d="M1936.9,374.9c0,13.3-23.7,21.2-23.7,32.6c0-11.4-23.7-19.4-23.7-32.6c0-6.4,5.5-13.1,13.3-13.1
					c7.6,0,10.3,6.9,10.3,6.9s2.7-6.9,10.3-6.9S1936.9,368.5,1936.9,374.9z"/>
			</g>
		</g>
		<g>
			<path class="st15" d="M1900.3,340l5-10.5c2.3,2.5,4.9,3.7,6.7,3.7c4.4,0,6.5-3.4,6.5-10.2v-41h12.7v40.9c0,14-6.6,22.2-18.5,22.2
				C1907.8,345,1902.3,342.6,1900.3,340z"/>
		</g>
	</g>
</g>
<g id="10_heart">
	<g>
		<g>

				<radialGradient id="SVGID_30_" cx="1775.7651" cy="770.4542" r="267.6952" gradientTransform="matrix(1.0183 0 0 -1.0191 -23.8331 1045.5405)" gradientUnits="userSpaceOnUse">
				<stop  offset="1.544750e-04" style="stop-color:#FAF9F4"/>
				<stop  offset="0.67" style="stop-color:#F7F3EA"/>
				<stop  offset="1" style="stop-color:#E8E1D7"/>
			</radialGradient>
			<path class="st31" d="M1865,520h-158c-8.3,0-15-6.8-15-15V275c0-8.3,6.8-15,15-15h158c8.3,0,15,6.8,15,15v230
				C1880,513.3,1873.3,520,1865,520z"/>
			<path class="st15" d="M1866.5,434.5c0,26.5-47.3,42.5-47.3,65.3c0-22.8-47.3-38.8-47.3-65.3c0-12.8,11.1-26.2,26.7-26.2
				c15.3,0,20.6,13.8,20.6,13.8s5.4-13.8,20.6-13.8C1855.1,408.3,1866.5,421.7,1866.5,434.5z"/>
			<g>
				<path class="st15" d="M1751.6,374.9c0,13.3-23.7,21.2-23.7,32.6c0-11.4-23.7-19.4-23.7-32.6c0-6.4,5.5-13.1,13.3-13.1
					c7.6,0,10.3,6.9,10.3,6.9s2.7-6.9,10.3-6.9C1745.9,361.8,1751.6,368.5,1751.6,374.9z"/>
			</g>
		</g>
		<g>
			<path class="st15" d="M1705.2,293.1l-7.2,2.8l-1.9-9.9l12.3-4.8h8.7v62.4h-11.8L1705.2,293.1L1705.2,293.1z"/>
			<path class="st15" d="M1723.7,313.1v-0.3c0-18.2,7.9-31.8,22.7-31.8c14.9,0,22.7,13.6,22.7,31.8v0.3c0,18.3-7.8,31.7-22.7,31.7
				C1731.6,344.8,1723.7,331.5,1723.7,313.1z M1756.3,313.2V313c0-12.3-3.2-21.2-9.9-21.2c-6.5,0-9.6,8.8-9.6,21v0.3
				c0,12.3,3.2,21.1,9.8,21.1C1753.2,334.1,1756.3,325.4,1756.3,313.2z"/>
		</g>
	</g>
</g>
<g id="9_heart">
	<g>
		<g>

				<radialGradient id="SVGID_31_" cx="1592.0959" cy="770.4542" r="267.6952" gradientTransform="matrix(1.0183 0 0 -1.0191 -24.8078 1045.5405)" gradientUnits="userSpaceOnUse">
				<stop  offset="1.544750e-04" style="stop-color:#FAF9F4"/>
				<stop  offset="0.67" style="stop-color:#F7F3EA"/>
				<stop  offset="1" style="stop-color:#E8E1D7"/>
			</radialGradient>
			<path class="st32" d="M1677,520h-158c-8.3,0-15-6.8-15-15V275c0-8.3,6.8-15,15-15h158c8.3,0,15,6.8,15,15v230
				C1692,513.3,1685.3,520,1677,520z"/>
			<path class="st15" d="M1675.8,434.5c0,26.5-47.3,42.5-47.3,65.3c0-22.8-47.3-38.8-47.3-65.3c0-12.8,11.1-26.2,26.7-26.2
				c15.3,0,20.6,13.8,20.6,13.8s5.4-13.8,20.6-13.8C1664.4,408.3,1675.8,421.7,1675.8,434.5z"/>
			<g>
				<path class="st15" d="M1560.4,374.9c0,13.3-23.7,21.2-23.7,32.6c0-11.4-23.7-19.4-23.7-32.6c0-6.4,5.5-13.1,13.3-13.1
					c7.6,0,10.3,6.9,10.3,6.9s2.7-6.9,10.3-6.9C1554.7,361.8,1560.4,368.5,1560.4,374.9z"/>
			</g>
		</g>
		<g>
			<path class="st15" d="M1556,302.1c0,3.6-0.7,6.9-1.9,9.8h0.1l-15,31.7h-12.4l9.8-20c-10.1-0.5-17.7-9.4-17.7-21.4V302
				c0-12.6,8.1-21.7,18.5-21.7c10.6,0,18.6,9,18.6,21.6V302.1z M1537.5,313.1c4.3,0,7.8-4.6,7.8-10.9V302c0-6.5-3.6-11.1-7.9-11.1
				c-4.4,0-7.9,4.5-7.9,11.1v0.2C1529.5,308.5,1533.2,313.1,1537.5,313.1z"/>
		</g>
	</g>
</g>
<g id="8_heart">
	<g>
		<g>

				<radialGradient id="SVGID_32_" cx="1406.4264" cy="770.4542" r="267.6952" gradientTransform="matrix(1.0183 0 0 -1.0191 -23.7455 1045.5405)" gradientUnits="userSpaceOnUse">
				<stop  offset="1.544750e-04" style="stop-color:#FAF9F4"/>
				<stop  offset="0.67" style="stop-color:#F7F3EA"/>
				<stop  offset="1" style="stop-color:#E8E1D7"/>
			</radialGradient>
			<path class="st33" d="M1489,520h-158c-8.3,0-15-6.8-15-15V275c0-8.3,6.8-15,15-15h158c8.3,0,15,6.8,15,15v230
				C1504,513.3,1497.3,520,1489,520z"/>
			<path class="st15" d="M1486.7,434.5c0,26.5-47.3,42.5-47.3,65.3c0-22.8-47.3-38.8-47.3-65.3c0-12.8,11.1-26.2,26.7-26.2
				c15.3,0,20.6,13.8,20.6,13.8s5.4-13.8,20.6-13.8C1475.3,408.3,1486.7,421.7,1486.7,434.5z"/>
			<g>
				<path class="st15" d="M1371.1,374.9c0,13.3-23.7,21.2-23.7,32.6c0-11.4-23.7-19.4-23.7-32.6c0-6.4,5.5-13.1,13.3-13.1
					c7.6,0,10.3,6.9,10.3,6.9s2.7-6.9,10.3-6.9C1365.4,361.8,1371.1,368.5,1371.1,374.9z"/>
			</g>
		</g>
		<g>
			<path class="st15" d="M1329,326.4c0-6.5,3.8-12,9.1-14.9c-4.5-2.9-7.9-7.9-7.9-13.8c0-10.7,7.4-18,18.2-18s18.2,7.3,18.2,18.3
				c0,5.7-3.2,10.7-7.8,13.5c5.4,2.8,9,8.3,9,14.8c0,11-7,18.9-19.2,18.9C1336,345.2,1329,337.4,1329,326.4z M1356.4,325.7
				c0-5.5-3.4-9.5-8-9.5s-8,3.9-8,9.5s3,9.5,8,9.5S1356.4,331.4,1356.4,325.7z M1354.6,298c0-4.5-2.3-7.8-6-7.8s-6.1,3.3-6.1,7.7
				c0,5,2.8,8,6.1,8S1354.6,302.9,1354.6,298z"/>
		</g>
	</g>
</g>
<g id="7_heart">
	<g>
		<g>

				<radialGradient id="SVGID_33_" cx="1221.7571" cy="770.4542" r="267.6952" gradientTransform="matrix(1.0183 0 0 -1.0191 -23.7017 1045.5405)" gradientUnits="userSpaceOnUse">
				<stop  offset="1.544750e-04" style="stop-color:#FAF9F4"/>
				<stop  offset="0.67" style="stop-color:#F7F3EA"/>
				<stop  offset="1" style="stop-color:#E8E1D7"/>
			</radialGradient>
			<path class="st34" d="M1301,520h-158c-8.3,0-15-6.8-15-15V275c0-8.3,6.8-15,15-15h158c8.3,0,15,6.8,15,15v230
				C1316,513.3,1309.3,520,1301,520z"/>
			<path class="st15" d="M1298.6,434.5c0,26.5-47.3,42.5-47.3,65.3c0-22.8-47.3-38.8-47.3-65.3c0-12.8,11.1-26.2,26.7-26.2
				c15.3,0,20.6,13.8,20.6,13.8s5.4-13.8,20.6-13.8C1287.2,408.3,1298.6,421.7,1298.6,434.5z"/>
			<g>
				<path class="st15" d="M1183.4,374.9c0,13.3-23.7,21.2-23.7,32.6c0-11.4-23.7-19.4-23.7-32.6c0-6.4,5.5-13.1,13.3-13.1
					c7.6,0,10.3,6.9,10.3,6.9s2.7-6.9,10.3-6.9C1177.7,361.8,1183.4,368.5,1183.4,374.9z"/>
			</g>
		</g>
		<g>
			<path class="st15" d="M1165,292.9h-22.1v-11.3h36.6v7.1l-19,55H1147L1165,292.9z"/>
		</g>
	</g>
</g>
<g id="6_heart">
	<g>
		<g>

				<radialGradient id="SVGID_34_" cx="1038.0878" cy="770.4542" r="267.6952" gradientTransform="matrix(1.0183 0 0 -1.0191 -24.6764 1045.5405)" gradientUnits="userSpaceOnUse">
				<stop  offset="1.544750e-04" style="stop-color:#FAF9F4"/>
				<stop  offset="0.67" style="stop-color:#F7F3EA"/>
				<stop  offset="1" style="stop-color:#E8E1D7"/>
			</radialGradient>
			<path class="st35" d="M1113,520H955c-8.3,0-15-6.8-15-15V275c0-8.3,6.8-15,15-15h158c8.3,0,15,6.8,15,15v230
				C1128,513.3,1121.3,520,1113,520z"/>
			<path class="st15" d="M1111.4,434.5c0,26.5-47.3,42.5-47.3,65.3c0-22.8-47.3-38.8-47.3-65.3c0-12.8,11.1-26.2,26.7-26.2
				c15.3,0,20.6,13.8,20.6,13.8s5.4-13.8,20.6-13.8C1100,408.3,1111.4,421.7,1111.4,434.5z"/>
			<g>
				<path class="st15" d="M996.3,374.9c0,13.3-23.7,21.2-23.7,32.6c0-11.4-23.7-19.4-23.7-32.6c0-6.4,5.5-13.1,13.3-13.1
					c7.6,0,10.3,6.9,10.3,6.9s2.7-6.9,10.3-6.9C990.6,361.8,996.3,368.5,996.3,374.9z"/>
			</g>
		</g>
		<g>
			<path class="st15" d="M992.6,322.9v0.2c0,12.5-8,21.7-18.5,21.7s-18.5-9.1-18.5-21.6V323c0-3.6,0.7-6.9,1.8-9.8h-0.1l15.1-31.7
				h12.4l-9.8,20C985.1,302.1,992.6,310.9,992.6,322.9z M982,323c0-6.3-3.7-11-8-11s-7.8,4.7-7.8,11v0.2c0,6.4,3.7,11.1,8,11.1
				s7.8-4.6,7.8-11.1V323z"/>
		</g>
	</g>
</g>
<g id="5_heart">
	<g>
		<g>

				<radialGradient id="SVGID_35_" cx="852.4183" cy="770.4542" r="267.6952" gradientTransform="matrix(1.0183 0 0 -1.0191 -23.6141 1045.5405)" gradientUnits="userSpaceOnUse">
				<stop  offset="1.544750e-04" style="stop-color:#FAF9F4"/>
				<stop  offset="0.67" style="stop-color:#F7F3EA"/>
				<stop  offset="1" style="stop-color:#E8E1D7"/>
			</radialGradient>
			<path class="st36" d="M925,520H767c-8.3,0-15-6.8-15-15V275c0-8.3,6.8-15,15-15h158c8.3,0,15,6.8,15,15v230
				C940,513.3,933.3,520,925,520z"/>
			<path class="st15" d="M921.9,434.5c0,26.5-47.3,42.5-47.3,65.3c0-22.8-47.3-38.8-47.3-65.3c0-12.8,11.1-26.2,26.7-26.2
				c15.3,0,20.6,13.8,20.6,13.8s5.4-13.8,20.6-13.8C910.5,408.3,921.9,421.7,921.9,434.5z"/>
			<g>
				<path class="st15" d="M807,374.9c0,13.3-23.7,21.2-23.7,32.6c0-11.4-23.7-19.4-23.7-32.6c0-6.4,5.5-13.1,13.3-13.1
					c7.6,0,10.3,6.9,10.3,6.9s2.7-6.9,10.3-6.9C801.3,361.8,807,368.5,807,374.9z"/>
			</g>
		</g>
		<g>
			<path class="st15" d="M766.4,334.5l8.2-7.6c2,3.5,5.2,6.2,9,6.2c4.8,0,8.3-4.2,8.3-11.1v-0.2c0-6.1-3.2-10.8-7.6-10.8
				c-2.4,0-4.8,1.3-7.4,4.4l-8.3-2.7l2.6-31.1H799v11.3h-17.9l-0.8,10.4c1.8-1.3,4.4-2.2,7.4-2.2c9.4,0,15.8,8.2,15.8,20.7v0.1
				c0,13.6-7.8,22.7-19.5,22.7C776.6,344.6,769.8,340.5,766.4,334.5z"/>
		</g>
	</g>
</g>
<g id="4_heart">
	<g>
		<g>

				<radialGradient id="SVGID_36_" cx="668.7493" cy="770.4542" r="267.6952" gradientTransform="matrix(1.0183 0 0 -1.0191 -24.5887 1045.5405)" gradientUnits="userSpaceOnUse">
				<stop  offset="1.544750e-04" style="stop-color:#FAF9F4"/>
				<stop  offset="0.67" style="stop-color:#F7F3EA"/>
				<stop  offset="1" style="stop-color:#E8E1D7"/>
			</radialGradient>
			<path class="st37" d="M737,520H579c-8.3,0-15-6.8-15-15V275c0-8.3,6.8-15,15-15h158c8.3,0,15,6.8,15,15v230
				C752,513.3,745.3,520,737,520z"/>
			<path class="st15" d="M734.7,434.5c0,26.5-47.3,42.5-47.3,65.3c0-22.8-47.3-38.8-47.3-65.3c0-12.8,11.1-26.2,26.7-26.2
				c15.3,0,20.6,13.8,20.6,13.8s5.4-13.8,20.6-13.8C723.3,408.3,734.7,421.7,734.7,434.5z"/>
			<g>
				<path class="st15" d="M619.9,374.9c0,13.3-23.7,21.2-23.7,32.6c0-11.4-23.7-19.4-23.7-32.6c0-6.4,5.5-13.1,13.3-13.1
					c7.6,0,10.3,6.9,10.3,6.9s2.7-6.9,10.3-6.9C614.2,361.8,619.9,368.5,619.9,374.9z"/>
			</g>
		</g>
		<g>
			<path class="st15" d="M599.3,331.6h-22.7V321l23.7-39.6h10.9v38.8h5.7v11.4h-5.7v12.1h-11.9V331.6z M599.3,320.2v-20.9L588,320.2
				H599.3z"/>
		</g>
	</g>
</g>
<g id="3_heart">
	<g>
		<g>

				<radialGradient id="SVGID_37_" cx="484.0798" cy="770.4542" r="267.6952" gradientTransform="matrix(1.0183 0 0 -1.0191 -24.5449 1045.5405)" gradientUnits="userSpaceOnUse">
				<stop  offset="1.544750e-04" style="stop-color:#FAF9F4"/>
				<stop  offset="0.67" style="stop-color:#F7F3EA"/>
				<stop  offset="1" style="stop-color:#E8E1D7"/>
			</radialGradient>
			<path class="st38" d="M549,520H391c-8.3,0-15-6.8-15-15V275c0-8.3,6.8-15,15-15h158c8.3,0,15,6.8,15,15v230
				C564,513.3,557.3,520,549,520z"/>
			<path class="st15" d="M546.9,434.5c0,26.5-47.3,42.5-47.3,65.3c0-22.8-47.3-38.8-47.3-65.3c0-12.8,11.1-26.2,26.7-26.2
				c15.3,0,20.6,13.8,20.6,13.8s5.4-13.8,20.6-13.8C535.5,408.3,546.9,421.7,546.9,434.5z"/>
			<g>
				<path class="st15" d="M432.2,374.9c0,13.3-23.7,21.2-23.7,32.6c0-11.4-23.7-19.4-23.7-32.6c0-6.4,5.5-13.1,13.3-13.1
					c7.6,0,10.3,6.9,10.3,6.9s2.7-6.9,10.3-6.9S432.2,368.5,432.2,374.9z"/>
			</g>
		</g>
		<g>
			<path class="st15" d="M391.8,333.8l8.2-7.3c2.5,3.6,5.9,6.3,9.8,6.3c5.4,0,8.5-5,8.5-10.2v-0.7c0-6.1-3.4-11.3-10.6-10.2l-3.9,1
				l-3.4-6l11.3-13.8H395v-11.3h31.3v8l-10.9,13.9c8.5,1.3,14.3,8.8,14.3,19.4v0.3c0,12.4-8.4,21.1-20,21.1
				C401.6,344.2,394.9,339.6,391.8,333.8z"/>
		</g>
	</g>
</g>
<g id="2_heart">
	<g>
		<g>

				<radialGradient id="SVGID_38_" cx="298.4103" cy="770.4542" r="267.6952" gradientTransform="matrix(1.0183 0 0 -1.0191 -23.4826 1045.5405)" gradientUnits="userSpaceOnUse">
				<stop  offset="1.544750e-04" style="stop-color:#FAF9F4"/>
				<stop  offset="0.67" style="stop-color:#F7F3EA"/>
				<stop  offset="1" style="stop-color:#E8E1D7"/>
			</radialGradient>
			<path class="st39" d="M361,520H203c-8.3,0-15-6.8-15-15V275c0-8.3,6.8-15,15-15h158c8.3,0,15,6.8,15,15v230
				C376,513.3,369.3,520,361,520z"/>
			<path class="st15" d="M357.5,434.5c0,26.5-47.3,42.5-47.3,65.3c0-22.8-47.3-38.8-47.3-65.3c0-12.8,11.1-26.2,26.7-26.2
				c15.3,0,20.6,13.8,20.6,13.8s5.4-13.8,20.6-13.8C346.1,408.3,357.5,421.7,357.5,434.5z"/>
			<g>
				<path class="st15" d="M209.9,344"/>
				<path class="st15" d="M242.9,374.9c0,13.3-23.7,21.2-23.7,32.6c0-11.4-23.7-19.4-23.7-32.6c0-6.4,5.5-13.1,13.3-13.1
					c7.6,0,10.3,6.9,10.3,6.9s2.7-6.9,10.3-6.9S242.9,368.5,242.9,374.9z"/>
			</g>
		</g>
		<g>
			<path class="st15" d="M205.9,335.7l19.3-25.6c3.5-4.8,4.3-7.8,4.3-11c0-4.1-2.5-7.2-6.6-7.2c-3.8,0-7.5,3.4-10.2,9.1l-7.7-6.8
				c3.9-8.5,10.1-13.8,18-13.8c11.7,0,18,7.6,18,18v0.2c0,5.1-1.9,10.7-8.2,19.4l-10.1,14.2h18.9v11.4h-35.7V335.7z"/>
		</g>
	</g>
</g>
<g id="1_heart">
	<g>
		<g>

				<radialGradient id="SVGID_39_" cx="115.1004" cy="770.4542" r="267.6952" gradientTransform="matrix(1.0183 0 0 -1.0191 -24.8232 1045.5405)" gradientUnits="userSpaceOnUse">
				<stop  offset="1.544750e-04" style="stop-color:#FAF9F4"/>
				<stop  offset="0.67" style="stop-color:#F7F3EA"/>
				<stop  offset="1" style="stop-color:#E8E1D7"/>
			</radialGradient>
			<path class="st40" d="M173,520H15c-8.3,0-15-6.8-15-15V275c0-8.3,6.8-15,15-15h158c8.3,0,15,6.8,15,15v230
				C188,513.3,181.3,520,173,520z"/>
			<path class="st15" d="M172.8,434.5c0,26.5-47.3,42.5-47.3,65.3c0-22.8-47.3-38.8-47.3-65.3c0-12.8,11.1-26.2,26.7-26.2
				c15.3,0,20.6,13.8,20.6,13.8s5.4-13.8,20.6-13.8C161.4,408.3,172.8,421.7,172.8,434.5z"/>
			<g>
				<path class="st15" d="M60.2,374.9c0,13.3-23.7,21.2-23.7,32.6c0-11.4-23.7-19.4-23.7-32.6c0-6.4,5.5-13.1,13.3-13.1
					c7.6,0,10.3,6.9,10.3,6.9s2.7-6.9,10.3-6.9S60.2,368.5,60.2,374.9z"/>
			</g>
		</g>
		<g>
			<path class="st15" d="M45,332.2H27.9l-2.8,11.4H11.8L29.6,282h13.7l17.8,61.7H47.8L45,332.2z M42.2,320.9l-5.8-23.5l-5.8,23.5
				H42.2z"/>
		</g>
	</g>
</g>
<g id="king_spade">
	<g>
		<g>

				<radialGradient id="SVGID_40_" cx="2329.7732" cy="1031.4199" r="267.6952" gradientTransform="matrix(1.0183 0 0 -1.0191 -23.9646 1051.4978)" gradientUnits="userSpaceOnUse">
				<stop  offset="1.544750e-04" style="stop-color:#FAF9F4"/>
				<stop  offset="0.67" style="stop-color:#F7F3EA"/>
				<stop  offset="1" style="stop-color:#E8E1D7"/>
			</radialGradient>
			<path class="st41" d="M2429,260h-158c-8.3,0-15-6.8-15-15V15c0-8.3,6.8-15,15-15h158c8.3,0,15,6.8,15,15v230
				C2444,253.3,2437.3,260,2429,260z"/>
			<g>
				<g>
					<path class="st1" d="M2428.1,197.8c0,12.4-11.7,26.5-27,26.5c-9.2,0-14.9-5.4-18-9.2c1.7,8.6,6.4,20.1,20.1,25.5H2357
						c13.8-5.4,18.5-17,20.3-25.5c-3.2,3.9-8.4,9.2-18.1,9.2c-15.3,0-27-14.1-27-26.5c0-26.3,48-42.3,48-65.1
						C2380.2,155.5,2428.1,171.4,2428.1,197.8z"/>
				</g>
			</g>
			<g>
				<path class="st1" d="M2315.3,126.9c0,6.2-5.9,13.3-13.5,13.3c-4.6,0-7.5-2.7-9-4.6c0.8,4.3,3.2,10.1,10.1,12.7h-23.1
					c6.9-2.7,9.2-8.5,10.1-12.7c-1.6,1.9-4.2,4.6-9.1,4.6c-7.6,0-13.5-7-13.5-13.3c0-13.2,24-21.1,24-32.5
					C2291.4,105.8,2315.3,113.7,2315.3,126.9z"/>
			</g>
		</g>
		<g>
			<path class="st1" d="M2291,59.1l-4.6,6.8V84h-12.7V22.4h12.7v22.7l15.1-22.7h14.6L2299.3,47l18.4,37h-14L2291,59.1z"/>
		</g>
	</g>
</g>
<g id="queen_spade">
	<g>
		<g>

				<radialGradient id="SVGID_41_" cx="2145.1038" cy="1031.4199" r="267.6952" gradientTransform="matrix(1.0183 0 0 -1.0191 -23.9208 1051.4978)" gradientUnits="userSpaceOnUse">
				<stop  offset="1.544750e-04" style="stop-color:#FAF9F4"/>
				<stop  offset="0.67" style="stop-color:#F7F3EA"/>
				<stop  offset="1" style="stop-color:#E8E1D7"/>
			</radialGradient>
			<path class="st42" d="M2241,260h-158c-8.3,0-15-6.8-15-15V15c0-8.3,6.8-15,15-15h158c8.3,0,15,6.8,15,15v230
				C2256,253.3,2249.3,260,2241,260z"/>
			<g>
				<g>
					<path class="st1" d="M2240.3,197.8c0,12.4-11.7,26.5-27,26.5c-9.2,0-14.9-5.4-18-9.2c1.7,8.6,6.4,20.1,20.1,25.5h-46.2
						c13.8-5.4,18.5-17,20.3-25.5c-3.2,3.9-8.4,9.2-18.1,9.2c-15.3,0-27-14.1-27-26.5c0-26.3,48-42.3,48-65.1
						C2192.5,155.5,2240.3,171.4,2240.3,197.8z"/>
				</g>
			</g>
			<g>
				<path class="st1" d="M2127.6,126.9c0,6.2-5.9,13.3-13.5,13.3c-4.6,0-7.5-2.7-9-4.6c0.8,4.3,3.2,10.1,10.1,12.7h-23.1
					c6.9-2.7,9.2-8.5,10.2-12.7c-1.6,1.9-4.2,4.6-9.1,4.6c-7.6,0-13.5-7-13.5-13.3c0-13.2,24-21.1,24-32.5
					C2103.7,105.8,2127.6,113.7,2127.6,126.9z"/>
			</g>
		</g>
		<g>
			<path class="st1" d="M2129.3,53.1c0,8.1-2.1,15.2-5.7,20.6l5.3,6.7l-7.9,6.4l-4.7-6c-3.7,2.4-8.1,3.8-12.8,3.8
				c-16,0-26.2-12.6-26.2-31.2v-0.1c0-18.8,10.5-32.1,25.8-32.1c15.6,0,26.2,12.9,26.2,31.7L2129.3,53.1L2129.3,53.1z M2115.1,62.7
				c0.8-2.8,1.3-6,1.3-9.6v-0.4c0-11.4-5.2-19.6-13.4-19.6c-7.4,0-12.4,8.1-12.4,19.6v0.4c0,11.7,5.2,19.5,12.7,19.5
				c2,0,3.9-0.5,5.5-1.4l-7.7-9.7l8-6.4L2115.1,62.7z"/>
		</g>
	</g>
</g>
<g id="jack_spade">
	<g>
		<g>

				<radialGradient id="SVGID_42_" cx="1961.4347" cy="1031.4199" r="267.6952" gradientTransform="matrix(1.0183 0 0 -1.0191 -24.8954 1051.4978)" gradientUnits="userSpaceOnUse">
				<stop  offset="1.544750e-04" style="stop-color:#FAF9F4"/>
				<stop  offset="0.67" style="stop-color:#F7F3EA"/>
				<stop  offset="1" style="stop-color:#E8E1D7"/>
			</radialGradient>
			<path class="st43" d="M2053,260h-158c-8.3,0-15-6.8-15-15V15c0-8.3,6.8-15,15-15h158c8.3,0,15,6.8,15,15v230
				C2068,253.3,2061.3,260,2053,260z"/>
			<g>
				<g>
					<path class="st1" d="M2053.1,197.8c0,12.4-11.7,26.5-27,26.5c-9.2,0-14.9-5.4-18-9.2c1.7,8.6,6.4,20.1,20.1,25.5H1982
						c13.8-5.4,18.5-17,20.3-25.5c-3.2,3.9-8.4,9.2-18.1,9.2c-15.3,0-27-14.1-27-26.5c0-26.3,48-42.3,48-65.1
						C2005.2,155.5,2053.1,171.4,2053.1,197.8z"/>
				</g>
			</g>
			<g>
				<path class="st1" d="M1937.2,126.9c0,6.2-5.9,13.3-13.5,13.3c-4.6,0-7.5-2.7-9-4.6c0.8,4.3,3.2,10.1,10.1,12.7h-23.1
					c6.9-2.7,9.2-8.5,10.2-12.7c-1.6,1.9-4.2,4.6-9.1,4.6c-7.6,0-13.5-7-13.5-13.3c0-13.2,24-21.1,24-32.5
					C1913.3,105.8,1937.2,113.7,1937.2,126.9z"/>
			</g>
		</g>
		<g>
			<path class="st1" d="M1900.3,80.3l5-10.5c2.3,2.5,4.9,3.7,6.7,3.7c4.4,0,6.5-3.4,6.5-10.2V22.4h12.7v40.9
				c0,14-6.6,22.2-18.5,22.2C1907.8,85.4,1902.3,82.9,1900.3,80.3z"/>
		</g>
	</g>
</g>
<g id="10_spade">
	<g>
		<g>

				<radialGradient id="SVGID_43_" cx="1775.7651" cy="1031.4199" r="267.6952" gradientTransform="matrix(1.0183 0 0 -1.0191 -23.8331 1051.4978)" gradientUnits="userSpaceOnUse">
				<stop  offset="1.544750e-04" style="stop-color:#FAF9F4"/>
				<stop  offset="0.67" style="stop-color:#F7F3EA"/>
				<stop  offset="1" style="stop-color:#E8E1D7"/>
			</radialGradient>
			<path class="st44" d="M1865,260h-158c-8.3,0-15-6.8-15-15V15c0-8.3,6.8-15,15-15h158c8.3,0,15,6.8,15,15v230
				C1880,253.3,1873.3,260,1865,260z"/>
			<g>
				<g>
					<path class="st1" d="M1867.1,197.8c0,12.4-11.7,26.5-27,26.5c-9.2,0-14.9-5.4-18-9.2c1.7,8.6,6.4,20.1,20.1,25.5H1796
						c13.8-5.4,18.5-17,20.3-25.5c-3.2,3.9-8.4,9.2-18.1,9.2c-15.3,0-27-14.1-27-26.5c0-26.3,48-42.3,48-65.1
						C1819.2,155.5,1867.1,171.4,1867.1,197.8z"/>
				</g>
			</g>
			<g>
				<path class="st1" d="M1755.9,126.9c0,6.2-5.9,13.3-13.5,13.3c-4.6,0-7.5-2.7-9-4.6c0.8,4.3,3.2,10.1,10.1,12.7h-23.1
					c6.9-2.7,9.2-8.5,10.2-12.7c-1.6,1.9-4.2,4.6-9.1,4.6c-7.6,0-13.5-7-13.5-13.3c0-13.2,24-21.1,24-32.5
					C1732,105.8,1755.9,113.7,1755.9,126.9z"/>
			</g>
		</g>
		<g>
			<path class="st1" d="M1705.2,33.5l-7.2,2.8l-1.9-9.9l12.3-4.8h8.7V84h-11.8L1705.2,33.5L1705.2,33.5z"/>
			<path class="st1" d="M1723.7,53.5v-0.3c0-18.2,7.9-31.8,22.7-31.8c14.9,0,22.7,13.6,22.7,31.8v0.3c0,18.3-7.8,31.7-22.7,31.7
				C1731.6,85.2,1723.7,71.9,1723.7,53.5z M1756.3,53.6v-0.2c0-12.3-3.2-21.2-9.9-21.2c-6.5,0-9.6,8.8-9.6,21v0.3
				c0,12.3,3.2,21.1,9.8,21.1C1753.2,74.5,1756.3,65.8,1756.3,53.6z"/>
		</g>
	</g>
</g>
<g id="9_spade">
	<g>
		<g>

				<radialGradient id="SVGID_44_" cx="1592.0959" cy="1031.4199" r="267.6952" gradientTransform="matrix(1.0183 0 0 -1.0191 -24.8078 1051.4978)" gradientUnits="userSpaceOnUse">
				<stop  offset="1.544750e-04" style="stop-color:#FAF9F4"/>
				<stop  offset="0.67" style="stop-color:#F7F3EA"/>
				<stop  offset="1" style="stop-color:#E8E1D7"/>
			</radialGradient>
			<path class="st45" d="M1677,260h-158c-8.3,0-15-6.8-15-15V15c0-8.3,6.8-15,15-15h158c8.3,0,15,6.8,15,15v230
				C1692,253.3,1685.3,260,1677,260z"/>
			<g>
				<g>
					<path class="st1" d="M1676.4,197.8c0,12.4-11.7,26.5-27,26.5c-9.2,0-14.9-5.4-18-9.2c1.7,8.6,6.4,20.1,20.1,25.5h-46.2
						c13.8-5.4,18.5-17,20.3-25.5c-3.2,3.9-8.4,9.2-18.1,9.2c-15.3,0-27-14.1-27-26.5c0-26.3,48-42.3,48-65.1
						C1628.5,155.5,1676.4,171.4,1676.4,197.8z"/>
				</g>
			</g>
			<g>
				<path class="st1" d="M1560.7,126.9c0,6.2-5.9,13.3-13.5,13.3c-4.6,0-7.5-2.7-9-4.6c0.8,4.3,3.2,10.1,10.1,12.7h-23.1
					c6.9-2.7,9.2-8.5,10.1-12.7c-1.6,1.9-4.2,4.6-9.1,4.6c-7.6,0-13.5-7-13.5-13.3c0-13.2,24-21.1,24-32.5
					C1536.8,105.8,1560.7,113.7,1560.7,126.9z"/>
			</g>
		</g>
		<g>
			<path class="st1" d="M1556,42.5c0,3.6-0.7,6.9-1.9,9.8h0.1l-15,31.7h-12.4l9.8-20c-10.1-0.5-17.7-9.4-17.7-21.4v-0.2
				c0-12.6,8.1-21.7,18.5-21.7c10.6,0,18.6,9,18.6,21.6V42.5z M1537.5,53.5c4.3,0,7.8-4.6,7.8-10.9v-0.2c0-6.5-3.6-11.1-7.9-11.1
				c-4.4,0-7.9,4.5-7.9,11.1v0.2C1529.5,48.9,1533.2,53.5,1537.5,53.5z"/>
		</g>
	</g>
</g>
<g id="8_spade">
	<g>
		<g>

				<radialGradient id="SVGID_45_" cx="1406.4264" cy="1031.4199" r="267.6952" gradientTransform="matrix(1.0183 0 0 -1.0191 -23.7455 1051.4978)" gradientUnits="userSpaceOnUse">
				<stop  offset="1.544750e-04" style="stop-color:#FAF9F4"/>
				<stop  offset="0.67" style="stop-color:#F7F3EA"/>
				<stop  offset="1" style="stop-color:#E8E1D7"/>
			</radialGradient>
			<path class="st46" d="M1489,260h-158c-8.3,0-15-6.8-15-15V15c0-8.3,6.8-15,15-15h158c8.3,0,15,6.8,15,15v230
				C1504,253.3,1497.3,260,1489,260z"/>
			<g>
				<g>
					<path class="st1" d="M1487.3,197.8c0,12.4-11.7,26.5-27,26.5c-9.2,0-14.9-5.4-18-9.2c1.7,8.6,6.4,20.1,20.1,25.5h-46.2
						c13.8-5.4,18.5-17,20.3-25.5c-3.2,3.9-8.4,9.2-18.1,9.2c-15.3,0-27-14.1-27-26.5c0-26.3,48-42.3,48-65.1
						C1439.4,155.5,1487.3,171.4,1487.3,197.8z"/>
				</g>
			</g>
			<g>
				<path class="st1" d="M1371.4,126.9c0,6.2-5.9,13.3-13.5,13.3c-4.6,0-7.5-2.7-9-4.6c0.8,4.3,3.2,10.1,10.1,12.7h-23.1
					c6.9-2.7,9.2-8.5,10.2-12.7c-1.6,1.9-4.2,4.6-9.1,4.6c-7.6,0-13.5-7-13.5-13.3c0-13.2,24-21.1,24-32.5
					C1347.5,105.8,1371.4,113.7,1371.4,126.9z"/>
			</g>
		</g>
		<g>
			<path class="st1" d="M1329,66.7c0-6.5,3.8-12,9.1-14.9c-4.5-2.9-7.9-7.9-7.9-13.8c0-10.7,7.4-18,18.2-18s18.2,7.3,18.2,18.3
				c0,5.7-3.2,10.7-7.8,13.5c5.4,2.8,9,8.3,9,14.8c0,11-7,18.9-19.2,18.9C1336,85.6,1329,77.7,1329,66.7z M1356.4,66.1
				c0-5.5-3.4-9.5-8-9.5s-8,3.9-8,9.5s3,9.5,8,9.5S1356.4,71.8,1356.4,66.1z M1354.6,38.4c0-4.5-2.3-7.8-6-7.8s-6.1,3.3-6.1,7.7
				c0,5,2.8,8,6.1,8S1354.6,43.2,1354.6,38.4z"/>
		</g>
	</g>
</g>
<g id="7_spade">
	<g>
		<g>

				<radialGradient id="SVGID_46_" cx="1221.7571" cy="1031.4199" r="267.6952" gradientTransform="matrix(1.0183 0 0 -1.0191 -23.7017 1051.4978)" gradientUnits="userSpaceOnUse">
				<stop  offset="1.544750e-04" style="stop-color:#FAF9F4"/>
				<stop  offset="0.67" style="stop-color:#F7F3EA"/>
				<stop  offset="1" style="stop-color:#E8E1D7"/>
			</radialGradient>
			<path class="st47" d="M1301,260h-158c-8.3,0-15-6.8-15-15V15c0-8.3,6.8-15,15-15h158c8.3,0,15,6.8,15,15v230
				C1316,253.3,1309.3,260,1301,260z"/>
			<g>
				<g>
					<path class="st1" d="M1299.2,197.8c0,12.4-11.7,26.5-27,26.5c-9.2,0-14.9-5.4-18-9.2c1.7,8.6,6.4,20.1,20.1,25.5h-46.2
						c13.8-5.4,18.5-17,20.3-25.5c-3.2,3.9-8.4,9.2-18.1,9.2c-15.3,0-27-14.1-27-26.5c0-26.3,48-42.3,48-65.1
						C1251.3,155.5,1299.2,171.4,1299.2,197.8z"/>
				</g>
			</g>
			<g>
				<path class="st1" d="M1183.7,126.9c0,6.2-5.9,13.3-13.5,13.3c-4.6,0-7.5-2.7-9-4.6c0.8,4.3,3.2,10.1,10.1,12.7h-23.1
					c6.9-2.7,9.2-8.5,10.2-12.7c-1.6,1.9-4.2,4.6-9.1,4.6c-7.6,0-13.5-7-13.5-13.3c0-13.2,24-21.1,24-32.5
					C1159.8,105.8,1183.7,113.7,1183.7,126.9z"/>
			</g>
		</g>
		<g>
			<path class="st1" d="M1165,33.3h-22.1V21.9h36.6V29l-19,55H1147L1165,33.3z"/>
		</g>
	</g>
</g>
<g id="6_spade">
	<g>
		<g>

				<radialGradient id="SVGID_47_" cx="1038.0878" cy="1031.4199" r="267.6952" gradientTransform="matrix(1.0183 0 0 -1.0191 -24.6764 1051.4978)" gradientUnits="userSpaceOnUse">
				<stop  offset="1.544750e-04" style="stop-color:#FAF9F4"/>
				<stop  offset="0.67" style="stop-color:#F7F3EA"/>
				<stop  offset="1" style="stop-color:#E8E1D7"/>
			</radialGradient>
			<path class="st48" d="M1113,260H955c-8.3,0-15-6.8-15-15V15c0-8.3,6.8-15,15-15h158c8.3,0,15,6.8,15,15v230
				C1128,253.3,1121.3,260,1113,260z"/>
			<g>
				<g>
					<path class="st1" d="M1112,197.8c0,12.4-11.7,26.5-27,26.5c-9.2,0-14.9-5.4-18-9.2c1.7,8.6,6.4,20.1,20.1,25.5H1041
						c13.8-5.4,18.5-17,20.3-25.5c-3.2,3.9-8.4,9.2-18.1,9.2c-15.3,0-27-14.1-27-26.5c0-26.3,48-42.3,48-65.1
						C1064.1,155.5,1112,171.4,1112,197.8z"/>
				</g>
			</g>
			<g>
				<path class="st1" d="M996.6,126.9c0,6.2-5.9,13.3-13.5,13.3c-4.6,0-7.5-2.7-9-4.6c0.8,4.3,3.2,10.1,10.1,12.7h-23.1
					c6.9-2.7,9.2-8.5,10.2-12.7c-1.6,1.9-4.2,4.6-9.1,4.6c-7.6,0-13.5-7-13.5-13.3c0-13.2,24-21.1,24-32.5
					C972.7,105.8,996.6,113.7,996.6,126.9z"/>
			</g>
		</g>
		<g>
			<path class="st1" d="M992.6,63.3v0.2c0,12.5-8,21.7-18.5,21.7s-18.5-9.1-18.5-21.6v-0.2c0-3.6,0.7-6.9,1.8-9.8h-0.1l15.1-31.7
				h12.4l-9.8,20C985.1,42.5,992.6,51.3,992.6,63.3z M982,63.4c0-6.3-3.7-11-8-11s-7.8,4.7-7.8,11v0.2c0,6.4,3.7,11.1,8,11.1
				S982,70,982,63.6V63.4z"/>
		</g>
	</g>
</g>
<g id="5_spade">
	<g>
		<g>

				<radialGradient id="SVGID_48_" cx="852.9133" cy="1030.9198" r="267.6952" gradientTransform="matrix(1.0183 0 0 -1.0191 -24.118 1050.9882)" gradientUnits="userSpaceOnUse">
				<stop  offset="1.544750e-04" style="stop-color:#FAF9F4"/>
				<stop  offset="0.67" style="stop-color:#F7F3EA"/>
				<stop  offset="1" style="stop-color:#E8E1D7"/>
			</radialGradient>
			<path class="st49" d="M925,260H767c-8.3,0-15-6.8-15-15V15c0-8.3,6.8-15,15-15h158c8.3,0,15,6.8,15,15v230
				C940,253.3,933.3,260,925,260z"/>
			<g>
				<g>
					<path class="st1" d="M922.5,197.8c0,12.4-11.7,26.5-27,26.5c-9.2,0-14.9-5.4-18-9.2c1.7,8.6,6.4,20.1,20.1,25.5h-46.2
						c13.8-5.4,18.5-17,20.3-25.5c-3.2,3.9-8.4,9.2-18.1,9.2c-15.3,0-27-14.1-27-26.5c0-26.3,48-42.3,48-65.1
						C874.7,155.5,922.5,171.4,922.5,197.8z"/>
				</g>
			</g>
			<g>
				<path class="st1" d="M807.3,126.9c0,6.2-5.9,13.3-13.5,13.3c-4.6,0-7.5-2.7-9-4.6c0.8,4.3,3.2,10.1,10.1,12.7h-23.1
					c6.9-2.7,9.2-8.5,10.2-12.7c-1.6,1.9-4.2,4.6-9.1,4.6c-7.6,0-13.5-7-13.5-13.3c0-13.2,24-21.1,24-32.5
					C783.4,105.8,807.3,113.7,807.3,126.9z"/>
			</g>
		</g>
		<g>
			<path class="st1" d="M766.4,74.9l8.2-7.6c2,3.5,5.2,6.2,9,6.2c4.8,0,8.3-4.2,8.3-11.1v-0.2c0-6.1-3.2-10.8-7.6-10.8
				c-2.4,0-4.8,1.3-7.4,4.4l-8.3-2.7l2.6-31.1H799v11.3h-17.9l-0.8,10.4c1.8-1.3,4.4-2.2,7.4-2.2c9.4,0,15.8,8.2,15.8,20.7v0.1
				c0,13.6-7.8,22.7-19.5,22.7C776.6,85,769.8,80.8,766.4,74.9z"/>
		</g>
	</g>
</g>
<g id="4_spade">
	<g>
		<g>

				<radialGradient id="SVGID_49_" cx="668.9089" cy="1030.9198" r="267.6952" gradientTransform="matrix(1.0183 0 0 -1.0191 -24.7514 1050.9882)" gradientUnits="userSpaceOnUse">
				<stop  offset="1.544750e-04" style="stop-color:#FAF9F4"/>
				<stop  offset="0.67" style="stop-color:#F7F3EA"/>
				<stop  offset="1" style="stop-color:#E8E1D7"/>
			</radialGradient>
			<path class="st50" d="M737,260H579c-8.3,0-15-6.8-15-15V15c0-8.3,6.8-15,15-15h158c8.3,0,15,6.8,15,15v230
				C752,253.3,745.3,260,737,260z"/>
			<g>
				<g>
					<path class="st1" d="M735.3,197.8c0,12.4-11.7,26.5-27,26.5c-9.2,0-14.9-5.4-18-9.2c1.7,8.6,6.4,20.1,20.1,25.5h-46.2
						c13.8-5.4,18.5-17,20.3-25.5c-3.2,3.9-8.4,9.2-18.1,9.2c-15.3,0-27-14.1-27-26.5c0-26.3,48-42.3,48-65.1
						C687.4,155.5,735.3,171.4,735.3,197.8z"/>
				</g>
			</g>
			<g>
				<path class="st1" d="M620.2,126.9c0,6.2-5.9,13.3-13.5,13.3c-4.6,0-7.5-2.7-9-4.6c0.8,4.3,3.2,10.1,10.1,12.7h-23.1
					c6.9-2.7,9.2-8.5,10.2-12.7c-1.6,1.9-4.2,4.6-9.1,4.6c-7.6,0-13.5-7-13.5-13.3c0-13.2,24-21.1,24-32.5
					C596.3,105.8,620.2,113.7,620.2,126.9z"/>
			</g>
		</g>
		<g>
			<path class="st1" d="M599.3,71.9h-22.7V61.4l23.7-39.6h10.9v38.8h5.7V72h-5.7v12h-11.9V71.9z M599.3,60.5V39.6L588,60.5H599.3z"
				/>
		</g>
	</g>
</g>
<g id="3_spade">
	<g>
		<g>

				<radialGradient id="SVGID_50_" cx="483.9044" cy="1030.9198" r="267.6952" gradientTransform="matrix(1.0183 0 0 -1.0191 -24.3663 1050.9882)" gradientUnits="userSpaceOnUse">
				<stop  offset="1.544750e-04" style="stop-color:#FAF9F4"/>
				<stop  offset="0.67" style="stop-color:#F7F3EA"/>
				<stop  offset="1" style="stop-color:#E8E1D7"/>
			</radialGradient>
			<path class="st51" d="M549,260H391c-8.3,0-15-6.8-15-15V15c0-8.3,6.8-15,15-15h158c8.3,0,15,6.8,15,15v230
				C564,253.3,557.3,260,549,260z"/>
			<g>
				<g>
					<path class="st1" d="M547.5,197.8c0,12.4-11.7,26.5-27,26.5c-9.2,0-14.9-5.4-18-9.2c1.7,8.6,6.4,20.1,20.1,25.5h-46.2
						c13.8-5.4,18.5-17,20.3-25.5c-3.2,3.9-8.4,9.2-18.1,9.2c-15.3,0-27-14.1-27-26.5c0-26.3,48-42.3,48-65.1
						C499.7,155.5,547.5,171.4,547.5,197.8z"/>
				</g>
			</g>
			<g>
				<path class="st1" d="M432.5,126.9c0,6.2-5.9,13.3-13.5,13.3c-4.6,0-7.5-2.7-9-4.6c0.8,4.3,3.2,10.1,10.1,12.7H397
					c6.9-2.7,9.2-8.5,10.1-12.7c-1.6,1.9-4.2,4.6-9.1,4.6c-7.6,0-13.5-7-13.5-13.3c0-13.2,24-21.1,24-32.5
					C408.6,105.8,432.5,113.7,432.5,126.9z"/>
			</g>
		</g>
		<g>
			<path class="st1" d="M391.8,74.1l8.2-7.3c2.5,3.6,5.9,6.3,9.8,6.3c5.4,0,8.5-5,8.5-10.2v-0.7c0-6.1-3.4-11.3-10.6-10.2l-3.9,1
				l-3.4-6l11.3-13.8H395V21.9h31.3v8l-10.9,13.9c8.5,1.3,14.3,8.8,14.3,19.4v0.3c0,12.4-8.4,21.1-20,21.1
				C401.6,84.5,394.9,80,391.8,74.1z"/>
		</g>
	</g>
</g>
<g id="2_spade">
	<g>
		<g>

				<radialGradient id="SVGID_51_" cx="298.8999" cy="1030.9198" r="267.6952" gradientTransform="matrix(1.0183 0 0 -1.0191 -23.9813 1050.9882)" gradientUnits="userSpaceOnUse">
				<stop  offset="1.544750e-04" style="stop-color:#FAF9F4"/>
				<stop  offset="0.67" style="stop-color:#F7F3EA"/>
				<stop  offset="1" style="stop-color:#E8E1D7"/>
			</radialGradient>
			<path class="st52" d="M361,260H203c-8.3,0-15-6.8-15-15V15c0-8.3,6.8-15,15-15h158c8.3,0,15,6.8,15,15v230
				C376,253.3,369.3,260,361,260z"/>
			<g>
				<g>
					<path class="st1" d="M358.1,197.8c0,12.4-11.7,26.5-27,26.5c-9.2,0-14.9-5.4-18-9.2c1.7,8.6,6.4,20.1,20.1,25.5H287
						c13.8-5.4,18.5-17,20.3-25.5c-3.2,3.9-8.4,9.2-18.1,9.2c-15.3,0-27-14.1-27-26.5c0-26.3,48-42.3,48-65.1
						C310.2,155.5,358.1,171.4,358.1,197.8z"/>
				</g>
			</g>
			<g>
				<path class="st1" d="M243.2,126.9c0,6.2-5.9,13.3-13.5,13.3c-4.6,0-7.5-2.7-9-4.6c0.8,4.3,3.2,10.1,10.1,12.7h-23.1
					c6.9-2.7,9.2-8.5,10.2-12.7c-1.6,1.9-4.2,4.6-9.1,4.6c-7.6,0-13.5-7-13.5-13.3c0-13.2,24-21.1,24-32.5
					C219.3,105.8,243.2,113.7,243.2,126.9z"/>
			</g>
		</g>
		<g>
			<path class="st1" d="M205.9,76.1l19.3-25.6c3.5-4.8,4.3-7.8,4.3-11c0-4.1-2.5-7.2-6.6-7.2c-3.8,0-7.5,3.4-10.2,9.1l-7.7-6.8
				c3.9-8.5,10.1-13.8,18-13.8c11.7,0,18,7.6,18,18V39c0,5.1-1.9,10.7-8.2,19.4l-10.1,14.2h18.9V84h-35.7V76.1z"/>
		</g>
	</g>
</g>
<g id="1_spade">
	<g>
		<g>

				<radialGradient id="SVGID_52_" cx="115.1004" cy="1037.8395" r="267.6952" gradientTransform="matrix(1.0183 0 0 -1.0191 -24.8232 1058.0402)" gradientUnits="userSpaceOnUse">
				<stop  offset="1.544750e-04" style="stop-color:#FAF9F4"/>
				<stop  offset="0.67" style="stop-color:#F7F3EA"/>
				<stop  offset="1" style="stop-color:#E8E1D7"/>
			</radialGradient>
			<path class="st53" d="M173,260H15c-8.3,0-15-6.8-15-15V15C0,6.8,6.8,0,15,0h158c8.3,0,15,6.8,15,15v230
				C188,253.3,181.3,260,173,260z"/>
			<g>
				<g>
					<path class="st1" d="M173.4,197.8c0,12.4-11.7,26.5-27,26.5c-9.2,0-14.9-5.4-18-9.2c1.7,8.6,6.4,20.1,20.1,25.5h-46.2
						c13.8-5.4,18.5-17,20.3-25.5c-3.2,3.9-8.4,9.2-18.1,9.2c-15.3,0-27-14.1-27-26.5c0-26.3,48-42.3,48-65.1
						C125.5,155.5,173.4,171.4,173.4,197.8z"/>
				</g>
			</g>
			<g>
				<path class="st1" d="M60.5,126.9c0,6.2-5.9,13.3-13.5,13.3c-4.6,0-7.5-2.7-9-4.6c0.8,4.3,3.2,10.1,10.1,12.7H25
					c6.9-2.7,9.2-8.5,10.1-12.7c-1.6,1.9-4.2,4.6-9.1,4.6c-7.6,0-13.5-7-13.5-13.3c0-13.2,24-21.1,24-32.5
					C36.6,105.8,60.5,113.7,60.5,126.9z"/>
			</g>
		</g>
		<g>
			<path class="st1" d="M45,72.6H27.9L25.1,84H11.8l17.8-61.7h13.7L61.1,84H47.8L45,72.6z M42.2,61.3l-5.8-23.5l-5.8,23.5H42.2z"/>
		</g>
	</g>
</g>
</svg>
