<?xml version="1.0" encoding="utf-8"?>
<!-- Generator: Adobe Illustrator 22.0.1, SVG Export Plug-In . SVG Version: 6.00 Build 0)  -->
<svg version="1.1" xmlns="http://www.w3.org/2000/svg" xmlns:xlink="http://www.w3.org/1999/xlink" x="0px" y="0px"
	 viewBox="0 0 2444 1040" style="enable-background:new 0 0 2444 1040;" xml:space="preserve">
<style type="text/css">
	.st0{fill:url(#SVGID_1_);}
	.st1{fill:#FFFFFF;}
	.st2{fill:url(#SVGID_2_);}
	.st3{fill:url(#SVGID_3_);}
	.st4{fill:url(#SVGID_4_);}
	.st5{fill:url(#SVGID_5_);}
	.st6{fill:url(#SVGID_6_);}
	.st7{fill:url(#SVGID_7_);}
	.st8{fill:url(#SVGID_8_);}
	.st9{fill:url(#SVGID_9_);}
	.st10{fill:url(#SVGID_10_);}
	.st11{fill:url(#SVGID_11_);}
	.st12{fill:url(#SVGID_12_);}
	.st13{fill:url(#SVGID_13_);}
	.st14{fill:url(#SVGID_14_);}
	.st15{fill:url(#SVGID_15_);}
	.st16{fill:url(#SVGID_16_);}
	.st17{fill:url(#SVGID_17_);}
	.st18{fill:url(#SVGID_18_);}
	.st19{fill:url(#SVGID_19_);}
	.st20{fill:url(#SVGID_20_);}
	.st21{fill:url(#SVGID_21_);}
	.st22{fill:url(#SVGID_22_);}
	.st23{fill:url(#SVGID_23_);}
	.st24{fill:url(#SVGID_24_);}
	.st25{fill:url(#SVGID_25_);}
	.st26{fill:url(#SVGID_26_);}
	.st27{fill:url(#SVGID_27_);}
	.st28{fill:url(#SVGID_28_);}
	.st29{fill:url(#SVGID_29_);}
	.st30{fill:url(#SVGID_30_);}
	.st31{fill:url(#SVGID_31_);}
	.st32{fill:url(#SVGID_32_);}
	.st33{fill:url(#SVGID_33_);}
	.st34{fill:url(#SVGID_34_);}
	.st35{fill:url(#SVGID_35_);}
	.st36{fill:url(#SVGID_36_);}
	.st37{fill:url(#SVGID_37_);}
	.st38{fill:url(#SVGID_38_);}
	.st39{fill:url(#SVGID_39_);}
	.st40{fill:url(#SVGID_40_);}
	.st41{fill:url(#SVGID_41_);}
	.st42{fill:url(#SVGID_42_);}
	.st43{fill:url(#SVGID_43_);}
	.st44{fill:url(#SVGID_44_);}
	.st45{fill:url(#SVGID_45_);}
	.st46{fill:url(#SVGID_46_);}
	.st47{fill:url(#SVGID_47_);}
	.st48{fill:url(#SVGID_48_);}
	.st49{fill:url(#SVGID_49_);}
	.st50{fill:url(#SVGID_50_);}
	.st51{fill:url(#SVGID_51_);}
	.st52{fill:url(#SVGID_52_);}
	.st53{fill:url(#SVGID_53_);}
</style>
<g id="king_club">
	<g>
		<g>

				<radialGradient id="SVGID_1_" cx="2293.9646" cy="756.1564" r="267.6952" gradientTransform="matrix(1.0183 0 0 1.0191 12.8175 10.0774)" gradientUnits="userSpaceOnUse">
				<stop  offset="0" style="stop-color:#29CC29"/>
				<stop  offset="1" style="stop-color:#31A028"/>
			</radialGradient>
			<path class="st0" d="M2429.3,1040.3h-158c-8.3,0-15-6.8-15-15v-230c0-8.3,6.8-15,15-15h158c8.3,0,15,6.8,15,15v230
				C2444.3,1033.6,2437.6,1040.3,2429.3,1040.3z"/>
			<g>
				<g>
					<path class="st1" d="M2401.3,941.3c0,6.5-3.5,12.6-8.6,16.8c2.2-1.5,5.7-2,8.6-2c11.6,0,20.6,8.9,20.6,20.5
						c0,11.4-9.1,20.6-20.6,20.6c-8.4,0-14.9-4.7-18.1-11.4c0.8,8.6,4.7,23.5,20.3,29.9h-46.2c16.3-6.4,20.1-21.3,21-29.9
						c-3.5,6.7-10.2,11.4-18.1,11.4c-11.7,0-21.3-9.2-21.3-20.6c0-11.6,9.6-20.5,21.3-20.5c2.9,0,6.2,0.5,8.6,2
						c-5.2-4.2-8.6-10.2-8.6-16.8c0-11.6,9.1-21.5,20.3-21.5C2392.1,919.8,2401.3,929.7,2401.3,941.3z"/>
				</g>
			</g>
		</g>
	</g>
	<g>
		<path class="st1" d="M2291,838.7l-4.6,6.8v18.1h-12.7V802h12.7v22.7l15.1-22.7h14.6l-16.8,24.7l18.4,37h-14L2291,838.7z"/>
	</g>
	<g>
		<path class="st1" d="M2299.4,882.7c6.8,5.9,4.7,12.9,0.1,16.8c1.1-0.8,2.9-1,4.3-1c5.8,0,10.3,4.4,10.3,10.2
			c0,5.7-4.5,10.3-10.3,10.3c-4.2,0-7.5-2.3-9.1-5.7c0.4,4.3,2.4,11.7,10.2,14.9h-23.1c8.1-3.2,10.1-10.7,10.5-14.9
			c-1.8,3.4-5.1,5.7-9.1,5.7c-5.9,0-10.7-4.6-10.7-10.3c0-5.8,4.8-10.2,10.7-10.2c1.4,0,3.1,0.3,4.3,1c-2.6-2.1-4.3-5.1-4.3-8.4
			c0-6.4,5.6-11.8,12.1-10.5C2296.8,880.9,2298.2,881.7,2299.4,882.7z"/>
	</g>
</g>
</svg>
