<?xml version="1.0" encoding="UTF-8" standalone="no"?>
<svg xmlns:rdf="http://www.w3.org/1999/02/22-rdf-syntax-ns#" xmlns="http://www.w3.org/2000/svg" height="90.282" width="79.181" version="1.1" xmlns:cc="http://creativecommons.org/ns#" xmlns:dc="http://purl.org/dc/elements/1.1/" viewBox="-1.6629 -1.6629 15.979766 18.22875">
 <path d="m6.2822 2.2026 1.0162 3.1275h3.285l-2.6575 1.93 1.0138 3.1238-2.6575-1.9312-2.6588 1.9312 1.015-3.1238-2.6562-1.93h3.285zm3.9068-0.0055c-2.385-2.3825-3.9075-3.86-3.9075-3.86s-1.5225 1.4775-3.9038 3.86c-1.2588 1.2588-4.09 4.3788-4.09 7.4775 0 2.0688 1.6787 3.7425 3.745 3.7425 1.3575 0 2.5412-0.72 3.2012-1.8 0.0637-0.08 0.17125-0.1475 0.29375-0.1475 0.19125 0 0.36875 0.13875 0.34625 0.30625-0.14375 1.1138-0.77125 3.8638-3.2462 4.79h7.3088c-2.475-0.92625-3.1038-3.6762-3.2462-4.79-0.02-0.1675 0.155-0.30625 0.34625-0.30625 0.12125 0 0.22875 0.0675 0.29375 0.1475 0.65625 1.08 1.845 1.8 3.2 1.8 2.0675 0 3.745-1.6738 3.745-3.7425 0-3.0988-2.8275-6.2188-4.0862-7.4775" fill="#d70025"/>
</svg>
