<?xml version="1.0" encoding="UTF-8" standalone="no"?>
<svg
   xmlns:dc="http://purl.org/dc/elements/1.1/"
   xmlns:cc="http://creativecommons.org/ns#"
   xmlns:rdf="http://www.w3.org/1999/02/22-rdf-syntax-ns#"
   xmlns:svg="http://www.w3.org/2000/svg"
   xmlns="http://www.w3.org/2000/svg"
   xmlns:sodipodi="http://sodipodi.sourceforge.net/DTD/sodipodi-0.dtd"
   xmlns:inkscape="http://www.inkscape.org/namespaces/inkscape"
   version="1.1"
   id="svg2"
   xml:space="preserve"
   width="755.90668"
   height="715.58667"
   viewBox="0 0 755.90668 715.58667"
   sodipodi:docname="wina.eps"><metadata
     id="metadata8"><rdf:RDF><cc:Work
         rdf:about=""><dc:format>image/svg+xml</dc:format><dc:type
           rdf:resource="http://purl.org/dc/dcmitype/StillImage" /></cc:Work></rdf:RDF></metadata><defs
     id="defs6"><clipPath
       clipPathUnits="userSpaceOnUse"
       id="clipPath24"><path
         d="M 0,0 H 5669 V 5367 H 0 Z"
         id="path22" /></clipPath><clipPath
       clipPathUnits="userSpaceOnUse"
       id="clipPath30"><path
         d="M 0,2227.82 H 5669.29 V 3463.77 H 0 Z"
         id="path28" /></clipPath></defs><sodipodi:namedview
     pagecolor="#ffffff"
     bordercolor="#666666"
     borderopacity="1"
     objecttolerance="10"
     gridtolerance="10"
     guidetolerance="10"
     inkscape:pageopacity="0"
     inkscape:pageshadow="2"
     inkscape:window-width="640"
     inkscape:window-height="480"
     id="namedview4" /><g
     id="g10"
     inkscape:groupmode="layer"
     inkscape:label="ink_ext_XXXXXX"
     transform="matrix(1.3333333,0,0,-1.3333333,0,715.58667)"><g
       id="g12"
       transform="scale(0.1)"><path
         d="m 1816.21,1742.46 h 2128.35 v 615.7 H 1816.21 v -615.7"
         style="fill:#b32433;fill-opacity:1;fill-rule:nonzero;stroke:none"
         id="path14" /><path
         d="m 2468.49,4206.95 -30.3,-63.45 2.86,-328.71 v -524.8 h -48.59 v 989.56 c 0,18.87 4.57,33.16 13.72,42.31 l 24.58,30.3 c -17.15,92.61 -31.45,205.8 -42.3,340.14 L 2091.75,3311.14 c -2.86,2.85 -7.43,4.57 -13.71,4.57 h -423.62 l -329.85,1697.3 H 391.598 L 1478.92,0 h 821.5 l 104.61,541.941 v 762.049 l 7.44,156.06 7.43,146.36 c 1.14,-97.75 12.57,-366.44 34.87,-806.07 l 246.39,1262.83 h 417.9 L 3451.77,353.871 h 819.78 L 5358.87,5366.88 h -932.98 l -404.17,-2074.04 -16.57,-2.85 h -262.98 l -446.46,2076.89 h -762.05 l -57.74,-262.97 V 4288.7 c 0,-76.03 -2.29,-102.9 -7.43,-81.75"
         style="fill:#b32433;fill-opacity:1;fill-rule:evenodd;stroke:none"
         id="path16" /><g
         id="g18"><g
           id="g20"
           clip-path="url(#clipPath24)"><g
             id="g26"
             clip-path="url(#clipPath30)"><path
               d="m 5669.29,3430.62 h -277.26 l -16.58,4.57 -16.57,2.86 h -974.14 c -13.14,0 -24.01,3.43 -33.16,10.86 l -2259.83,2.86 c 0,8 -6.29,12 -19.43,12 H 930.113 c -12.008,0 -18.293,-2.85 -18.293,-8.57 -4.004,-11.43 -10.293,-17.15 -19.437,-17.15 H 881.52 c -13.145,0 -19.434,2.86 -19.434,9.15 l -4.574,10.86 -13.723,5.71 -467.633,-2.85 c -5.14,1.14 -9.144,-37.74 -12,-116.63 l -1.144,-124.05 78.316,-137.2 c 5.149,-2.86 18.297,26.87 39.449,89.18 l 28.582,-555.1 c -9.144,-138.91 -17.148,-208.66 -24.011,-208.66 l -117.766,550.53 -25.723,-21.15 -25.722,-25.73 c -48.594,-377.31 -75.469,-564.23 -81.75,-561.39 l -97.192,107.49 -45.1559,4.57 -44.0196,-6.3 C 9.71875,2325.57 -5.71875,2259.83 1.14453,2259.83 H 465.914 c 13.149,0 18.289,5.14 16.574,15.43 l 2.86,18.29 c 1.718,8.02 5.144,12.01 10.293,12.01 10.293,0 15.433,-4.57 15.433,-13.72 -1.715,-10.29 3.434,-15.43 16.578,-15.43 h 84.61 c 12.008,0 17.152,2.85 15.433,9.14 v 12 l 4.575,8.01 c 5.718,0 8.574,-5.14 8.574,-15.43 v -46.88 c 0,-9.71 6.289,-14.87 18.297,-14.87 l 4565.389,1.16 c 12,0 17.72,4.57 17.72,13.71 v 196.66 l -89.18,168.06 -5.71,-54.3 -34.87,-33.72 63.45,226.94 -49.74,83.47 -44.02,-49.73 -49.73,148.06 21.16,65.17 26.85,8.57 v 72.6 h 76.04 l 131.48,-294.4 61.75,-59.46 -14.87,172.64 42.31,-27.43 24.01,467.62 c 0,4.01 23.43,-11.43 69.74,-46.88 l 68.03,-53.16 130.34,196.66"
               style="fill:#b32433;fill-opacity:1;fill-rule:evenodd;stroke:none"
               id="path32" /></g></g></g><path
         d="m 1061.6,3343.15 h 128.62 l 105.77,-636.85 h 2.85 l 86.33,636.85 h 146.91 l -160.63,-998.72 h -131.49 l -113.19,659.72 h -1.72 L 1019.29,2344.43 H 887.809 L 715.16,3343.15 H 862.086 L 956.98,2706.3 h 3.43 l 101.19,636.85"
         style="fill:#ffffff;fill-opacity:1;fill-rule:evenodd;stroke:none"
         id="path34" /><path
         d="m 1651.56,2344.44 h 157.21 v 998.71 h -157.21 v -998.71"
         style="fill:#ffffff;fill-opacity:1;fill-rule:nonzero;stroke:none"
         id="path36" /><path
         d="m 2122.06,2968.13 v -623.7 h -140.64 v 998.72 h 143.49 l 190.94,-571.67 h 2.86 v 571.67 h 140.63 v -998.72 h -136.06 l -199.51,623.7 h -1.71"
         style="fill:#ffffff;fill-opacity:1;fill-rule:evenodd;stroke:none"
         id="path38" /><path
         d="m 2728.6,2565.68 -27.44,-221.25 h -150.92 l 166.36,998.72 h 194.94 l 166.36,-998.72 h -150.92 l -27.44,221.25 z m 22.86,149.77 h 125.21 l -61.75,428.19 h -1.71 l -61.75,-428.19"
         style="fill:#ffffff;fill-opacity:1;fill-rule:evenodd;stroke:none"
         id="path40" /><path
         d="m 3588.97,3343.15 h 205.81 v -998.72 h -136.06 v 780.91 h -2.87 l -140.62,-780.91 h -76.04 l -140.63,780.91 h -2.85 v -780.91 h -136.07 v 998.72 h 205.8 l 110.34,-584.25 h 2.86 l 110.33,584.25"
         style="fill:#ffffff;fill-opacity:1;fill-rule:evenodd;stroke:none"
         id="path42" /><path
         d="m 4056.6,2565.68 -27.44,-221.25 h -150.92 l 166.35,998.72 h 194.95 l 166.35,-998.72 h -150.91 l -27.45,221.25 z m 22.87,149.77 h 125.19 l -61.74,428.19 h -1.71 l -61.74,-428.19"
         style="fill:#ffffff;fill-opacity:1;fill-rule:evenodd;stroke:none"
         id="path44" /><path
         d="m 4700.87,2708.02 -108.61,-363.59 h -153.2 l 178.92,523.66 -166.35,475.06 h 154.35 l 94.89,-316.13 h 3.44 l 85.75,316.13 h 154.36 l -157.22,-475.06 175.51,-523.66 h -154.36 l -104.04,363.59 h -3.44"
         style="fill:#ffffff;fill-opacity:1;fill-rule:evenodd;stroke:none"
         id="path46" /><path
         d="m 2274.69,2199.23 c 17.15,-16.01 25.73,-42.31 25.73,-78.32 0,-36.01 -8.58,-62.32 -25.73,-78.89 -17.15,-16.01 -44.59,-24.02 -81.75,-24.02 h -25.72 v -142.34 h -60.6 v 346.43 h 86.32 c 37.16,0 64.6,-7.43 81.75,-22.86 z m -44.02,-36.01 c -6.86,6.86 -20.58,10.28 -40.59,10.28 h -22.86 v -106.89 h 22.86 l 40.59,10.28 c 7.43,8.01 10.86,22.86 10.86,44.02 0,20.01 -3.43,34.3 -10.86,42.31"
         style="fill:#ffffff;fill-opacity:1;fill-rule:evenodd;stroke:none"
         id="path48" /><path
         d="m 2645.14,2139.2 v -180.07 c 0,-26.3 -7.44,-47.46 -22.3,-63.46 -16.58,-17.15 -39.45,-25.72 -69.74,-25.72 -29.16,0 -52.03,8.57 -68.04,25.72 -15.43,16 -22.86,37.16 -22.86,63.46 v 180.07 c 0,25.73 7.43,46.3 22.86,61.74 16.01,18.3 38.88,27.44 68.04,27.44 30.29,0 53.16,-9.14 69.74,-27.44 14.86,-15.44 22.3,-36.01 22.3,-61.74 z m -124.06,-1.7 v -177.23 c 0,-25.15 10.87,-37.73 32.02,-37.73 21.15,0 32.01,12.58 32.01,37.73 v 177.23 c 0,25.14 -10.86,37.72 -32.01,37.72 -21.15,0 -32.02,-12.58 -32.02,-37.72"
         style="fill:#ffffff;fill-opacity:1;fill-rule:evenodd;stroke:none"
         id="path50" /><path
         d="m 2873.8,1998.58 v -122.92 h -58.88 v 346.43 h 58.88 v -128.63 h 1.72 l 61.74,128.63 h 60.6 l -65.17,-128.63 72.6,-217.8 h -60.6 l -48.02,160.63 h -1.71 l -21.16,-37.71"
         style="fill:#ffffff;fill-opacity:1;fill-rule:evenodd;stroke:none"
         id="path52" /><path
         d="m 3204.81,2028.3 v -101.19 h 106.32 v -51.45 h -166.36 v 346.43 h 160.08 v -51.44 h -100.04 v -89.19 h 77.17 v -53.16 h -77.17"
         style="fill:#ffffff;fill-opacity:1;fill-rule:evenodd;stroke:none"
         id="path54" /><path
         d="m 3632.98,2199.23 c 16.59,-16.01 24.59,-42.31 24.59,-78.32 0,-46.31 -13.72,-76.03 -41.16,-88.03 l 49.74,-157.22 h -60.02 l -42.88,144.07 -29.73,-1.73 v -142.34 h -60.6 v 346.43 h 84.6 c 34.31,0 59.47,-7.43 75.46,-22.86 z m -99.46,-25.73 v -106.89 h 21.15 l 33.16,10.28 c 6.86,8.01 10.28,22.86 10.28,44.02 0,20.01 -3.42,34.3 -10.28,42.31 -6.29,6.86 -17.15,10.28 -33.16,10.28 h -21.15"
         style="fill:#ffffff;fill-opacity:1;fill-rule:evenodd;stroke:none"
         id="path56" /></g></g></svg>
