<?xml version="1.0" encoding="UTF-8" standalone="no"?>
<!-- Created with Inkscape (http://www.inkscape.org/) -->

<svg
   width="188"
   height="260"
   viewBox="0 0 49.741666 68.791666"
   version="1.1"
   id="svg1"
   inkscape:version="1.3 (0e150ed6c4, 2023-07-21)"
   sodipodi:docname="2_s.svg"
   xmlns:inkscape="http://www.inkscape.org/namespaces/inkscape"
   xmlns:sodipodi="http://sodipodi.sourceforge.net/DTD/sodipodi-0.dtd"
   xmlns="http://www.w3.org/2000/svg"
   xmlns:svg="http://www.w3.org/2000/svg">
  <sodipodi:namedview
     id="namedview1"
     pagecolor="#ffffff"
     bordercolor="#000000"
     borderopacity="0.25"
     inkscape:showpageshadow="2"
     inkscape:pageopacity="0.0"
     inkscape:pagecheckerboard="0"
     inkscape:deskcolor="#d1d1d1"
     inkscape:document-units="mm"
     inkscape:zoom="3.2046027"
     inkscape:cx="93.61535"
     inkscape:cy="136.21033"
     inkscape:window-width="1928"
     inkscape:window-height="1266"
     inkscape:window-x="6613"
     inkscape:window-y="117"
     inkscape:window-maximized="0"
     inkscape:current-layer="layer1" />
  <defs
     id="defs1">
    <radialGradient
       id="SVGID_53_"
       cx="79.291901"
       cy="-31.159201"
       r="267.69519"
       gradientTransform="matrix(1.0183,0,0,1.0191,11.9589,32.4521)"
       gradientUnits="userSpaceOnUse">&#10;				<stop
   offset="0"
   style="stop-color:#4F4F4F"
   id="stop307" />
&#10;				<stop
   offset="1"
   style="stop-color:#000000"
   id="stop308" />
&#10;			</radialGradient>
    <radialGradient
       id="SVGID_52_"
       cx="263.09149"
       cy="-24.2395"
       r="267.69519"
       gradientTransform="matrix(1.0183,0,0,1.0191,12.8008,25.4001)"
       gradientUnits="userSpaceOnUse">&#10;				<stop
   offset="0"
   style="stop-color:#4F4F4F"
   id="stop300" />
&#10;				<stop
   offset="1"
   style="stop-color:#000000"
   id="stop301" />
&#10;			</radialGradient>
  </defs>
  <g
     inkscape:label="Calque 1"
     inkscape:groupmode="layer"
     id="layer1">
    <g
       id="2_s"
       transform="matrix(0.26458333,0,0,0.26458333,-49.669631,0.07245165)">&#10;	<g
   id="g305">&#10;		<g
   id="g304">&#10;			&#10;				<radialGradient
   id="radialGradient2"
   cx="263.09149"
   cy="-24.2395"
   r="267.69519"
   gradientTransform="matrix(1.0183,0,0,1.0191,12.8008,25.4001)"
   gradientUnits="userSpaceOnUse">&#10;				<stop
   offset="0"
   style="stop-color:#4F4F4F"
   id="stop1" />
&#10;				<stop
   offset="1"
   style="stop-color:#000000"
   id="stop2" />
&#10;			</radialGradient>
&#10;			<path
   class="st52"
   d="m 361.3,260.3 h -158 c -8.3,0 -15,-6.8 -15,-15 v -230 c 0,-8.3 6.8,-15 15,-15 h 158 c 8.3,0 15,6.8 15,15 v 230 c 0,8.3 -6.7,15 -15,15 z"
   id="path301"
   style="fill:url(#SVGID_52_)" />
&#10;			<g
   id="g303">&#10;				<g
   id="g302">&#10;					<path
   class="st1"
   d="m 358.4,198.1 c 0,12.4 -11.7,26.5 -27,26.5 -9.2,0 -14.9,-5.4 -18,-9.2 1.7,8.6 6.4,20.1 20.1,25.5 h -46.2 c 13.8,-5.4 18.5,-17 20.3,-25.5 -3.2,3.9 -8.4,9.2 -18.1,9.2 -15.3,0 -27,-14.1 -27,-26.5 0,-26.3 48,-42.3 48,-65.1 0.1,22.8 47.9,38.8 47.9,65.1 z"
   id="path302"
   style="fill:#ffffff" />
&#10;				</g>
&#10;			</g>
&#10;		</g>
&#10;	</g>
&#10;	<g
   id="g306">&#10;		<path
   class="st1"
   d="m 205.9,76.1 19.3,-25.6 c 3.5,-4.8 4.3,-7.8 4.3,-11 0,-4.1 -2.5,-7.2 -6.6,-7.2 -3.8,0 -7.5,3.4 -10.2,9.1 L 205,34.6 c 3.9,-8.5 10.1,-13.8 18,-13.8 11.7,0 18,7.6 18,18 V 39 c 0,5.1 -1.9,10.7 -8.2,19.4 l -10.1,14.2 h 18.9 V 84 h -35.7 z"
   id="path305"
   style="fill:#ffffff" />
&#10;	</g>
&#10;	<g
   id="g307">&#10;		<path
   class="st1"
   d="m 243.2,126.9 c 0,6.2 -5.9,13.3 -13.5,13.3 -4.6,0 -7.5,-2.7 -9,-4.6 0.8,4.3 3.2,10.1 10.1,12.7 h -23.1 c 6.9,-2.7 9.2,-8.5 10.2,-12.7 -1.6,1.9 -4.2,4.6 -9.1,4.6 -7.6,0 -13.5,-7 -13.5,-13.3 0,-13.2 24,-21.1 24,-32.5 0,11.4 23.9,19.3 23.9,32.5 z"
   id="path306"
   style="fill:#ffffff" />
&#10;	</g>
&#10;</g>
  </g>
</svg>
