<?xml version="1.0" encoding="utf-8"?>
<!-- Generator: Adobe Illustrator 22.1.0, SVG Export Plug-In . SVG Version: 6.00 Build 0)  -->
<svg version="1.1" id="Layer_1" xmlns="http://www.w3.org/2000/svg" xmlns:xlink="http://www.w3.org/1999/xlink" x="0px" y="0px"
	 viewBox="0 0 188 260" style="enable-background:new 0 0 188 260;" xml:space="preserve">
<style type="text/css">
	.st0{fill:url(#SVGID_1_);}
	.st1{fill:none;}
	.st2{opacity:0.3;fill:#C41616;enable-background:new    ;}
</style>
<g>

		<radialGradient id="SVGID_1_" cx="44.2897" cy="488.3667" r="267.6952" gradientTransform="matrix(1.0183 0 0 1.0188 47.2824 -497.1233)" gradientUnits="userSpaceOnUse">
		<stop  offset="1.544750e-04" style="stop-color:#FAF9F4"/>
		<stop  offset="0.67" style="stop-color:#F7F3EA"/>
		<stop  offset="1" style="stop-color:#E8E1D7"/>
	</radialGradient>
	<path class="st0" d="M173,260H15c-8.3,0-15-6.8-15-15V15C0,6.8,6.8,0,15,0h158c8.3,0,15,6.8,15,15v230C188,253.2,181.3,260,173,260
		z"/>
	<path class="st1" d="M170,12c0.2,0,0.3,0,0.5,0c3,0.2,5.3,2.6,5.3,5.3v224.1c0,2.9-2.7,5.4-5.8,5.4H17c-0.2,0-0.3,0-0.5,0
		c-3-0.2-5.3-2.6-5.3-5.3V17.4c0-1.4,0.6-2.8,1.7-3.8S15.4,12,17,12H170z"/>
	<path class="st2" d="M41.5,40.1c5.8,0,10.8-2.1,14.9-6.2c3.9-3.9,6-8.5,6.2-13.8c0-0.4,0.1-0.7,0.1-1.1v-0.6
		c-0.1-2.3-0.5-4.4-1.1-6.4H45.8c0.4,0.3,0.8,0.6,1.2,1c1.6,1.6,2.5,3.6,2.5,5.9c0,2.4-0.8,4.4-2.5,6.1c-1.6,1.6-3.8,2.5-6.1,2.5
		c-2.4,0-4.3-0.8-6-2.5c-1.6-1.6-2.5-3.7-2.5-6.1c0-2.3,0.8-4.3,2.5-5.9c0.4-0.4,0.8-0.7,1.2-1H21.5c-0.7,2.2-1.1,4.5-1.1,7
		c0,5.8,2,10.8,6.2,14.9C30.6,38.1,35.6,40.1,41.5,40.1z"/>
	<path class="st2" d="M26.5,63.5c-4.2-4.1-6.2-9.1-6.2-14.9c0-5.9,2.1-10.9,6.3-15c4.1-4.2,9.1-6.2,15-6.2c5.8,0,10.8,2,14.9,6.2
		c4,4,6,8.8,6.2,14.4v0.6c0,0.3-0.1,0.7-0.1,1.1c-0.2,5.3-2.2,10-6.2,13.8c-4.1,4.2-9.1,6.2-14.9,6.2C35.6,69.8,30.6,67.7,26.5,63.5
		z M46.9,54.6c1.6-1.6,2.5-3.7,2.5-6.1c0-2.3-0.8-4.3-2.5-5.9c-1.6-1.7-3.8-2.5-6.1-2.5c-2.4,0-4.3,0.8-6,2.5
		c-1.6,1.6-2.5,3.6-2.5,5.9c0,2.4,0.8,4.4,2.5,6.1c1.7,1.6,3.6,2.5,6,2.5C43.1,57.1,45.2,56.2,46.9,54.6z"/>
	<path class="st2" d="M26.5,93.2c-4.2-4.1-6.2-9.1-6.2-14.9c0-5.9,2.1-10.9,6.3-15c4.1-4.2,9.1-6.2,15-6.2c5.8,0,10.8,2,14.9,6.2
		c4,4,6,8.8,6.2,14.4v0.6c0,0.3-0.1,0.7-0.1,1.1c-0.2,5.3-2.2,10-6.2,13.8c-4.1,4.2-9.1,6.2-14.9,6.2C35.6,99.4,30.6,97.3,26.5,93.2
		z M46.9,84.2c1.6-1.6,2.5-3.7,2.5-6.1c0-2.3-0.8-4.3-2.5-5.9c-1.6-1.7-3.8-2.5-6.1-2.5c-2.4,0-4.3,0.8-6,2.5
		c-1.6,1.6-2.5,3.6-2.5,5.9c0,2.4,0.8,4.4,2.5,6.1c1.7,1.6,3.6,2.5,6,2.5C43.1,86.7,45.2,85.9,46.9,84.2z"/>
	<path class="st2" d="M26.5,122.8c-4.2-4.1-6.2-9.1-6.2-14.9c0-5.9,2.1-10.9,6.3-15c4.1-4.2,9.1-6.2,15-6.2c5.8,0,10.8,2,14.9,6.2
		c4,4,6,8.8,6.2,14.4v0.6c0,0.3-0.1,0.7-0.1,1.1c-0.2,5.3-2.2,10-6.2,13.8c-4.1,4.2-9.1,6.2-14.9,6.2C35.6,129,30.6,127,26.5,122.8z
		 M46.9,113.9c1.6-1.6,2.5-3.7,2.5-6.1c0-2.3-0.8-4.3-2.5-5.9c-1.6-1.7-3.8-2.5-6.1-2.5c-2.4,0-4.3,0.8-6,2.5
		c-1.6,1.6-2.5,3.6-2.5,5.9c0,2.4,0.8,4.4,2.5,6.1c1.7,1.6,3.6,2.5,6,2.5C43.1,116.3,45.2,115.5,46.9,113.9z"/>
	<path class="st2" d="M26.5,152.4c-4.2-4.1-6.2-9.1-6.2-14.9c0-5.9,2.1-10.9,6.3-15c4.1-4.2,9.1-6.2,15-6.2c5.8,0,10.8,2,14.9,6.2
		c4,4,6,8.8,6.2,14.4v0.6c0,0.3-0.1,0.7-0.1,1.1c-0.2,5.3-2.2,10-6.2,13.8c-4.1,4.2-9.1,6.2-14.9,6.2
		C35.6,158.7,30.6,156.6,26.5,152.4z M46.9,143.5c1.6-1.6,2.5-3.7,2.5-6.1c0-2.3-0.8-4.3-2.5-5.9c-1.6-1.7-3.8-2.5-6.1-2.5
		c-2.4,0-4.3,0.8-6,2.5c-1.6,1.6-2.5,3.6-2.5,5.9c0,2.4,0.8,4.4,2.5,6.1c1.7,1.6,3.6,2.5,6,2.5C43.1,146,45.2,145.1,46.9,143.5z"/>
	<path class="st2" d="M26.5,182.1c-4.2-4.1-6.2-9.1-6.2-14.9c0-5.9,2.1-10.9,6.3-15c4.1-4.2,9.1-6.2,15-6.2c5.8,0,10.8,2,14.9,6.2
		c4,4,6,8.8,6.2,14.4v0.6c0,0.3-0.1,0.7-0.1,1.1c-0.2,5.3-2.2,10-6.2,13.8c-4.1,4.2-9.1,6.2-14.9,6.2
		C35.6,188.3,30.6,186.3,26.5,182.1z M46.9,173.1c1.6-1.6,2.5-3.7,2.5-6.1c0-2.3-0.8-4.3-2.5-5.9c-1.6-1.7-3.8-2.5-6.1-2.5
		c-2.4,0-4.3,0.8-6,2.5c-1.6,1.6-2.5,3.6-2.5,5.9c0,2.4,0.8,4.4,2.5,6.1c1.7,1.6,3.6,2.5,6,2.5C43.1,175.6,45.2,174.8,46.9,173.1z"
		/>
	<path class="st2" d="M52.6,48.7c-4.2-4.1-6.2-9.1-6.2-14.9c0-5.9,2.1-10.9,6.3-15c4.1-4.2,9.1-6.2,15-6.2c5.8,0,10.8,2,14.9,6.2
		c4,4,6,8.8,6.2,14.4v0.6c0,0.3-0.1,0.7-0.1,1.1c-0.2,5.3-2.2,10-6.2,13.8c-4.1,4.2-9.1,6.2-14.9,6.2C61.7,54.9,56.7,52.9,52.6,48.7
		z M73.2,39.8c1.6-1.6,2.5-3.7,2.5-6.1c0-2.3-0.8-4.3-2.5-5.9c-1.6-1.7-3.8-2.5-6.1-2.5c-2.4,0-4.3,0.8-6,2.5
		c-1.6,1.6-2.5,3.6-2.5,5.9c0,2.4,0.8,4.4,2.5,6.1c1.7,1.6,3.6,2.5,6,2.5C69.5,42.2,71.6,41.4,73.2,39.8z"/>
	<path class="st2" d="M52.6,78.4c-4.2-4.1-6.2-9.1-6.2-14.9c0-5.9,2.1-10.9,6.3-15c4.1-4.2,9.1-6.2,15-6.2c5.8,0,10.8,2,14.9,6.2
		c4,4,6,8.8,6.2,14.4v0.6c0,0.3-0.1,0.7-0.1,1.1c-0.2,5.3-2.2,10-6.2,13.8c-4.1,4.2-9.1,6.2-14.9,6.2C61.7,84.6,56.7,82.5,52.6,78.4
		z M73.2,69.4c1.6-1.6,2.5-3.7,2.5-6.1c0-2.3-0.8-4.3-2.5-5.9c-1.6-1.7-3.8-2.5-6.1-2.5c-2.4,0-4.3,0.8-6,2.5
		c-1.6,1.6-2.5,3.6-2.5,5.9c0,2.4,0.8,4.4,2.5,6.1c1.7,1.6,3.6,2.5,6,2.5S71.6,71,73.2,69.4z"/>
	<path class="st2" d="M52.6,108c-4.2-4.1-6.2-9.1-6.2-14.9c0-5.9,2.1-10.9,6.3-15c4.1-4.2,9.1-6.2,15-6.2c5.8,0,10.8,2,14.9,6.2
		c4,4,6,8.8,6.2,14.4v0.6c0,0.3-0.1,0.7-0.1,1.1c-0.2,5.3-2.2,10-6.2,13.8c-4.1,4.2-9.1,6.2-14.9,6.2
		C61.7,114.2,56.7,112.2,52.6,108z M73.2,99c1.6-1.6,2.5-3.7,2.5-6.1c0-2.3-0.8-4.3-2.5-5.9c-1.6-1.7-3.8-2.5-6.1-2.5
		c-2.4,0-4.3,0.8-6,2.5c-1.6,1.6-2.5,3.6-2.5,5.9c0,2.4,0.8,4.4,2.5,6.1c1.7,1.6,3.6,2.5,6,2.5S71.6,100.7,73.2,99z"/>
	<path class="st2" d="M52.6,137.6c-4.2-4.1-6.2-9.1-6.2-14.9c0-5.9,2.1-10.9,6.3-15c4.1-4.2,9.1-6.2,15-6.2c5.8,0,10.8,2,14.9,6.2
		c4,4,6,8.8,6.2,14.4v0.6c0,0.3-0.1,0.7-0.1,1.1c-0.2,5.3-2.2,10-6.2,13.8c-4.1,4.2-9.1,6.2-14.9,6.2
		C61.7,143.8,56.7,141.8,52.6,137.6z M73.2,128.7c1.6-1.6,2.5-3.7,2.5-6.1c0-2.3-0.8-4.3-2.5-5.9c-1.6-1.7-3.8-2.5-6.1-2.5
		c-2.4,0-4.3,0.8-6,2.5c-1.6,1.6-2.5,3.6-2.5,5.9c0,2.4,0.8,4.4,2.5,6.1c1.7,1.6,3.6,2.5,6,2.5C69.5,131.1,71.6,130.3,73.2,128.7z"
		/>
	<path class="st2" d="M52.6,167.3c-4.2-4.1-6.2-9.1-6.2-14.9c0-5.9,2.1-10.9,6.3-15c4.1-4.2,9.1-6.2,15-6.2c5.8,0,10.8,2,14.9,6.2
		c4,4,6,8.8,6.2,14.4v0.6c0,0.3-0.1,0.7-0.1,1.1c-0.2,5.3-2.2,10-6.2,13.8c-4.1,4.2-9.1,6.2-14.9,6.2
		C61.7,173.5,56.7,171.4,52.6,167.3z M73.2,158.3c1.6-1.6,2.5-3.7,2.5-6.1c0-2.3-0.8-4.3-2.5-5.9c-1.6-1.7-3.8-2.5-6.1-2.5
		c-2.4,0-4.3,0.8-6,2.5c-1.6,1.6-2.5,3.6-2.5,5.9c0,2.4,0.8,4.4,2.5,6.1c1.7,1.6,3.6,2.5,6,2.5S71.6,160,73.2,158.3z"/>
	<path class="st2" d="M52.6,196.9c-4.2-4.1-6.2-9.1-6.2-14.9c0-5.9,2.1-10.9,6.3-15c4.1-4.2,9.1-6.2,15-6.2c5.8,0,10.8,2,14.9,6.2
		c4,4,6,8.8,6.2,14.4v0.6c0,0.3-0.1,0.7-0.1,1.1c-0.2,5.3-2.2,10-6.2,13.8c-4.1,4.2-9.1,6.2-14.9,6.2
		C61.7,203.1,56.7,201.1,52.6,196.9z M73.2,187.9c1.6-1.6,2.5-3.7,2.5-6.1c0-2.3-0.8-4.3-2.5-5.9c-1.6-1.7-3.8-2.5-6.1-2.5
		c-2.4,0-4.3,0.8-6,2.5c-1.6,1.6-2.5,3.6-2.5,5.9c0,2.4,0.8,4.4,2.5,6.1c1.7,1.6,3.6,2.5,6,2.5S71.6,189.6,73.2,187.9z"/>
	<path class="st2" d="M92.8,40.1c5.8,0,10.8-2.1,14.9-6.2c3.9-3.9,6-8.5,6.2-13.8c0-0.4,0.1-0.7,0.1-1.1v-0.6
		c-0.1-2.3-0.5-4.4-1.1-6.4H98c0.4,0.3,0.8,0.6,1.2,1c1.6,1.6,2.5,3.6,2.5,5.9c0,2.4-0.8,4.4-2.5,6.1c-1.6,1.6-3.8,2.5-6.1,2.5
		c-2.4,0-4.3-0.8-6-2.5c-1.6-1.6-2.5-3.7-2.5-6.1c0-2.3,0.8-4.3,2.5-5.9c0.4-0.4,0.8-0.7,1.2-1H72.7c-0.7,2.2-1.1,4.5-1.1,7
		c0,5.8,2,10.8,6.2,14.9C81.9,38.1,86.9,40.1,92.8,40.1z"/>
	<path class="st2" d="M77.8,63.5c-4.2-4.1-6.2-9.1-6.2-14.9c0-5.9,2.1-10.9,6.3-15c4.1-4.2,9.1-6.2,15-6.2c5.8,0,10.8,2,14.9,6.2
		c4,4,6,8.8,6.2,14.4v0.6c0,0.3-0.1,0.7-0.1,1.1c-0.2,5.3-2.2,10-6.2,13.8c-4.1,4.2-9.1,6.2-14.9,6.2C86.9,69.8,81.9,67.7,77.8,63.5
		z M99.2,54.6c1.6-1.6,2.5-3.7,2.5-6.1c0-2.3-0.8-4.3-2.5-5.9c-1.6-1.7-3.8-2.5-6.1-2.5c-2.4,0-4.3,0.8-6,2.5
		c-1.6,1.6-2.5,3.6-2.5,5.9c0,2.4,0.8,4.4,2.5,6.1c1.7,1.6,3.6,2.5,6,2.5C95.4,57.1,97.6,56.2,99.2,54.6z"/>
	<path class="st2" d="M77.8,93.2c-4.2-4.1-6.2-9.1-6.2-14.9c0-5.9,2.1-10.9,6.3-15c4.1-4.2,9.1-6.2,15-6.2c5.8,0,10.8,2,14.9,6.2
		c4,4,6,8.8,6.2,14.4v0.6c0,0.3-0.1,0.7-0.1,1.1c-0.2,5.3-2.2,10-6.2,13.8c-4.1,4.2-9.1,6.2-14.9,6.2C86.9,99.4,81.9,97.3,77.8,93.2
		z M99.2,84.2c1.6-1.6,2.5-3.7,2.5-6.1c0-2.3-0.8-4.3-2.5-5.9c-1.6-1.7-3.8-2.5-6.1-2.5c-2.4,0-4.3,0.8-6,2.5
		c-1.6,1.6-2.5,3.6-2.5,5.9c0,2.4,0.8,4.4,2.5,6.1c1.7,1.6,3.6,2.5,6,2.5C95.4,86.7,97.6,85.9,99.2,84.2z"/>
	<path class="st2" d="M77.8,122.8c-4.2-4.1-6.2-9.1-6.2-14.9c0-5.9,2.1-10.9,6.3-15c4.1-4.2,9.1-6.2,15-6.2c5.8,0,10.8,2,14.9,6.2
		c4,4,6,8.8,6.2,14.4v0.6c0,0.3-0.1,0.7-0.1,1.1c-0.2,5.3-2.2,10-6.2,13.8c-4.1,4.2-9.1,6.2-14.9,6.2C86.9,129,81.9,127,77.8,122.8z
		 M99.2,113.9c1.6-1.6,2.5-3.7,2.5-6.1c0-2.3-0.8-4.3-2.5-5.9c-1.6-1.7-3.8-2.5-6.1-2.5c-2.4,0-4.3,0.8-6,2.5
		c-1.6,1.6-2.5,3.6-2.5,5.9c0,2.4,0.8,4.4,2.5,6.1c1.7,1.6,3.6,2.5,6,2.5C95.4,116.3,97.6,115.5,99.2,113.9z"/>
	<path class="st2" d="M77.8,152.4c-4.2-4.1-6.2-9.1-6.2-14.9c0-5.9,2.1-10.9,6.3-15c4.1-4.2,9.1-6.2,15-6.2c5.8,0,10.8,2,14.9,6.2
		c4,4,6,8.8,6.2,14.4v0.6c0,0.3-0.1,0.7-0.1,1.1c-0.2,5.3-2.2,10-6.2,13.8c-4.1,4.2-9.1,6.2-14.9,6.2
		C86.9,158.7,81.9,156.6,77.8,152.4z M99.2,143.5c1.6-1.6,2.5-3.7,2.5-6.1c0-2.3-0.8-4.3-2.5-5.9c-1.6-1.7-3.8-2.5-6.1-2.5
		c-2.4,0-4.3,0.8-6,2.5c-1.6,1.6-2.5,3.6-2.5,5.9c0,2.4,0.8,4.4,2.5,6.1c1.7,1.6,3.6,2.5,6,2.5C95.4,146,97.6,145.1,99.2,143.5z"/>
	<path class="st2" d="M77.8,182.1c-4.2-4.1-6.2-9.1-6.2-14.9c0-5.9,2.1-10.9,6.3-15c4.1-4.2,9.1-6.2,15-6.2c5.8,0,10.8,2,14.9,6.2
		c4,4,6,8.8,6.2,14.4v0.6c0,0.3-0.1,0.7-0.1,1.1c-0.2,5.3-2.2,10-6.2,13.8c-4.1,4.2-9.1,6.2-14.9,6.2
		C86.9,188.3,81.9,186.3,77.8,182.1z M99.2,173.1c1.6-1.6,2.5-3.7,2.5-6.1c0-2.3-0.8-4.3-2.5-5.9c-1.6-1.7-3.8-2.5-6.1-2.5
		c-2.4,0-4.3,0.8-6,2.5c-1.6,1.6-2.5,3.6-2.5,5.9c0,2.4,0.8,4.4,2.5,6.1c1.7,1.6,3.6,2.5,6,2.5C95.4,175.6,97.6,174.8,99.2,173.1z"
		/>
	<path class="st2" d="M129.2,63.5c-4.2-4.1-6.2-9.1-6.2-14.9c0-5.9,2.1-10.9,6.3-15c4.1-4.2,9.1-6.2,15-6.2c5.8,0,10.8,2,14.9,6.2
		c4,4,6,8.8,6.2,14.4v0.6c0,0.3-0.1,0.7-0.1,1.1c-0.2,5.3-2.2,10-6.2,13.8c-4.1,4.2-9.1,6.2-14.9,6.2
		C138.3,69.8,133.3,67.7,129.2,63.5z M149.6,54.6c1.6-1.6,2.5-3.7,2.5-6.1c0-2.3-0.8-4.3-2.5-5.9c-1.6-1.7-3.8-2.5-6.1-2.5
		c-2.4,0-4.3,0.8-6,2.5c-1.6,1.6-2.5,3.6-2.5,5.9c0,2.4,0.8,4.4,2.5,6.1c1.7,1.6,3.6,2.5,6,2.5S148,56.2,149.6,54.6z"/>
	<path class="st2" d="M129.2,93.2c-4.2-4.1-6.2-9.1-6.2-14.9c0-5.9,2.1-10.9,6.3-15c4.1-4.2,9.1-6.2,15-6.2c5.8,0,10.8,2,14.9,6.2
		c4,4,6,8.8,6.2,14.4v0.6c0,0.3-0.1,0.7-0.1,1.1c-0.2,5.3-2.2,10-6.2,13.8c-4.1,4.2-9.1,6.2-14.9,6.2
		C138.3,99.4,133.3,97.3,129.2,93.2z M149.6,84.2c1.6-1.6,2.5-3.7,2.5-6.1c0-2.3-0.8-4.3-2.5-5.9c-1.6-1.7-3.8-2.5-6.1-2.5
		c-2.4,0-4.3,0.8-6,2.5c-1.6,1.6-2.5,3.6-2.5,5.9c0,2.4,0.8,4.4,2.5,6.1c1.7,1.6,3.6,2.5,6,2.5S148,85.9,149.6,84.2z"/>
	<path class="st2" d="M129.2,122.8c-4.2-4.1-6.2-9.1-6.2-14.9c0-5.9,2.1-10.9,6.3-15c4.1-4.2,9.1-6.2,15-6.2c5.8,0,10.8,2,14.9,6.2
		c4,4,6,8.8,6.2,14.4v0.6c0,0.3-0.1,0.7-0.1,1.1c-0.2,5.3-2.2,10-6.2,13.8c-4.1,4.2-9.1,6.2-14.9,6.2
		C138.3,129,133.3,127,129.2,122.8z M149.6,113.9c1.6-1.6,2.5-3.7,2.5-6.1c0-2.3-0.8-4.3-2.5-5.9c-1.6-1.7-3.8-2.5-6.1-2.5
		c-2.4,0-4.3,0.8-6,2.5c-1.6,1.6-2.5,3.6-2.5,5.9c0,2.4,0.8,4.4,2.5,6.1c1.7,1.6,3.6,2.5,6,2.5C145.9,116.3,148,115.5,149.6,113.9z"
		/>
	<path class="st2" d="M129.2,152.4c-4.2-4.1-6.2-9.1-6.2-14.9c0-5.9,2.1-10.9,6.3-15c4.1-4.2,9.1-6.2,15-6.2c5.8,0,10.8,2,14.9,6.2
		c4,4,6,8.8,6.2,14.4v0.6c0,0.3-0.1,0.7-0.1,1.1c-0.2,5.3-2.2,10-6.2,13.8c-4.1,4.2-9.1,6.2-14.9,6.2
		C138.3,158.7,133.3,156.6,129.2,152.4z M149.6,143.5c1.6-1.6,2.5-3.7,2.5-6.1c0-2.3-0.8-4.3-2.5-5.9c-1.6-1.7-3.8-2.5-6.1-2.5
		c-2.4,0-4.3,0.8-6,2.5c-1.6,1.6-2.5,3.6-2.5,5.9c0,2.4,0.8,4.4,2.5,6.1c1.7,1.6,3.6,2.5,6,2.5S148,145.1,149.6,143.5z"/>
	<path class="st2" d="M129.2,182.1c-4.2-4.1-6.2-9.1-6.2-14.9c0-5.9,2.1-10.9,6.3-15c4.1-4.2,9.1-6.2,15-6.2c5.8,0,10.8,2,14.9,6.2
		c4,4,6,8.8,6.2,14.4v0.6c0,0.3-0.1,0.7-0.1,1.1c-0.2,5.3-2.2,10-6.2,13.8c-4.1,4.2-9.1,6.2-14.9,6.2
		C138.3,188.3,133.3,186.3,129.2,182.1z M149.6,173.1c1.6-1.6,2.5-3.7,2.5-6.1c0-2.3-0.8-4.3-2.5-5.9c-1.6-1.7-3.8-2.5-6.1-2.5
		c-2.4,0-4.3,0.8-6,2.5c-1.6,1.6-2.5,3.6-2.5,5.9c0,2.4,0.8,4.4,2.5,6.1c1.7,1.6,3.6,2.5,6,2.5S148,174.8,149.6,173.1z"/>
	<path class="st2" d="M26.5,211.8c-4.2-4.1-6.2-9.1-6.2-14.9c0-5.9,2.1-10.9,6.3-15c4.1-4.2,9.1-6.2,15-6.2c5.8,0,10.8,2,14.9,6.2
		c4,4,6,8.8,6.2,14.4v0.6c0,0.3-0.1,0.7-0.1,1.1c-0.2,5.3-2.2,10-6.2,13.8c-4.1,4.2-9.1,6.2-14.9,6.2C35.6,218,30.6,216,26.5,211.8z
		 M48.5,202.9c1.6-1.6,2.5-3.7,2.5-6.1c0-2.3-0.8-4.3-2.5-5.9c-1.6-1.7-3.8-2.5-6.1-2.5c-2.4,0-4.3,0.8-6,2.5
		c-1.6,1.6-2.5,3.6-2.5,5.9c0,2.4,0.8,4.4,2.5,6.1c1.7,1.6,3.6,2.5,6,2.5C44.7,205.3,46.9,204.5,48.5,202.9z"/>
	<path class="st2" d="M52.6,226.6c-4.2-4.1-6.2-9.1-6.2-14.9c0-5.9,2.1-10.9,6.3-15c4.1-4.2,9.1-6.2,15-6.2c5.8,0,10.8,2,14.9,6.2
		c4,4,6,8.8,6.2,14.4v0.6c0,0.3-0.1,0.7-0.1,1.1c-0.2,5.3-2.2,10-6.2,13.8c-4.1,4.2-9.1,6.2-14.9,6.2
		C61.7,232.9,56.7,230.8,52.6,226.6z M72.8,217.7c1.6-1.6,2.5-3.7,2.5-6.1c0-2.3-0.8-4.3-2.5-5.9c-1.6-1.7-3.8-2.5-6.1-2.5
		c-2.4,0-4.3,0.8-6,2.5c-1.6,1.6-2.5,3.6-2.5,5.9c0,2.4,0.8,4.4,2.5,6.1c1.7,1.6,3.6,2.5,6,2.5C69,220.2,71.1,219.3,72.8,217.7z"/>
	<path class="st2" d="M77.8,211.8c-4.2-4.1-6.2-9.1-6.2-14.9c0-5.9,2.1-10.9,6.3-15c4.1-4.2,9.1-6.2,15-6.2c5.8,0,10.8,2,14.9,6.2
		c4,4,6,8.8,6.2,14.4v0.6c0,0.3-0.1,0.7-0.1,1.1c-0.2,5.3-2.2,10-6.2,13.8c-4.1,4.2-9.1,6.2-14.9,6.2C86.9,218,81.9,216,77.8,211.8z
		 M98.7,202.9c1.6-1.6,2.5-3.7,2.5-6.1c0-2.3-0.8-4.3-2.5-5.9c-1.6-1.7-3.8-2.5-6.1-2.5c-2.4,0-4.3,0.8-6,2.5
		c-1.6,1.6-2.5,3.6-2.5,5.9c0,2.4,0.8,4.4,2.5,6.1c1.7,1.6,3.6,2.5,6,2.5C95,205.3,97.1,204.5,98.7,202.9z"/>
	<path class="st2" d="M103.5,226.6c-4.2-4.1-6.2-9.1-6.2-14.9c0-5.9,2.1-10.9,6.3-15c4.1-4.2,9.1-6.2,15-6.2c5.8,0,10.8,2,14.9,6.2
		c4,4,6,8.8,6.2,14.4v0.6c0,0.3-0.1,0.7-0.1,1.1c-0.2,5.3-2.2,10-6.2,13.8c-4.1,4.2-9.1,6.2-14.9,6.2
		C112.5,232.9,107.5,230.8,103.5,226.6z M124.7,217.7c1.6-1.6,2.5-3.7,2.5-6.1c0-2.3-0.8-4.3-2.5-5.9c-1.6-1.7-3.8-2.5-6.1-2.5
		c-2.4,0-4.3,0.8-6,2.5c-1.6,1.6-2.5,3.6-2.5,5.9c0,2.4,0.8,4.4,2.5,6.1c1.7,1.6,3.6,2.5,6,2.5C120.9,220.2,123,219.3,124.7,217.7z"
		/>
	<path class="st2" d="M103.5,196.9c-4.2-4.1-6.2-9.1-6.2-14.9c0-5.9,2.1-10.9,6.3-15c4.1-4.2,9.1-6.2,15-6.2c5.8,0,10.8,2,14.9,6.2
		c4,4,6,8.8,6.2,14.4v0.6c0,0.3-0.1,0.7-0.1,1.1c-0.2,5.3-2.2,10-6.2,13.8c-4.1,4.2-9.1,6.2-14.9,6.2
		C112.5,203.1,107.5,201.1,103.5,196.9z M124.7,187.9c1.6-1.6,2.5-3.7,2.5-6.1c0-2.3-0.8-4.3-2.5-5.9c-1.6-1.7-3.8-2.5-6.1-2.5
		c-2.4,0-4.3,0.8-6,2.5c-1.6,1.6-2.5,3.6-2.5,5.9c0,2.4,0.8,4.4,2.5,6.1c1.7,1.6,3.6,2.5,6,2.5C120.9,190.4,123,189.6,124.7,187.9z"
		/>
	<path class="st2" d="M103.5,167.3c-4.2-4.1-6.2-9.1-6.2-14.9c0-5.9,2.1-10.9,6.3-15c4.1-4.2,9.1-6.2,15-6.2c5.8,0,10.8,2,14.9,6.2
		c4,4,6,8.8,6.2,14.4v0.6c0,0.3-0.1,0.7-0.1,1.1c-0.2,5.3-2.2,10-6.2,13.8c-4.1,4.2-9.1,6.2-14.9,6.2
		C112.5,173.5,107.5,171.4,103.5,167.3z M124.7,158.3c1.6-1.6,2.5-3.7,2.5-6.1c0-2.3-0.8-4.3-2.5-5.9c-1.6-1.7-3.8-2.5-6.1-2.5
		c-2.4,0-4.3,0.8-6,2.5c-1.6,1.6-2.5,3.6-2.5,5.9c0,2.4,0.8,4.4,2.5,6.1c1.7,1.6,3.6,2.5,6,2.5C120.9,160.8,123,160,124.7,158.3z"/>
	<path class="st2" d="M103,137.6c-4.2-4.1-6.2-9.1-6.2-14.9c0-5.9,2.1-10.9,6.3-15c4.1-4.2,9.1-6.2,15-6.2c5.8,0,10.8,2,14.9,6.2
		c4,4,6,8.8,6.2,14.4v0.6c0,0.3-0.1,0.7-0.1,1.1c-0.2,5.3-2.2,10-6.2,13.8c-4.1,4.2-9.1,6.2-14.9,6.2C112,143.8,107,141.8,103,137.6
		z M124.2,128.7c1.6-1.6,2.5-3.7,2.5-6.1c0-2.3-0.8-4.3-2.5-5.9c-1.6-1.7-3.8-2.5-6.1-2.5c-2.4,0-4.3,0.8-6,2.5
		c-1.6,1.6-2.5,3.6-2.5,5.9c0,2.4,0.8,4.4,2.5,6.1c1.7,1.6,3.6,2.5,6,2.5C120.4,131.1,122.5,130.3,124.2,128.7z"/>
	<path class="st2" d="M103.5,108c-4.2-4.1-6.2-9.1-6.2-14.9c0-5.9,2.1-10.9,6.3-15c4.1-4.2,9.1-6.2,15-6.2c5.8,0,10.8,2,14.9,6.2
		c4,4,6,8.8,6.2,14.4v0.6c0,0.3-0.1,0.7-0.1,1.1c-0.2,5.3-2.2,10-6.2,13.8c-4.1,4.2-9.1,6.2-14.9,6.2
		C112.5,114.2,107.5,112.2,103.5,108z M124.7,99c1.6-1.6,2.5-3.7,2.5-6.1c0-2.3-0.8-4.3-2.5-5.9c-1.6-1.7-3.8-2.5-6.1-2.5
		c-2.4,0-4.3,0.8-6,2.5c-1.6,1.6-2.5,3.6-2.5,5.9c0,2.4,0.8,4.4,2.5,6.1c1.7,1.6,3.6,2.5,6,2.5C120.9,101.5,123,100.7,124.7,99z"/>
	<path class="st2" d="M103.5,78.4c-4.2-4.1-6.2-9.1-6.2-14.9c0-5.9,2.1-10.9,6.3-15c4.1-4.2,9.1-6.2,15-6.2c5.8,0,10.8,2,14.9,6.2
		c4,4,6,8.8,6.2,14.4v0.6c0,0.3-0.1,0.7-0.1,1.1c-0.2,5.3-2.2,10-6.2,13.8c-4.1,4.2-9.1,6.2-14.9,6.2
		C112.5,84.6,107.5,82.5,103.5,78.4z M124.7,69.4c1.6-1.6,2.5-3.7,2.5-6.1c0-2.3-0.8-4.3-2.5-5.9c-1.6-1.7-3.8-2.5-6.1-2.5
		c-2.4,0-4.3,0.8-6,2.5c-1.6,1.6-2.5,3.6-2.5,5.9c0,2.4,0.8,4.4,2.5,6.1c1.7,1.6,3.6,2.5,6,2.5C120.9,71.9,123,71,124.7,69.4z"/>
	<path class="st2" d="M103.5,48.7c-4.2-4.1-6.2-9.1-6.2-14.9c0-5.9,2.1-10.9,6.3-15c4.1-4.2,9.1-6.2,15-6.2c5.8,0,10.8,2,14.9,6.2
		c4,4,6,8.8,6.2,14.4v0.6c0,0.3-0.1,0.7-0.1,1.1c-0.2,5.3-2.2,10-6.2,13.8c-4.1,4.2-9.1,6.2-14.9,6.2
		C112.5,54.9,107.5,52.9,103.5,48.7z M124.7,39.8c1.6-1.6,2.5-3.7,2.5-6.1c0-2.3-0.8-4.3-2.5-5.9c-1.6-1.7-3.8-2.5-6.1-2.5
		c-2.4,0-4.3,0.8-6,2.5c-1.6,1.6-2.5,3.6-2.5,5.9c0,2.4,0.8,4.4,2.5,6.1c1.7,1.6,3.6,2.5,6,2.5C120.9,42.2,123,41.4,124.7,39.8z"/>
	<path class="st2" d="M129.2,211.8c-4.2-4.1-6.2-9.1-6.2-14.9c0-5.9,2.1-10.9,6.3-15c4.1-4.2,9.1-6.2,15-6.2c5.8,0,10.8,2,14.9,6.2
		c4,4,6,8.8,6.2,14.4v0.6c0,0.3-0.1,0.7-0.1,1.1c-0.2,5.3-2.2,10-6.2,13.8c-4.1,4.2-9.1,6.2-14.9,6.2
		C138.3,218,133.3,216,129.2,211.8z M149.2,202.9c1.6-1.6,2.5-3.7,2.5-6.1c0-2.3-0.8-4.3-2.5-5.9c-1.6-1.7-3.8-2.5-6.1-2.5
		c-2.4,0-4.3,0.8-6,2.5c-1.6,1.6-2.5,3.6-2.5,5.9c0,2.4,0.8,4.4,2.5,6.1c1.7,1.6,3.6,2.5,6,2.5C145.4,205.3,147.5,204.5,149.2,202.9
		z"/>
	<path class="st2" d="M56.4,241.5c3.9-3.9,6-8.5,6.2-13.8c0-0.4,0.1-0.7,0.1-1.1V226c-0.2-5.6-2.2-10.4-6.2-14.4
		c-4.1-4.2-9.1-6.2-14.9-6.2c-5.9,0-10.9,2.1-15,6.2c-4.2,4.1-6.2,9.1-6.3,15c0,5.8,2,10.8,6.2,14.9c2.5,2.5,5.3,4.3,8.5,5.2h13
		C51.1,245.8,53.9,244.1,56.4,241.5z M33.5,226.6c0-2.3,0.8-4.3,2.5-5.9c1.7-1.7,3.6-2.5,6-2.5c2.3,0,4.4,0.8,6.1,2.5
		c1.6,1.6,2.5,3.6,2.5,5.9c0,2.4-0.8,4.4-2.5,6.1c-1.6,1.6-3.8,2.5-6.1,2.5c-2.4,0-4.3-0.8-6-2.5C34.3,231,33.5,228.9,33.5,226.6z"
		/>
	<path class="st2" d="M107.7,241.5c3.9-3.9,6-8.5,6.2-13.8c0-0.4,0.1-0.7,0.1-1.1V226c-0.2-5.6-2.2-10.4-6.2-14.4
		c-4.1-4.2-9.1-6.2-14.9-6.2c-5.9,0-10.9,2.1-15,6.2c-4.2,4.1-6.2,9.1-6.3,15c0,5.8,2,10.8,6.2,14.9c2.5,2.5,5.3,4.3,8.4,5.2h13
		C102.4,245.8,105.2,244.1,107.7,241.5z M86.2,232.6c-1.6-1.6-2.5-3.7-2.5-6.1c0-2.3,0.8-4.3,2.5-5.9c1.7-1.7,3.6-2.5,6-2.5
		c2.3,0,4.4,0.8,6.1,2.5c1.6,1.6,2.5,3.6,2.5,5.9c0,2.4-0.8,4.4-2.5,6.1c-1.6,1.6-3.8,2.5-6.1,2.5C89.8,235.1,87.9,234.3,86.2,232.6
		z"/>
	<path class="st2" d="M159.1,241.5c3.9-3.9,6-8.5,6.2-13.8c0-0.4,0.1-0.7,0.1-1.1V226c-0.2-5.6-2.2-10.4-6.2-14.4
		c-4.1-4.2-9.1-6.2-14.9-6.2c-5.9,0-10.9,2.1-15,6.2c-4.2,4.1-6.2,9.1-6.3,15c0,5.8,2,10.8,6.2,14.9c2.5,2.5,5.3,4.3,8.4,5.2h13
		C153.8,245.8,156.6,244.1,159.1,241.5z M136.3,226.6c0-2.3,0.8-4.3,2.5-5.9c1.7-1.7,3.6-2.5,6-2.5c2.3,0,4.4,0.8,6.1,2.5
		c1.6,1.6,2.5,3.6,2.5,5.9c0,2.4-0.8,4.4-2.5,6.1c-1.6,1.6-3.8,2.5-6.1,2.5c-2.4,0-4.3-0.8-6-2.5C137.1,231,136.3,228.9,136.3,226.6
		z"/>
	<path class="st2" d="M35.6,246.8c0.3-1.4,0.6-2.8,0.6-4.3c0-0.4,0.1-0.7,0.1-1.1v-0.6c-0.2-5.6-2.2-10.4-6.2-14.4
		c-4.1-4.2-9.1-6.2-14.9-6.2c-1.4,0-2.8,0.1-4.1,0.4v13.2c1.1-0.6,2.3-0.8,3.7-0.8c2.3,0,4.4,0.8,6.1,2.5c1.6,1.6,2.5,3.6,2.5,5.9
		c0,2.1-0.6,3.9-1.9,5.4L35.6,246.8z"/>
	<path class="st2" d="M30.1,226.6c3.9-3.9,6-8.5,6.2-13.8c0-0.4,0.1-0.7,0.1-1.1v-0.6c-0.2-5.6-2.2-10.4-6.2-14.4
		c-4.1-4.2-9.1-6.2-14.9-6.2c-1.4,0-2.8,0.1-4.1,0.4v13.4c1.2-0.7,2.6-1.1,4.1-1.1c2.3,0,4.4,0.8,6.1,2.5c1.6,1.6,2.5,3.6,2.5,5.9
		c0,2.4-0.8,4.4-2.5,6.1c-1.6,1.6-3.8,2.5-6.1,2.5c-1.6,0-2.9-0.4-4.1-1.1v13.4c1.3,0.2,2.6,0.3,4,0.3C21,232.8,26,230.8,30.1,226.6
		z"/>
	<path class="st2" d="M30.1,196.9c3.9-3.9,6-8.5,6.2-13.8c0-0.4,0.1-0.7,0.1-1.1v-0.6c-0.2-5.6-2.2-10.4-6.2-14.4
		c-4.1-4.2-9.1-6.2-14.9-6.2c-1.4,0-2.8,0.1-4.1,0.4v13.7c1.4-0.9,2.8-1.4,4.6-1.4c2.3,0,4.4,0.8,6.1,2.5c1.6,1.6,2.5,3.6,2.5,5.9
		c0,2.4-0.8,4.4-2.5,6.1c-1.6,1.6-3.8,2.5-6.1,2.5c-1.8,0-3.2-0.4-4.6-1.3v13.7c1.3,0.2,2.6,0.3,4,0.3C21,203.1,26,201,30.1,196.9z"
		/>
	<path class="st2" d="M30.1,167.2c3.9-3.9,6-8.5,6.2-13.8c0-0.4,0.1-0.7,0.1-1.1v-0.6c-0.2-5.6-2.2-10.4-6.2-14.4
		c-4.1-4.2-9.1-6.2-14.9-6.2c-1.4,0-2.8,0.1-4.1,0.4v13.7c1.4-0.9,2.8-1.4,4.6-1.4c2.3,0,4.4,0.8,6.1,2.5c1.6,1.6,2.5,3.6,2.5,5.9
		c0,2.4-0.8,4.4-2.5,6.1c-1.6,1.6-3.8,2.5-6.1,2.5c-1.8,0-3.2-0.4-4.6-1.3v13.7c1.3,0.2,2.6,0.3,4,0.3C21,173.5,26,171.4,30.1,167.2
		z"/>
	<path class="st2" d="M30.1,137.6c3.9-3.9,6-8.5,6.2-13.8c0-0.4,0.1-0.7,0.1-1.1v-0.6c-0.2-5.6-2.2-10.4-6.2-14.4
		c-4.1-4.2-9.1-6.2-14.9-6.2c-1.4,0-2.8,0.1-4.1,0.4v13.7c1.4-0.9,2.8-1.4,4.6-1.4c2.3,0,4.4,0.8,6.1,2.5c1.6,1.6,2.5,3.6,2.5,5.9
		c0,2.4-0.8,4.4-2.5,6.1c-1.6,1.6-3.8,2.5-6.1,2.5c-1.8,0-3.2-0.4-4.6-1.3v13.7c1.3,0.2,2.6,0.3,4,0.3C21,143.8,26,141.8,30.1,137.6
		z"/>
	<path class="st2" d="M30.1,108c3.9-3.9,6-8.5,6.2-13.8c0-0.4,0.1-0.7,0.1-1.1v-0.6c-0.2-5.6-2.2-10.4-6.2-14.4
		c-4.1-4.2-9.1-6.2-14.9-6.2c-1.4,0-2.8,0.1-4.1,0.4V86c1.4-0.9,2.8-1.4,4.6-1.4c2.3,0,4.4,0.8,6.1,2.5c1.6,1.6,2.5,3.6,2.5,5.9
		c0,2.4-0.8,4.4-2.5,6.1c-1.6,1.6-3.8,2.5-6.1,2.5c-1.8,0-3.2-0.4-4.6-1.3V114c1.3,0.2,2.6,0.3,4,0.3C21,114.2,26,112.1,30.1,108z"
		/>
	<path class="st2" d="M30.1,78.3c3.9-3.9,6-8.5,6.2-13.8c0-0.4,0.1-0.7,0.1-1.1v-0.6c-0.2-5.6-2.2-10.4-6.2-14.4
		c-4.1-4.2-9.1-6.2-14.9-6.2c-1.4,0-2.8,0.1-4.1,0.4v13.7c1.4-0.9,2.8-1.4,4.6-1.4c2.3,0,4.4,0.8,6.1,2.5c1.6,1.6,2.5,3.6,2.5,5.9
		c0,2.4-0.8,4.4-2.5,6.1c-1.6,1.6-3.8,2.5-6.1,2.5c-1.8,0-3.2-0.4-4.6-1.3v13.7c1.3,0.2,2.6,0.3,4,0.3C21,84.6,26,82.5,30.1,78.3z"
		/>
	<path class="st2" d="M30.1,48.7c3.9-3.9,6-8.5,6.2-13.8c0-0.4,0.1-0.7,0.1-1.1v-0.6c-0.2-5.6-2.2-10.4-6.2-14.4
		c-4.1-4.2-9.1-6.2-14.9-6.2c-0.3,0-0.6,0-0.9,0c-0.5,0.3-1,0.5-1.4,0.9c-1.1,1-1.7,2.4-1.7,3.8v9.3c1.4-0.9,2.8-1.4,4.6-1.4
		c2.3,0,4.4,0.8,6.1,2.5c1.6,1.6,2.5,3.6,2.5,5.9c0,2.4-0.8,4.4-2.5,6.1c-1.6,1.6-3.8,2.5-6.1,2.5c-1.8,0-3.2-0.4-4.6-1.3v13.7
		c1.3,0.2,2.6,0.3,4,0.3C21,54.9,26,52.9,30.1,48.7z"/>
	<path class="st2" d="M30.1,19.1c2.2-2.1,3.7-4.5,4.8-7.1H19c-1,0.4-2.1,0.6-3.2,0.6c-0.4,0-0.8,0-1.2-0.1c-0.6,0.3-1.2,0.6-1.7,1.1
		c-1.1,1-1.7,2.4-1.7,3.8V25c1.3,0.2,2.6,0.3,4,0.3C21,25.3,26,23.2,30.1,19.1z"/>
	<path class="st2" d="M52.6,19.1c4.1,4.2,9.1,6.2,15,6.2c5.8,0,10.8-2.1,14.9-6.2c2.2-2.1,3.7-4.5,4.8-7.1H70.4
		c-1,0.4-2.1,0.6-3.2,0.6C66,12.6,65,12.4,64,12H47.9C48.9,14.6,50.5,17,52.6,19.1z"/>
	<path class="st2" d="M88.1,246.8c0.3-1.4,0.6-2.8,0.6-4.3c0-0.4,0.1-0.7,0.1-1.1v-0.6c-0.2-5.6-2.2-10.4-6.2-14.4
		c-4.1-4.2-9.1-6.2-14.9-6.2c-5.9,0-10.9,2.1-15,6.2c-4.2,4.1-6.2,9.1-6.3,15c0,1.9,0.2,3.6,0.7,5.3h14.7c-1.3-1.5-1.9-3.3-1.9-5.4
		c0-2.3,0.8-4.3,2.5-5.9c1.7-1.7,3.6-2.5,6-2.5c2.3,0,4.4,0.8,6.1,2.5c1.6,1.6,2.5,3.6,2.5,5.9c0,2.1-0.6,3.9-1.9,5.4h13
		C88.1,246.7,88.1,246.8,88.1,246.8z"/>
	<path class="st2" d="M138.9,246.8c0.3-1.4,0.6-2.8,0.6-4.3c0-0.4,0.1-0.7,0.1-1.1v-0.6c-0.2-5.6-2.2-10.4-6.2-14.4
		c-4.1-4.2-9.1-6.2-14.9-6.2c-5.9,0-10.9,2.1-15,6.2c-4.2,4.1-6.2,9.1-6.3,15c0,1.9,0.2,3.6,0.7,5.3h13.7c-1.3-1.5-1.9-3.3-1.9-5.4
		c0-2.3,0.8-4.3,2.5-5.9c1.7-1.7,3.6-2.5,6-2.5c2.3,0,4.4,0.8,6.1,2.5c1.6,1.6,2.5,3.6,2.5,5.9c0,2.1-0.6,3.9-1.9,5.4h14V246.8z"/>
	<path class="st2" d="M56.5,241.8c-4.1-4.2-9.1-6.2-14.9-6.2c-5.9,0-10.9,2.1-15,6.2c-1.6,1.6-2.9,3.2-3.8,5h37.5
		C59.3,245,58,243.3,56.5,241.8z"/>
	<path class="st2" d="M107.7,241.8c-4.1-4.2-9.1-6.2-14.9-6.2c-5.9,0-10.9,2.1-15,6.2c-1.6,1.6-2.9,3.2-3.8,5h37.5
		C110.5,245,109.3,243.3,107.7,241.8z"/>
	<path class="st2" d="M159.2,241.8c-4.1-4.2-9.1-6.2-14.9-6.2c-5.9,0-10.9,2.1-15,6.2c-1.6,1.6-2.9,3.2-3.8,5H163
		C162,245,160.7,243.3,159.2,241.8z"/>
	<path class="st2" d="M155.4,226.5c-4.2,4.1-6.2,9.1-6.3,15c0,1.9,0.2,3.6,0.7,5.3h12.7c-1.3-1.5-1.9-3.3-1.9-5.4
		c0-2.3,0.8-4.3,2.5-5.9c1.7-1.7,3.6-2.5,6-2.5c2.3,0,4.4,0.8,6.1,2.5c0.2,0.2,0.5,0.5,0.7,0.7v-15.3c-1.7-0.4-3.5-0.7-5.4-0.7
		C164.5,220.3,159.5,222.3,155.4,226.5z"/>
	<path class="st2" d="M155.4,196.8c-4.2,4.1-6.2,9.1-6.3,15c0,5.8,2,10.8,6.2,14.9c4.1,4.2,9.1,6.2,15,6.2c1.9,0,3.7-0.2,5.4-0.7
		v-14.7c-0.1,0.1-0.1,0.2-0.2,0.2c-1.6,1.6-3.8,2.5-6.1,2.5c-2.4,0-4.3-0.8-6-2.5c-1.6-1.6-2.5-3.7-2.5-6.1c0-2.3,0.8-4.3,2.5-5.9
		c1.7-1.7,3.6-2.5,6-2.5c2.3,0,4.4,0.8,6.1,2.5c0.1,0.1,0.1,0.1,0.2,0.2v-14.8c-1.7-0.4-3.5-0.7-5.4-0.7
		C164.5,190.5,159.5,192.6,155.4,196.8z"/>
	<path class="st2" d="M155.4,167c-4.2,4.1-6.2,9.1-6.3,15c0,5.8,2,10.8,6.2,14.9c4.1,4.2,9.1,6.2,15,6.2c1.9,0,3.7-0.2,5.4-0.7
		v-14.2c-1.6,1.5-3.6,2.2-5.8,2.2c-2.4,0-4.3-0.8-6-2.5c-1.6-1.6-2.5-3.7-2.5-6.1c0-2.3,0.8-4.3,2.5-5.9c1.7-1.7,3.6-2.5,6-2.5
		c2.2,0,4.2,0.7,5.8,2.3v-14.3c-1.7-0.4-3.5-0.7-5.4-0.7C164.5,160.8,159.5,162.8,155.4,167z"/>
	<path class="st2" d="M155.4,137.4c-4.2,4.1-6.2,9.1-6.3,15c0,5.8,2,10.8,6.2,14.9c4.1,4.2,9.1,6.2,15,6.2c1.9,0,3.7-0.2,5.4-0.7
		v-14.2c-1.6,1.5-3.6,2.2-5.8,2.2c-2.4,0-4.3-0.8-6-2.5c-1.6-1.6-2.5-3.7-2.5-6.1c0-2.3,0.8-4.3,2.5-5.9c1.7-1.7,3.6-2.5,6-2.5
		c2.2,0,4.2,0.7,5.8,2.3v-14.3c-1.7-0.4-3.5-0.7-5.4-0.7C164.5,131.1,159.5,133.2,155.4,137.4z"/>
	<path class="st2" d="M155.4,107.7c-4.2,4.1-6.2,9.1-6.3,15c0,5.8,2,10.8,6.2,14.9c4.1,4.2,9.1,6.2,15,6.2c1.9,0,3.7-0.2,5.4-0.7
		v-14.2c-1.6,1.5-3.6,2.2-5.8,2.2c-2.4,0-4.3-0.8-6-2.5c-1.6-1.6-2.5-3.7-2.5-6.1c0-2.3,0.8-4.3,2.5-5.9c1.7-1.7,3.6-2.5,6-2.5
		c2.2,0,4.2,0.7,5.8,2.3v-14.3c-1.7-0.4-3.5-0.7-5.4-0.7C164.5,101.5,159.5,103.6,155.4,107.7z"/>
	<path class="st2" d="M155.4,78.1c-4.2,4.1-6.2,9.1-6.3,15c0,5.8,2,10.8,6.2,14.9c4.1,4.2,9.1,6.2,15,6.2c1.9,0,3.7-0.2,5.4-0.7
		V99.3c-1.6,1.5-3.6,2.2-5.8,2.2c-2.4,0-4.3-0.8-6-2.5c-1.6-1.6-2.5-3.7-2.5-6.1c0-2.3,0.8-4.3,2.5-5.9c1.7-1.7,3.6-2.5,6-2.5
		c2.2,0,4.2,0.7,5.8,2.3V72.5c-1.7-0.4-3.5-0.7-5.4-0.7C164.5,71.9,159.5,73.9,155.4,78.1z"/>
	<path class="st2" d="M155.4,48.5c-4.2,4.1-6.2,9.1-6.3,15c0,5.8,2,10.8,6.2,14.9c4.1,4.2,9.1,6.2,15,6.2c1.9,0,3.7-0.2,5.4-0.7
		V69.6c-1.6,1.5-3.6,2.2-5.8,2.2c-2.4,0-4.3-0.8-6-2.5c-1.6-1.6-2.5-3.7-2.5-6.1c0-2.3,0.8-4.3,2.5-5.9c1.7-1.7,3.6-2.5,6-2.5
		c2.2,0,4.2,0.7,5.8,2.3V42.8c-1.7-0.4-3.5-0.7-5.4-0.7C164.5,42.2,159.5,44.3,155.4,48.5z"/>
	<path class="st2" d="M155.4,18.8c-4.2,4.1-6.2,9.1-6.3,15c0,5.8,2,10.8,6.2,14.9c4.1,4.2,9.1,6.2,15,6.2c1.9,0,3.7-0.2,5.4-0.7V40
		c-1.6,1.5-3.6,2.2-5.8,2.2c-2.4,0-4.3-0.8-6-2.5c-1.6-1.6-2.5-3.7-2.5-6.1c0-2.3,0.8-4.3,2.5-5.9c1.7-1.7,3.6-2.5,6-2.5
		c2.2,0,4.2,0.7,5.8,2.3V17.3c0-2-1.2-3.7-2.9-4.6c-0.8-0.1-1.6-0.1-2.4-0.1C164.5,12.6,159.5,14.7,155.4,18.8z"/>
	<path class="st2" d="M144.1,40.1c5.8,0,10.8-2.1,14.9-6.2c3.9-3.9,6-8.5,6.2-13.8c0-0.4,0.1-0.7,0.1-1.1v-0.6
		c-0.1-2.3-0.5-4.4-1.1-6.4h-15.8c0.4,0.3,0.8,0.6,1.2,1c1.6,1.6,2.5,3.6,2.5,5.9c0,2.4-0.8,4.4-2.5,6.1c-1.6,1.6-3.8,2.5-6.1,2.5
		c-2.4,0-4.3-0.8-6-2.5c-1.6-1.6-2.5-3.7-2.5-6.1c0-2.3,0.8-4.3,2.5-5.9c0.4-0.4,0.8-0.7,1.2-1h-14.6c-0.7,2.2-1.1,4.5-1.1,7
		c0,5.8,2,10.8,6.2,14.9C133.2,38.1,138.2,40.1,144.1,40.1z"/>
	<path class="st2" d="M103.5,19.1c4.1,4.2,9.1,6.2,15,6.2c5.8,0,10.8-2.1,14.9-6.2c2.2-2.1,3.7-4.5,4.8-7.1h-17.9
		c-1,0.4-2.1,0.6-3.2,0.6c-1.2,0-2.2-0.2-3.2-0.6H98.8C99.7,14.6,101.3,17,103.5,19.1z"/>
	<path class="st2" d="M155.4,19.1c4.1,4.2,9.1,6.2,15,6.2c1.9,0,3.7-0.2,5.4-0.7v-7.2c0-2.3-1.6-4.2-3.8-5c-0.7,0.1-1.3,0.2-2,0.2
		c-1.2,0-2.2-0.2-3.2-0.6h-16.2C151.7,14.6,153.2,17,155.4,19.1z"/>
	<g id="Blast">
	</g>
</g>
</svg>
