<?xml version="1.0" encoding="UTF-8" standalone="no"?>
<svg xmlns="http://www.w3.org/2000/svg" xmlns:xlink="http://www.w3.org/1999/xlink" class="card" face="5C" height="3.5in" preserveAspectRatio="none" viewBox="-106 -164.5 212 329" width="2.25in"><defs><symbol id="SC5" viewBox="-600 -600 1200 1200" preserveAspectRatio="xMinYMid"><path d="M-100 500L100 500L100 340A260 260 0 1 0 200 -150A230 230 0 1 0 -200 -150A260 260 0 1 0 -100 340Z"></path></symbol><symbol id="VC5" viewBox="-500 -500 1000 1000" preserveAspectRatio="xMinYMid"><path d="M170 -460L-175 -460L-210 -115C-210 -115 -200 -200 0 -200C100 -200 255 -80 255 120C255 320 180 460 -20 460C-220 460 -255 285 -255 285" stroke="black" stroke-width="80" stroke-linecap="square" stroke-miterlimit="1.5" fill="none"></path></symbol><rect id="XC5" width="108" height="225" x="-54" y="-112.5"></rect></defs><rect width="211" height="328" x="-105.5" y="-164" rx="19" ry="19" fill="white" stroke="black"></rect><use xlink:href="#XC5" width="108" height="225" stroke="black" fill="none"></use><use xlink:href="#VC5" height="50" width="50" x="-104" y="-145.5"></use><use xlink:href="#VC5" height="50" width="50" x="54" y="-145.5"></use><use xlink:href="#SC5" height="40.675" width="40.675" x="-99.337" y="-90.5" stroke="black" stroke-width="100" stroke-linejoin="round" stroke-linecap="round"></use><use xlink:href="#SC5" height="40.675" width="40.675" x="-99.337" y="-90.5" fill="green"></use><use xlink:href="#SC5" height="40.675" width="40.675" x="58.663" y="-90.5" stroke="black" stroke-width="100" stroke-linejoin="round" stroke-linecap="round"></use><use xlink:href="#SC5" height="40.675" width="40.675" x="58.663" y="-90.5" fill="green"></use><use xlink:href="#SC5" height="40" width="40" x="-53.017" y="-110.934"></use><use xlink:href="#SC5" height="40" width="40" x="13.017" y="-110.934"></use><use xlink:href="#SC5" height="40" width="40" x="-20" y="-20"></use><g transform="rotate(180)"><use xlink:href="#VC5" height="50" width="50" x="-104" y="-145.5"></use><use xlink:href="#VC5" height="50" width="50" x="54" y="-145.5"></use><use xlink:href="#SC5" height="40.675" width="40.675" x="-99.337" y="-90.5" stroke="black" stroke-width="100" stroke-linejoin="round" stroke-linecap="round"></use><use xlink:href="#SC5" height="40.675" width="40.675" x="-99.337" y="-90.5" fill="green"></use><use xlink:href="#SC5" height="40.675" width="40.675" x="58.663" y="-90.5" stroke="black" stroke-width="100" stroke-linejoin="round" stroke-linecap="round"></use><use xlink:href="#SC5" height="40.675" width="40.675" x="58.663" y="-90.5" fill="green"></use><use xlink:href="#SC5" height="40" width="40" x="-53.017" y="-110.934"></use><use xlink:href="#SC5" height="40" width="40" x="13.017" y="-110.934"></use></g></svg>