<?xml version="1.0" encoding="UTF-8" standalone="no"?>
<svg xmlns="http://www.w3.org/2000/svg" xmlns:xlink="http://www.w3.org/1999/xlink" class="card" face="3D" height="3.5in" preserveAspectRatio="none" viewBox="-106 -164.5 212 329" width="2.25in"><defs><symbol id="SD3" viewBox="-600 -600 1200 1200" preserveAspectRatio="xMinYMid"><path d="M-400 0L0 -500L400 0L 0 500Z"></path></symbol><symbol id="VD3" viewBox="-500 -500 1000 1000" preserveAspectRatio="xMinYMid"><path d="M-250 -320L-250 -460L200 -460L-110 -80C-100 -90 -50 -120 0 -120C200 -120 250 0 250 150C250 350 170 460 -30 460C-230 460 -260 300 -260 300" stroke="black" stroke-width="80" stroke-linecap="square" stroke-miterlimit="1.5" fill="none"></path></symbol><rect id="XD3" width="108" height="225" x="-54" y="-112.5"></rect></defs><rect width="211" height="328" x="-105.5" y="-164" rx="19" ry="19" fill="white" stroke="black"></rect><use xlink:href="#XD3" width="108" height="225" stroke="black" fill="none"></use><use xlink:href="#VD3" height="50" width="50" x="-104" y="-145.5"></use><use xlink:href="#VD3" height="50" width="50" x="54" y="-145.5"></use><use xlink:href="#SD3" height="40.675" width="40.675" x="-99.337" y="-90.5" stroke="black" stroke-width="100" stroke-linejoin="round" stroke-linecap="round"></use><use xlink:href="#SD3" height="40.675" width="40.675" x="-99.337" y="-90.5" fill="blue"></use><use xlink:href="#SD3" height="40.675" width="40.675" x="58.663" y="-90.5" stroke="black" stroke-width="100" stroke-linejoin="round" stroke-linecap="round"></use><use xlink:href="#SD3" height="40.675" width="40.675" x="58.663" y="-90.5" fill="blue"></use><use xlink:href="#SD3" height="40" width="40" x="-20" y="-110.834"></use><use xlink:href="#SD3" height="40" width="40" x="-20" y="-20"></use><g transform="rotate(180)"><use xlink:href="#VD3" height="50" width="50" x="-104" y="-145.5"></use><use xlink:href="#VD3" height="50" width="50" x="54" y="-145.5"></use><use xlink:href="#SD3" height="40.675" width="40.675" x="-99.337" y="-90.5" stroke="black" stroke-width="100" stroke-linejoin="round" stroke-linecap="round"></use><use xlink:href="#SD3" height="40.675" width="40.675" x="-99.337" y="-90.5" fill="blue"></use><use xlink:href="#SD3" height="40.675" width="40.675" x="58.663" y="-90.5" stroke="black" stroke-width="100" stroke-linejoin="round" stroke-linecap="round"></use><use xlink:href="#SD3" height="40.675" width="40.675" x="58.663" y="-90.5" fill="blue"></use><use xlink:href="#SD3" height="40" width="40" x="-20" y="-110.834"></use></g></svg>
