<?xml version="1.0" encoding="UTF-8" standalone="no"?>
<svg xmlns="http://www.w3.org/2000/svg" xmlns:xlink="http://www.w3.org/1999/xlink" class="card" face="7D" height="3.5in" preserveAspectRatio="none" viewBox="-106 -164.5 212 329" width="2.25in"><defs><symbol id="SD7" viewBox="-600 -600 1200 1200" preserveAspectRatio="xMinYMid"><path d="M-400 0L0 -500L400 0L 0 500Z"></path></symbol><symbol id="VD7" viewBox="-500 -500 1000 1000" preserveAspectRatio="xMinYMid"><path d="M-265 -320L-265 -460L265 -460C135 -200 -90 100 -90 460" stroke="black" stroke-width="80" stroke-linecap="square" stroke-miterlimit="1.5" fill="none"></path></symbol><rect id="XD7" width="108" height="225" x="-54" y="-112.5"></rect></defs><rect width="211" height="328" x="-105.5" y="-164" rx="19" ry="19" fill="white" stroke="black"></rect><use xlink:href="#XD7" width="108" height="225" stroke="black" fill="none"></use><use xlink:href="#VD7" height="50" width="50" x="-104" y="-145.5"></use><use xlink:href="#VD7" height="50" width="50" x="54" y="-145.5"></use><use xlink:href="#SD7" height="40.675" width="40.675" x="-99.337" y="-90.5" stroke="black" stroke-width="100" stroke-linejoin="round" stroke-linecap="round"></use><use xlink:href="#SD7" height="40.675" width="40.675" x="-99.337" y="-90.5" fill="blue"></use><use xlink:href="#SD7" height="40.675" width="40.675" x="58.663" y="-90.5" stroke="black" stroke-width="100" stroke-linejoin="round" stroke-linecap="round"></use><use xlink:href="#SD7" height="40.675" width="40.675" x="58.663" y="-90.5" fill="blue"></use><use xlink:href="#SD7" height="40" width="40" x="-55.667" y="-110.834"></use><use xlink:href="#SD7" height="40" width="40" x="15.667" y="-110.834"></use><use xlink:href="#SD7" height="40" width="40" x="-55.667" y="-20"></use><use xlink:href="#SD7" height="40" width="40" x="15.667" y="-20"></use><use xlink:href="#SD7" height="40" width="40" x="-20" y="-92.667"></use><g transform="rotate(180)"><use xlink:href="#VD7" height="50" width="50" x="-104" y="-145.5"></use><use xlink:href="#VD7" height="50" width="50" x="54" y="-145.5"></use><use xlink:href="#SD7" height="40.675" width="40.675" x="-99.337" y="-90.5" stroke="black" stroke-width="100" stroke-linejoin="round" stroke-linecap="round"></use><use xlink:href="#SD7" height="40.675" width="40.675" x="-99.337" y="-90.5" fill="blue"></use><use xlink:href="#SD7" height="40.675" width="40.675" x="58.663" y="-90.5" stroke="black" stroke-width="100" stroke-linejoin="round" stroke-linecap="round"></use><use xlink:href="#SD7" height="40.675" width="40.675" x="58.663" y="-90.5" fill="blue"></use><use xlink:href="#SD7" height="40" width="40" x="-55.667" y="-110.834"></use><use xlink:href="#SD7" height="40" width="40" x="15.667" y="-110.834"></use></g></svg>
