<?xml version="1.0" encoding="UTF-8" standalone="no"?>
<svg xmlns="http://www.w3.org/2000/svg" xmlns:xlink="http://www.w3.org/1999/xlink" class="card" face="TH" height="3.5in" preserveAspectRatio="none" viewBox="-106 -164.5 212 329" width="2.25in"><defs><symbol id="SHT" viewBox="-600 -600 1200 1200" preserveAspectRatio="xMinYMid"><path d="M0 -300A230 230 0 0 1 460 -150C400 0 200 300 0 500C-200 300 -400 0 -460 -150A230 230 0 0 1 0 -300Z"></path></symbol><symbol id="VHT" viewBox="-500 -500 1000 1000" preserveAspectRatio="xMinYMid"><path d="M-260 430L-260 -430M-50 0L-50 -310A150 150 0 0 1 250 -310L250 310A150 150 0 0 1 -50 310Z" stroke="black" stroke-width="80" stroke-linecap="square" stroke-miterlimit="1.5" fill="none"></path></symbol><rect id="XHT" width="108" height="225" x="-54" y="-112.5"></rect></defs><rect width="211" height="328" x="-105.5" y="-164" rx="19" ry="19" fill="white" stroke="black"></rect><use xlink:href="#XHT" width="108" height="225" stroke="black" fill="none"></use><use xlink:href="#VHT" height="50" width="50" x="-104" y="-145.5"></use><use xlink:href="#VHT" height="50" width="50" x="54" y="-145.5"></use><use xlink:href="#SHT" height="40.675" width="40.675" x="-99.337" y="-90.5" stroke="black" stroke-width="100" stroke-linejoin="round" stroke-linecap="round"></use><use xlink:href="#SHT" height="40.675" width="40.675" x="-99.337" y="-90.5" fill="red"></use><use xlink:href="#SHT" height="40.675" width="40.675" x="58.663" y="-90.5" stroke="black" stroke-width="100" stroke-linejoin="round" stroke-linecap="round"></use><use xlink:href="#SHT" height="40.675" width="40.675" x="58.663" y="-90.5" fill="red"></use><use xlink:href="#SHT" height="40" width="40" x="-53.284" y="-111.384"></use><use xlink:href="#SHT" height="40" width="40" x="13.284" y="-111.384"></use><use xlink:href="#SHT" height="40" width="40" x="-53.284" y="-50.461"></use><use xlink:href="#SHT" height="40" width="40" x="13.284" y="-50.461"></use><use xlink:href="#SHT" height="40" width="40" x="-20" y="-93.107"></use><g transform="rotate(180)"><use xlink:href="#VHT" height="50" width="50" x="-104" y="-145.5"></use><use xlink:href="#VHT" height="50" width="50" x="54" y="-145.5"></use><use xlink:href="#SHT" height="40.675" width="40.675" x="-99.337" y="-90.5" stroke="black" stroke-width="100" stroke-linejoin="round" stroke-linecap="round"></use><use xlink:href="#SHT" height="40.675" width="40.675" x="-99.337" y="-90.5" fill="red"></use><use xlink:href="#SHT" height="40.675" width="40.675" x="58.663" y="-90.5" stroke="black" stroke-width="100" stroke-linejoin="round" stroke-linecap="round"></use><use xlink:href="#SHT" height="40.675" width="40.675" x="58.663" y="-90.5" fill="red"></use><use xlink:href="#SHT" height="40" width="40" x="-53.284" y="-111.384"></use><use xlink:href="#SHT" height="40" width="40" x="13.284" y="-111.384"></use><use xlink:href="#SHT" height="40" width="40" x="-53.284" y="-50.461"></use><use xlink:href="#SHT" height="40" width="40" x="13.284" y="-50.461"></use><use xlink:href="#SHT" height="40" width="40" x="-20" y="-93.107"></use></g></svg>