<?xml version="1.0" encoding="UTF-8" standalone="no"?>
<svg xmlns="http://www.w3.org/2000/svg" xmlns:xlink="http://www.w3.org/1999/xlink" class="card" face="4H" height="3.5in" preserveAspectRatio="none" viewBox="-106 -164.5 212 329" width="2.25in"><defs><symbol id="SH4" viewBox="-600 -600 1200 1200" preserveAspectRatio="xMinYMid"><path d="M0 -300A230 230 0 0 1 460 -150C400 0 200 300 0 500C-200 300 -400 0 -460 -150A230 230 0 0 1 0 -300Z"></path></symbol><symbol id="VH4" viewBox="-500 -500 1000 1000" preserveAspectRatio="xMinYMid"><path d="M50 460L250 460M150 460L150 -460L-300 175L-300 200L270 200" stroke="black" stroke-width="80" stroke-linecap="square" stroke-miterlimit="1.5" fill="none"></path></symbol><rect id="XH4" width="108" height="225" x="-54" y="-112.5"></rect></defs><rect width="211" height="328" x="-105.5" y="-164" rx="19" ry="19" fill="white" stroke="black"></rect><use xlink:href="#XH4" width="108" height="225" stroke="black" fill="none"></use><use xlink:href="#VH4" height="50" width="50" x="-104" y="-145.5"></use><use xlink:href="#VH4" height="50" width="50" x="54" y="-145.5"></use><use xlink:href="#SH4" height="40.675" width="40.675" x="-99.337" y="-90.5" stroke="black" stroke-width="100" stroke-linejoin="round" stroke-linecap="round"></use><use xlink:href="#SH4" height="40.675" width="40.675" x="-99.337" y="-90.5" fill="red"></use><use xlink:href="#SH4" height="40.675" width="40.675" x="58.663" y="-90.5" stroke="black" stroke-width="100" stroke-linejoin="round" stroke-linecap="round"></use><use xlink:href="#SH4" height="40.675" width="40.675" x="58.663" y="-90.5" fill="red"></use><use xlink:href="#SH4" height="40" width="40" x="-53.284" y="-111.384"></use><use xlink:href="#SH4" height="40" width="40" x="13.284" y="-111.384"></use><g transform="rotate(180)"><use xlink:href="#VH4" height="50" width="50" x="-104" y="-145.5"></use><use xlink:href="#VH4" height="50" width="50" x="54" y="-145.5"></use><use xlink:href="#SH4" height="40.675" width="40.675" x="-99.337" y="-90.5" stroke="black" stroke-width="100" stroke-linejoin="round" stroke-linecap="round"></use><use xlink:href="#SH4" height="40.675" width="40.675" x="-99.337" y="-90.5" fill="red"></use><use xlink:href="#SH4" height="40.675" width="40.675" x="58.663" y="-90.5" stroke="black" stroke-width="100" stroke-linejoin="round" stroke-linecap="round"></use><use xlink:href="#SH4" height="40.675" width="40.675" x="58.663" y="-90.5" fill="red"></use><use xlink:href="#SH4" height="40" width="40" x="-53.284" y="-111.384"></use><use xlink:href="#SH4" height="40" width="40" x="13.284" y="-111.384"></use></g></svg>
